<svg xmlns="http://www.w3.org/2000/svg" width="57.695" height="57.694" viewBox="0 0 57.695 57.694"><defs><style>.a{fill:#00a8ff;}</style></defs><path class="a" d="M28.847,57.694A28.847,28.847,0,1,1,57.695,28.847,28.847,28.847,0,0,1,28.847,57.694ZM55.185,28.847a26.314,26.314,0,1,0-7.724,18.647,26.337,26.337,0,0,0,7.724-18.647Z"/><path class="a" d="M27.689,49.372l-.577-.352a8.077,8.077,0,0,1-3.5-3.958,1.627,1.627,0,0,1,.087-1.783c-.381-.438-.762-.837-1.1-1.264a7.61,7.61,0,0,1-1.627-4.275c-.063-1.154,0-1.252.819-1.84a24.127,24.127,0,0,1-.7-2.792,7.466,7.466,0,0,1,.935-4.835,1.258,1.258,0,0,1,2.239-.213,18.393,18.393,0,0,0,10.962,6.306c.254.052.513.069.79.11.087-.577.144-1.154.254-1.731a8.043,8.043,0,0,1,12.82-4.817.929.929,0,0,0,.992.2c.946-.375,1.91-.715,2.833-1.154.779-.352,1.275-.363,1.731.1A1.312,1.312,0,0,1,54.73,28.8l-.323.577c1.569.208,2.014,1.154,1.044,2.365a28.656,28.656,0,0,1-2.5,2.6,1.246,1.246,0,0,0-.462.975A20.938,20.938,0,0,1,20.46,53.058c-.779-.462-1.027-1-.813-1.656s.8-.906,1.656-.8a11.245,11.245,0,0,0,6.387-1.229ZM27,45.431a5.493,5.493,0,0,0,3.969,2.308,1.287,1.287,0,0,1,1.339.946,1.344,1.344,0,0,1-.692,1.5,15.179,15.179,0,0,1-5.394,2.371c-.138.035-.265.087-.5.167a17.955,17.955,0,0,0,10.31.479A18.479,18.479,0,0,0,49.988,35.1c0-.727-.11-1.477.692-1.95-1.264-.513-1.483-1.09-.917-2.308a1.7,1.7,0,0,1-1.633-.623,5.66,5.66,0,0,0-8.031.3,5.5,5.5,0,0,0-1.419,4.921c.162.935-.144,1.592-.888,1.731a3.4,3.4,0,0,1-.969,0,20.828,20.828,0,0,1-12.5-5.6l-.577-.548a8.441,8.441,0,0,0-.2,1.5,5.469,5.469,0,0,0,2.354,4.3,1.3,1.3,0,0,1,.577,1.685,1.344,1.344,0,0,1-1.731.612c-.3-.081-.577-.2-.9-.294,0,.092-.029.115,0,.133a.842.842,0,0,0,.04.173,5.562,5.562,0,0,0,3.958,3.589c.825.213,1.269.715,1.212,1.373s-.577,1.1-1.4,1.194C27.435,45.351,27.262,45.385,27,45.431Z" transform="translate(-8.28 -11.086)"/></svg>