<svg xmlns="http://www.w3.org/2000/svg" xmlns:xlink="http://www.w3.org/1999/xlink" viewBox="0 0 500 228.02"><defs><style>.cls-1{fill:#1d1d1b;}.cls-2{fill:#fff;}.cls-3{fill:url(#radial-gradient);}</style><radialGradient id="radial-gradient" cx="314.99" cy="225.02" r="72.18" gradientTransform="matrix(-0.05, -0.99, 1.01, -0.06, 54.88, 493.31)" gradientUnits="userSpaceOnUse"><stop offset="0" stop-color="#6b8934"/><stop offset="0.25" stop-color="#9fb036"/><stop offset="0.5" stop-color="#f1ba47"/><stop offset="0.75" stop-color="#edaa48"/><stop offset="0.79" stop-color="#ec9f42"/><stop offset="1" stop-color="#e66e29"/></radialGradient></defs><title>Full Light</title><g id="Full_Light" data-name="Full Light"><g id="Logo"><g id="Text"><path class="cls-1" d="M40.7,90.13h2.17L67,114.73V90.34h6.89V128.8H72.09l-24.5-24v23.68H40.7Z"/><path class="cls-1" d="M88.15,90.34h25.39v6.2H95v10.7h16.78v6H95v9.13h18.5v6.19H88.15Z"/><path class="cls-1" d="M126.21,90.34H151.6v6.2H133.1v10.7h16.78v6H133.1v9.13h18.5v6.19H126.21Z"/><path class="cls-1" d="M204.11,128.53h-6.78l-.16-22-12.06,22.27h-2.39L170.55,107l-.11,21.56h-6.72l1.11-38.35h3L184.11,118l15.83-27.81H203Z"/><path class="cls-1" d="M316,91.22h32.84v6.2H336v32h-6.95v-32H316Z"/><path class="cls-1" d="M358.12,91.22h12.5a21,21,0,0,1,6.81,1,13.91,13.91,0,0,1,4.89,2.8,11.2,11.2,0,0,1,2.94,4.29,14.92,14.92,0,0,1,1,5.48,13.79,13.79,0,0,1-1.72,7,11.45,11.45,0,0,1-5.39,4.7l10,12.93h-8.05l-8.28-11.24c-1.11.11-2.28.16-3.5.16H365v11.08h-6.89Zm6.89,6.2v14.93h5.11a12.09,12.09,0,0,0,4.06-.59,7.17,7.17,0,0,0,2.69-1.61,5.59,5.59,0,0,0,1.47-2.39,9.51,9.51,0,0,0,.45-3,9.27,9.27,0,0,0-.45-2.93,5.59,5.59,0,0,0-1.44-2.33A6.93,6.93,0,0,0,374.23,98a12.81,12.81,0,0,0-4.11-.57Z"/><path class="cls-1" d="M399.4,91.22h25.39v6.2h-18.5v10.7h16.78v6H406.29v9.13h18.5v6.19H399.4Z"/><path class="cls-1" d="M437.46,91.22h25.4v6.2H444.35v10.7h16.78v6H444.35v9.13h18.51v6.19h-25.4Z"/><path class="cls-1" d="M325.42,153.07a3.09,3.09,0,0,1-1.19,2.56,5.17,5.17,0,0,1-3.27.93,7.16,7.16,0,0,1-2.16-.33,8.45,8.45,0,0,1-1.9-.83l.76-1.93a7,7,0,0,0,1.65.79,5.28,5.28,0,0,0,1.72.3,2.45,2.45,0,0,0,1.62-.45,1.34,1.34,0,0,0,.52-1,1.43,1.43,0,0,0-.1-.56,1.39,1.39,0,0,0-.41-.49,4.2,4.2,0,0,0-.82-.5c-.35-.16-.81-.35-1.37-.56a9.21,9.21,0,0,1-1.53-.7,4.27,4.27,0,0,1-1-.79,2.81,2.81,0,0,1-.55-.91,3.2,3.2,0,0,1,.12-2.36,3.38,3.38,0,0,1,.81-1.12,4,4,0,0,1,1.31-.79,4.91,4.91,0,0,1,1.77-.29,7.4,7.4,0,0,1,1.91.24,6.26,6.26,0,0,1,1.52.59l-.71,1.9a8.47,8.47,0,0,0-1.3-.55,4.32,4.32,0,0,0-1.48-.26,2,2,0,0,0-1.45.45,1.54,1.54,0,0,0-.46,1.1,1.22,1.22,0,0,0,.56,1,7.31,7.31,0,0,0,1.87.88,12.41,12.41,0,0,1,1.73.81,4.54,4.54,0,0,1,1.09.85,2.55,2.55,0,0,1,.58,1A3.57,3.57,0,0,1,325.42,153.07Z"/><path class="cls-1" d="M328.19,150.27a6,6,0,0,1,.51-2.46,6.31,6.31,0,0,1,1.41-2,6.71,6.71,0,0,1,2.1-1.33,7,7,0,0,1,2.61-.48,7.41,7.41,0,0,1,2.67.46,6.18,6.18,0,0,1,2.1,1.31,5.93,5.93,0,0,1,1.38,2,6.25,6.25,0,0,1,.5,2.51,6,6,0,0,1-.51,2.49,6.16,6.16,0,0,1-1.39,2,6.62,6.62,0,0,1-2.11,1.32,7,7,0,0,1-2.64.47,7.12,7.12,0,0,1-2.64-.47,6.61,6.61,0,0,1-2.1-1.31,6,6,0,0,1-1.38-2A6.11,6.11,0,0,1,328.19,150.27Zm2.37,0a4.43,4.43,0,0,0,.33,1.72,4.2,4.2,0,0,0,.91,1.38,4.25,4.25,0,0,0,1.36.92,4.32,4.32,0,0,0,3.36,0,4.39,4.39,0,0,0,1.36-.91,4.2,4.2,0,0,0,.91-1.38,4.44,4.44,0,0,0,.33-1.73,4.67,4.67,0,0,0-.32-1.73,4.08,4.08,0,0,0-.88-1.38,4,4,0,0,0-1.36-.92,4.5,4.5,0,0,0-3.43,0,4.12,4.12,0,0,0-2.24,2.3A4.48,4.48,0,0,0,330.56,150.3Z"/><path class="cls-1" d="M345.18,144.2h2.19v10.18h5.89v2h-8.08Z"/><path class="cls-1" d="M355.79,144.2H358v7.13a3.46,3.46,0,0,0,.77,2.51,3,3,0,0,0,2.18.77,3.06,3.06,0,0,0,2.21-.78,3.38,3.38,0,0,0,.82-2.52V144.2h2.19v7.13a6.61,6.61,0,0,1-.38,2.35,4.56,4.56,0,0,1-1.06,1.63,4.3,4.3,0,0,1-1.65,1,6.81,6.81,0,0,1-2.13.31,6.68,6.68,0,0,1-2.11-.31,4.38,4.38,0,0,1-1.63-1,4.27,4.27,0,0,1-1-1.63,6.87,6.87,0,0,1-.36-2.35Z"/><path class="cls-1" d="M368.94,144.2h10.45v2h-4.08v10.17H373.1V146.18h-4.16Z"/><path class="cls-1" d="M382.34,144.2h2.19v12.15h-2.19Z"/><path class="cls-1" d="M388.25,150.27a6,6,0,0,1,.51-2.46,6.15,6.15,0,0,1,1.41-2,6.49,6.49,0,0,1,2.1-1.33,7,7,0,0,1,2.61-.48,7.49,7.49,0,0,1,2.67.46,6.28,6.28,0,0,1,2.1,1.31,5.93,5.93,0,0,1,1.38,2,6.24,6.24,0,0,1,.49,2.51,6,6,0,0,1-.5,2.49,6.19,6.19,0,0,1-1.4,2,6.46,6.46,0,0,1-2.1,1.32,7.68,7.68,0,0,1-5.29,0,6.67,6.67,0,0,1-2.09-1.31,6.21,6.21,0,0,1-1.39-2A6.27,6.27,0,0,1,388.25,150.27Zm2.37,0a4.62,4.62,0,0,0,.32,1.72,4.2,4.2,0,0,0,.91,1.38,4.36,4.36,0,0,0,1.36.92,4.1,4.1,0,0,0,1.68.34,4,4,0,0,0,1.68-.34,4.43,4.43,0,0,0,1.37-.91,4.36,4.36,0,0,0,.91-1.38,4.91,4.91,0,0,0,0-3.46,4.12,4.12,0,0,0-2.24-2.3,4.45,4.45,0,0,0-1.73-.34,4.34,4.34,0,0,0-1.7.34,3.9,3.9,0,0,0-1.35.92,4.13,4.13,0,0,0-.9,1.38A4.67,4.67,0,0,0,390.62,150.3Z"/><path class="cls-1" d="M405.24,144.14h.69l7.69,7.82V144.2h2.19v12.24h-.58l-7.8-7.62v7.53h-2.19Z"/><path class="cls-1" d="M427.94,153.07a3.09,3.09,0,0,1-1.19,2.56,5.17,5.17,0,0,1-3.27.93,7.16,7.16,0,0,1-2.16-.33,8.45,8.45,0,0,1-1.9-.83l.75-1.93a7.23,7.23,0,0,0,1.66.79,5.28,5.28,0,0,0,1.72.3,2.45,2.45,0,0,0,1.62-.45,1.34,1.34,0,0,0,.52-1,1.27,1.27,0,0,0-.11-.56,1.26,1.26,0,0,0-.4-.49,4.2,4.2,0,0,0-.82-.5c-.35-.16-.81-.35-1.37-.56a8.85,8.85,0,0,1-1.53-.7,4.27,4.27,0,0,1-1-.79,2.81,2.81,0,0,1-.55-.91,3.2,3.2,0,0,1,.12-2.36,3.38,3.38,0,0,1,.81-1.12,4,4,0,0,1,1.31-.79,4.91,4.91,0,0,1,1.77-.29,7.4,7.4,0,0,1,1.91.24,6.17,6.17,0,0,1,1.51.59l-.7,1.9a8.47,8.47,0,0,0-1.3-.55,4.36,4.36,0,0,0-1.48-.26,2,2,0,0,0-1.45.45,1.54,1.54,0,0,0-.46,1.1,1.22,1.22,0,0,0,.56,1,7.31,7.31,0,0,0,1.87.88,12.41,12.41,0,0,1,1.73.81,4.54,4.54,0,0,1,1.09.85,2.69,2.69,0,0,1,.58,1A3.57,3.57,0,0,1,427.94,153.07Z"/><path class="cls-1" d="M153.16,156.36h-2.3l5.84-12.26h.49L163,156.36h-2.36l-1.09-2.42h-5.34Zm1.86-4.14h3.78L156.91,148Z"/><path class="cls-1" d="M177,150v5.2a8.66,8.66,0,0,1-1.29.69,11.32,11.32,0,0,1-1.51.48,8.86,8.86,0,0,1-2,.21,8.37,8.37,0,0,1-2.86-.47,6.67,6.67,0,0,1-2.21-1.32,5.92,5.92,0,0,1-1.43-2,6.27,6.27,0,0,1-.5-2.5,5.88,5.88,0,0,1,.53-2.46,6.24,6.24,0,0,1,1.44-2,6.85,6.85,0,0,1,2.13-1.33,7,7,0,0,1,2.6-.48,10.38,10.38,0,0,1,1.86.15,11.45,11.45,0,0,1,1.38.35,6.74,6.74,0,0,1,1.14.48l-.76,1.83c-.31-.13-.65-.27-1-.39s-.66-.18-1.05-.27a5.32,5.32,0,0,0-1.2-.13,5.71,5.71,0,0,0-2,.32,4.3,4.3,0,0,0-1.48.89,3.79,3.79,0,0,0-.93,1.36,4.36,4.36,0,0,0-.33,1.72,4.28,4.28,0,0,0,.33,1.69,4,4,0,0,0,.94,1.34,4.47,4.47,0,0,0,1.42.88,5,5,0,0,0,1.8.32,7.81,7.81,0,0,0,1.59-.15,8.41,8.41,0,0,0,1.24-.33V151.9h-3.47V150Z"/><path class="cls-1" d="M180.86,144.21h4a6.76,6.76,0,0,1,2.17.31,4.28,4.28,0,0,1,1.55.9,3.58,3.58,0,0,1,.94,1.36,4.7,4.7,0,0,1,.31,1.75,4.35,4.35,0,0,1-.55,2.22,3.55,3.55,0,0,1-1.71,1.49l3.18,4.12h-2.56l-2.64-3.58c-.35,0-.72.05-1.11.05h-1.36v3.53h-2.2Zm2.2,2v4.75h1.62a3.74,3.74,0,0,0,1.29-.19,2.39,2.39,0,0,0,.86-.51,1.77,1.77,0,0,0,.47-.76,3.24,3.24,0,0,0,.14-.94,3.14,3.14,0,0,0-.14-.94,1.78,1.78,0,0,0-.46-.74,2.19,2.19,0,0,0-.85-.49,4.1,4.1,0,0,0-1.31-.18Z"/><path class="cls-1" d="M193.08,150.27a6,6,0,0,1,.51-2.46,6.15,6.15,0,0,1,1.41-2,6.49,6.49,0,0,1,2.1-1.33,7,7,0,0,1,2.61-.48,7.41,7.41,0,0,1,2.67.46,6.44,6.44,0,0,1,2.1,1.31,5.93,5.93,0,0,1,1.38,2,6.25,6.25,0,0,1,.5,2.51,6,6,0,0,1-.51,2.49,6.16,6.16,0,0,1-1.39,2,6.62,6.62,0,0,1-2.11,1.32,7.5,7.5,0,0,1-5.28,0,6.44,6.44,0,0,1-2.1-1.31,6.1,6.1,0,0,1-1.39-2A6.27,6.27,0,0,1,193.08,150.27Zm2.37,0a4.42,4.42,0,0,0,.33,1.71,4,4,0,0,0,.91,1.38,4.25,4.25,0,0,0,1.36.92,4.32,4.32,0,0,0,3.36,0,4.16,4.16,0,0,0,2.27-2.29,4.39,4.39,0,0,0,.33-1.72,4.68,4.68,0,0,0-.32-1.74,4,4,0,0,0-.89-1.38,4,4,0,0,0-1.35-.92,4.5,4.5,0,0,0-3.43,0,4.25,4.25,0,0,0-1.35.92,4,4,0,0,0-.89,1.38A4.49,4.49,0,0,0,195.45,150.31Z"/></g><g id="Neem_Tree_Leaf" data-name="Neem Tree Leaf"><path class="cls-1" d="M263.6,51.42a29.65,29.65,0,0,0,0,13l1.52-.64c.31,2.77.62,5.41.92,8.09h0s0,0,.05,0h.06a2.88,2.88,0,0,1,1.4-.48c.72,0,1.18.56,1.41,1.72a28.78,28.78,0,0,1,.13,3.23,13.25,13.25,0,0,0,.36,1.75l2.14-.6c0,1,.09,2.25.08,3.44,0,2-.12,4.06-.07,6.08,0,.24.71.61,1.13.66H273c.53,0,1.21-.12,1.62-.12.18,0,.31,0,.34.1a9.51,9.51,0,0,1,.87,3.56c0,1.61-.32,3.23-.39,4.85a4.31,4.31,0,0,0,2,3.67l.52-.15c-.21-1.27-.41-2.53-.62-3.84,1.43,1,2.79,2.06,2.56,4-.2,1.59-.65,3.16-1,4.89l4.11.21c1.11,3.9.15,7.71-1,11.8l3.17-1.34a3.24,3.24,0,0,1,.91,2.61,11.63,11.63,0,0,1-.33,2.68c-.31,1.32-.21,1.7.85,1.7l.63,0,.6,0c1,0,1.23.38,1.23,1.75a10.18,10.18,0,0,1-1.45,5.56c-.23.37-.39.77-.7,1.41.83-.11,1.4-.17,2-.27a4.13,4.13,0,0,1,.57,0c.88,0,1.24.46,1,1.52a23.09,23.09,0,0,1-1.36,3.6,8.79,8.79,0,0,1-.59,1l2.13.38c.23,2.58-.87,4.37-3.72,5.47a15.59,15.59,0,0,0,2,.55c1.16.12,1.29.76,1,1.69-.55,1.55-1.12,3.08-2.82,3.78a8,8,0,0,0-.82.44l.11.47,2.61.81c-.22,2.21-2.09,3.72-5.8,4.85l3.06.87c-.28,2.5-2.48,2.72-4.43,3.29a1.59,1.59,0,0,1-.44,2.87,25.16,25.16,0,0,1-3.55.87c1.11,1.34,1,1.72-.91,2.34-1,.31-1.88.76-2.85,1a3.56,3.56,0,0,1-1,.13l-.63,0c-.52-.05-1-.45-1.56-.45a1.1,1.1,0,0,0-.88.49h0a5,5,0,0,1-1.14-.52c-.57-.33-1.11-.7-1.66-1.05l-.41.15a14.05,14.05,0,0,0,.14,2.84c.57,2.18,1.28,4.33,2,6.48.26.83.53,1.57-.66,1.92a3.91,3.91,0,0,1-1.1.19,1.39,1.39,0,0,1-1.5-1.09,29,29,0,0,1-.58-3.73c-.2-1.73-.36-3.46-.56-5.37-.93.7-1.7,1.24-2.43,1.83a2.41,2.41,0,0,1-1.39.7,1.08,1.08,0,0,1-.94-.65c-1.14.35-2.17.71-3.23,1h0c-.13,0-.37-.41-.59-.41h-.05c-1.14-.16-2.3-.27-3.41-.54-.15,0-.09-.89-.15-1.58-1.47-.49-3.54.34-4.81-1.81l1.43-.68-.14-.38-.89,0c-2.12,0-4-.41-4.88-2.84l2.67-.76c-2.39-.79-4.77-.8-5.88-3.19l1.74-1a23.08,23.08,0,0,1-3.33-3c-1.06-1.44-.61-2.1,1.19-2.27.24,0,.48-.09,1-.19-2.41-.94-4.67-1.69-4.85-4.39l3-.6c-2.24-1.8-3.95-3.53-3.64-6.38l2.91-.24c-2.56-2.12-2.66-4.75-2.81-7.37,0-.73.21-1,.78-1l.36,0c.74.12,1.48.18,2.6.32-2.46-2.9-1.67-5.75-1.12-8.59l4.54,1.75c-.84-1.72-1.58-3.1-2.19-4.55a7.15,7.15,0,0,1-.44-2.11c-.17-1.59-.12-2.1.73-2.1a8,8,0,0,1,1.32.18c.74.15,1.5.23,2.59.38a11.85,11.85,0,0,1-1.9-8.48l3.89.5c-.54-2.24-1-4.15-1.46-6-.28-1.09.07-1.52,1.13-1.52h.83c1.15,0,1.08-.25.53-1.79l-.12-.38c-.72-2.34-.64-2.46,1.77-2.6a2.09,2.09,0,0,0,.39-.11c-.38-1.4-.8-2.77-1.1-4.17-.45-2.07-.23-2.42,1.72-2.42H250c.26,0,.51,0,.84-.06-.14-1.8-.27-3.55-.41-5.4l2.21.73c-.2-1.68-.35-3.13-.55-4.58-.12-.86,0-1.41,1.06-1.44s1-.52.7-1.29a4.45,4.45,0,0,1,.8-4.56,15.93,15.93,0,0,0-.09,2.81c.05.37.68.66,1.06,1a8.83,8.83,0,0,0,.48-1.2c.34-1.57.63-3.16,1-4.73.45-2.17.89-4.34,1.39-6.49.08-.37.45-.68.69-1a8.2,8.2,0,0,0,.5,1c.25.36.56.67.84,1,.25-.33.68-.64.71-1a22.89,22.89,0,0,0,0-3.1c-.15-3.26.29-6.36,2.4-9.08m4.28-9.61-6.24,8.09a14.87,14.87,0,0,0-2.94,9l-1.61,2.26a1.34,1.34,0,0,1-.11.14,4.06,4.06,0,0,0-1,1.75c-.36,1.55-.69,3.13-1,4.67l-2.33,3a6.94,6.94,0,0,0-1.55,5.43,3.11,3.11,0,0,0-.78.66,3.8,3.8,0,0,0-.72,3.07l.09.67-2-.68.28,3.7.22,2.9A3.47,3.47,0,0,0,246,87.71c-1.08,1.34-.72,3-.48,4.1.13.58.27,1.15.42,1.7a3,3,0,0,0-1.38,1.11,3.81,3.81,0,0,0-.3,3.41,3.3,3.3,0,0,0-1.64,1.11,3.69,3.69,0,0,0-.51,3.31c.21.83.41,1.66.62,2.52l-.33,0-2.32-.3-.43,2.3a12.71,12.71,0,0,0,.29,5.9,3.14,3.14,0,0,0-2.32,1c-1,1.13-.87,2.62-.74,3.82a11.94,11.94,0,0,0,.31,1.9l-1.63-.63-.56,2.91-.11.56a14.85,14.85,0,0,0-.32,5.81,3.05,3.05,0,0,0-1.36.84,3.44,3.44,0,0,0-.87,2.68v.15a16.78,16.78,0,0,0,.81,5l-.7.06-.22,2a7.74,7.74,0,0,0,1.2,5.09l-.72.14.14,2.17a5.92,5.92,0,0,0,2.25,4.42,4,4,0,0,0,.9,3.74,8.88,8.88,0,0,0,1.07,1.2l-.69.42,1,2a6.3,6.3,0,0,0,2.87,3l.24.68a6.24,6.24,0,0,0,4.63,4.24l.06.1a5.57,5.57,0,0,0,4.69,2.77,2.42,2.42,0,0,0,1.81,1.75,28.08,28.08,0,0,0,2.86.49l.27,0a2.56,2.56,0,0,0,1.51.49h.29l.3-.06c.72-.17,1.4-.38,2.1-.6a3.35,3.35,0,0,0,1.5.36,3.88,3.88,0,0,0,1.8-.47c0,.37.08.74.13,1.12l.07.59a24.71,24.71,0,0,0,.57,3.48,3.84,3.84,0,0,0,3.89,2.93,6.42,6.42,0,0,0,1.81-.29A3.61,3.61,0,0,0,271,177a4,4,0,0,0,0-3.24l0-.06-.27-.84c-.41-1.26-.82-2.55-1.2-3.83H271l.21-.25a4.27,4.27,0,0,0,.88.18c.31,0,.58,0,.85,0a5.89,5.89,0,0,0,1.68-.22c.64-.19,1.22-.42,1.79-.65.4-.16.78-.31,1.14-.42.94-.31,2.69-.89,3.19-2.61,0-.07,0-.14.05-.21a12.62,12.62,0,0,0,1.36-.44,4.1,4.1,0,0,0,2.65-3.11,3.11,3.11,0,0,0,.06-.44,5.41,5.41,0,0,0,3.7-4.63l.13-1.16a6.63,6.63,0,0,0,2.61-4.6l.2-2-.63-.2a13,13,0,0,0,1.22-2.7,3.75,3.75,0,0,0-.19-3.37l-.17-.24a7.42,7.42,0,0,0,1.3-5.15l-.17-1.89-.78-.14a13.19,13.19,0,0,0,.72-2.2,3.77,3.77,0,0,0-.61-3.28,3.18,3.18,0,0,0-1.4-1,14,14,0,0,0,.67-4.43c0-3.09-1.59-4-3.12-4.18a12.65,12.65,0,0,0,.13-1.9c0-2.66-1.07-4-1.94-4.6l-1-.74a17.66,17.66,0,0,0-.17-8.39l-.48-1.7-1.77-.09-1.17-.06c.16-.74.31-1.5.4-2.28.43-3.49-2.18-5.31-3.59-6.3l-.52-.37a17.55,17.55,0,0,0,.1-2.2,11.79,11.79,0,0,0-1.09-4.53,2.7,2.7,0,0,0-2.59-1.54,4.89,4.89,0,0,0-.54,0c0-.65,0-1.3,0-2s0-1.46,0-2.19,0-1.73-.05-2.55c0-.33,0-.66,0-1l-.08-3.2-2.45.7a11.57,11.57,0,0,0-.15-2.29c-.53-2.72-2.15-3.47-3.18-3.66l-.63-5.48-.37-3.28-1.71.72a31.2,31.2,0,0,1,.57-9.06l1.85-10.06Z"/><path class="cls-2" d="M263.6,51.42a29.65,29.65,0,0,0,0,13l1.52-.64c.31,2.77.62,5.41.92,8.09h0s0,0,.05,0h.06a2.88,2.88,0,0,1,1.4-.48c.72,0,1.18.56,1.41,1.72a28.78,28.78,0,0,1,.13,3.23,13.25,13.25,0,0,0,.36,1.75l2.14-.6c0,1,.09,2.25.08,3.44,0,2-.12,4.06-.07,6.08,0,.24.71.61,1.13.66H273c.53,0,1.21-.12,1.62-.12.18,0,.31,0,.34.1a9.51,9.51,0,0,1,.87,3.56c0,1.61-.32,3.23-.39,4.85a4.31,4.31,0,0,0,2,3.67l.52-.15c-.21-1.27-.41-2.53-.62-3.84,1.43,1,2.79,2.06,2.56,4-.2,1.59-.65,3.16-1,4.89l4.11.21c1.11,3.9.15,7.71-1,11.8l3.17-1.34a3.24,3.24,0,0,1,.91,2.61,11.63,11.63,0,0,1-.33,2.68c-.31,1.32-.21,1.7.85,1.7l.63,0,.6,0c1,0,1.23.38,1.23,1.75a10.18,10.18,0,0,1-1.45,5.56c-.23.37-.39.77-.7,1.41.83-.11,1.4-.17,2-.27a4.13,4.13,0,0,1,.57,0c.88,0,1.24.46,1,1.52a23.09,23.09,0,0,1-1.36,3.6,8.79,8.79,0,0,1-.59,1l2.13.38c.23,2.58-.87,4.37-3.72,5.47a15.59,15.59,0,0,0,2,.55c1.16.12,1.29.76,1,1.69-.55,1.55-1.12,3.08-2.82,3.78a8,8,0,0,0-.82.44l.11.47,2.61.81c-.22,2.21-2.09,3.72-5.8,4.85l3.06.87c-.28,2.5-2.48,2.72-4.43,3.29a1.59,1.59,0,0,1-.44,2.87,25.16,25.16,0,0,1-3.55.87c1.11,1.34,1,1.72-.91,2.34-1,.31-1.88.76-2.85,1a3.56,3.56,0,0,1-1,.13l-.63,0c-.52-.05-1-.45-1.56-.45a1.1,1.1,0,0,0-.88.49h0a5,5,0,0,1-1.14-.52c-.57-.33-1.11-.7-1.66-1.05l-.41.15a14.05,14.05,0,0,0,.14,2.84c.57,2.18,1.28,4.33,2,6.48.26.83.53,1.57-.66,1.92a3.91,3.91,0,0,1-1.1.19,1.39,1.39,0,0,1-1.5-1.09,29,29,0,0,1-.58-3.73c-.2-1.73-.36-3.46-.56-5.37-.93.7-1.7,1.24-2.43,1.83a2.41,2.41,0,0,1-1.39.7,1.08,1.08,0,0,1-.94-.65c-1.14.35-2.17.71-3.23,1h0c-.13,0-.37-.41-.59-.41h-.05c-1.14-.16-2.3-.27-3.41-.54-.15,0-.09-.89-.15-1.58-1.47-.49-3.54.34-4.81-1.81l1.43-.68-.14-.38-.89,0c-2.12,0-4-.41-4.88-2.84l2.67-.76c-2.39-.79-4.77-.8-5.88-3.19l1.74-1a23.08,23.08,0,0,1-3.33-3c-1.06-1.44-.61-2.1,1.19-2.27.24,0,.48-.09,1-.19-2.41-.94-4.67-1.69-4.85-4.39l3-.6c-2.24-1.8-3.95-3.53-3.64-6.38l2.91-.24c-2.56-2.12-2.66-4.75-2.81-7.37,0-.73.21-1,.78-1l.36,0c.74.12,1.48.18,2.6.32-2.46-2.9-1.67-5.75-1.12-8.59l4.54,1.75c-.84-1.72-1.58-3.1-2.19-4.55a7.15,7.15,0,0,1-.44-2.11c-.17-1.59-.12-2.1.73-2.1a8,8,0,0,1,1.32.18c.74.15,1.5.23,2.59.38a11.85,11.85,0,0,1-1.9-8.48l3.89.5c-.54-2.24-1-4.15-1.46-6-.28-1.09.07-1.52,1.13-1.52h.83c1.15,0,1.08-.25.53-1.79l-.12-.38c-.72-2.34-.64-2.46,1.77-2.6a2.09,2.09,0,0,0,.39-.11c-.38-1.4-.8-2.77-1.1-4.17-.45-2.07-.23-2.42,1.72-2.42H250c.26,0,.51,0,.84-.06-.14-1.8-.27-3.55-.41-5.4l2.21.73c-.2-1.68-.35-3.13-.55-4.58-.12-.86,0-1.41,1.06-1.44s1-.52.7-1.29a4.45,4.45,0,0,1,.8-4.56,15.93,15.93,0,0,0-.09,2.81c.05.37.68.66,1.06,1a8.83,8.83,0,0,0,.48-1.2c.34-1.57.63-3.16,1-4.73.45-2.17.89-4.34,1.39-6.49.08-.37.45-.68.69-1a8.2,8.2,0,0,0,.5,1c.25.36.56.67.84,1,.25-.33.68-.64.71-1a22.89,22.89,0,0,0,0-3.1c-.15-3.26.29-6.36,2.4-9.08m2.14-4.81-3.12,4A14.57,14.57,0,0,0,260,60.55c0,.33,0,.69,0,1.08l-.71-1.41L258.1,61.9a1.92,1.92,0,0,1-.18.22,2.9,2.9,0,0,0-.71,1.23c-.42,1.81-.8,3.65-1.17,5.44l0-.41-2.42,3.12a5.67,5.67,0,0,0-1.09,5.43,2.08,2.08,0,0,0-1.27.7,2.58,2.58,0,0,0-.45,2.09c.12.86.23,1.72.33,2.63l-.38-.12L249,81.65l.14,1.85.32,4.12a3.08,3.08,0,0,0-2.52.86c-.65.82-.48,1.92-.23,3.07.21,1,.48,1.93.74,2.86a2.46,2.46,0,0,0-1.89.91c-.61.87-.29,1.9.11,3.2l.15.44,0,.12h-.24a2.51,2.51,0,0,0-2,.82,2.58,2.58,0,0,0-.29,2.24c.33,1.32.64,2.64,1,4.07l.06.22-2.11-.27-1.16-.15-.21,1.15a12.09,12.09,0,0,0,.91,7.15l-.16,0a8.23,8.23,0,0,0-1.55-.21,1.94,1.94,0,0,0-1.53.61c-.61.67-.57,1.57-.43,2.86a8.32,8.32,0,0,0,.53,2.47c.25.59.52,1.17.81,1.76l-1.58-.61-1.38-.53-.28,1.45-.11.57c-.41,2.08-.87,4.37.07,6.72h0a2.84,2.84,0,0,0-.56-.05,2,2,0,0,0-1.48.59,2.22,2.22,0,0,0-.53,1.76v.15a12.24,12.24,0,0,0,1.47,6.12l-.35,0h-.11l-1,.08-.11,1a6.85,6.85,0,0,0,2.2,5.78l-.58.12-1.06.21.07,1.08a4.91,4.91,0,0,0,2.64,4.13,2,2,0,0,0-.39.58,2.9,2.9,0,0,0,.65,2.79,11.5,11.5,0,0,0,2.18,2.12l-.24.15-.95.57.47,1a5.27,5.27,0,0,0,2.75,2.67l.41,1.17a5,5,0,0,0,4.25,3.54l.33.57a4.68,4.68,0,0,0,4.33,2.21h.36c0,.73.16,1.51,1.05,1.73a26.64,26.64,0,0,0,2.72.46l.62.08a1.44,1.44,0,0,0,1,.44h.15l.15,0c.85-.2,1.65-.45,2.51-.72l.05,0a2.16,2.16,0,0,0,1.33.47,3.58,3.58,0,0,0,2.18-1c.2-.17.41-.33.63-.5.11,1.11.22,2.16.35,3.22l.07.6a23,23,0,0,0,.54,3.31,2.62,2.62,0,0,0,2.69,2,5.44,5.44,0,0,0,1.46-.23,2.43,2.43,0,0,0,1.53-1.14,2.87,2.87,0,0,0,0-2.29l0-.06-.27-.84c-.59-1.82-1.2-3.71-1.68-5.57a3.6,3.6,0,0,1-.09-.68l.21.12c1.11.64,1.46.69,1.75.69h.59l.41-.47h0l.29.11a3.64,3.64,0,0,0,1.08.31c.24,0,.49,0,.74,0a4.56,4.56,0,0,0,1.33-.17,16.63,16.63,0,0,0,1.68-.61c.42-.16.81-.32,1.21-.45,1.09-.36,2.1-.77,2.39-1.77a1.8,1.8,0,0,0,0-.86,12.85,12.85,0,0,0,2.11-.6,2.92,2.92,0,0,0,1.9-2.17,2.62,2.62,0,0,0,0-1.08c1.65-.49,3.49-1.34,3.78-3.92l.12-1.05-.64-.18a5.85,5.85,0,0,0,3.26-4.51l.1-1-1-.3-.5-.15a8,8,0,0,0,2.23-3.74,2.67,2.67,0,0,0-.08-2.3,2.11,2.11,0,0,0-.91-.78,5.88,5.88,0,0,0,1.85-5.16l-.08-.94-.93-.17-.46-.08c.08-.18.16-.37.25-.56a15.37,15.37,0,0,0,1-2.86,2.54,2.54,0,0,0-.37-2.23,2.24,2.24,0,0,0-1.85-.79l-.35,0a11.65,11.65,0,0,0,1.2-5.44c0-1,0-3-2.47-3l-.7,0h-.22s0-.11,0-.17a12.8,12.8,0,0,0,.37-3,4.23,4.23,0,0,0-1.43-3.6l-.57-.41-.64.27-.81.35c.87-3.43,1.3-6.66.35-10l-.24-.85-.88,0-2.65-.13,0-.14a30.29,30.29,0,0,0,.68-3.44c.34-2.76-1.79-4.25-3.07-5.14l-1.12-.79a19.35,19.35,0,0,0,.17-2.77,10.41,10.41,0,0,0-1-4,1.45,1.45,0,0,0-1.46-.82c-.26,0-.54,0-.84.06s-.56.07-.78.07h-.16c0-1.1,0-2.23,0-3.32,0-.72,0-1.45,0-2.17s0-1.69,0-2.5c0-.34,0-.67,0-1l0-1.6-1.53.43-.72.21-.18.05c0-.11,0-.21,0-.3a11.42,11.42,0,0,1,0-1.18,10.93,10.93,0,0,0-.14-2.19c-.45-2.37-1.84-2.73-2.62-2.73a3.27,3.27,0,0,0-.44,0L266.59,66l-.27-2.36L266.13,62l-1.52.64-.15.06a30.28,30.28,0,0,1,.35-11l.93-5Z"/><path class="cls-3" d="M252.08,166.74c-1.47-.49-3.54.34-4.81-1.81l1.43-.68-.14-.38c-2.46.1-4.8-.05-5.77-2.82l2.67-.76c-2.39-.79-4.77-.8-5.88-3.19l1.74-1a23.08,23.08,0,0,1-3.33-3c-1.06-1.44-.61-2.1,1.19-2.27.24,0,.48-.09,1-.19-2.41-.94-4.67-1.69-4.85-4.39l3-.6c-2.24-1.8-3.95-3.53-3.64-6.38l2.91-.24c-2.56-2.12-2.66-4.75-2.81-7.37-.05-.87.31-1.15,1.14-1s1.48.18,2.6.32c-2.46-2.9-1.67-5.75-1.12-8.59l4.54,1.75c-.84-1.72-1.58-3.1-2.19-4.55a7.15,7.15,0,0,1-.44-2.11c-.23-2.19-.05-2.33,2-1.92.74.15,1.5.23,2.59.38a11.85,11.85,0,0,1-1.9-8.48l3.89.5c-.54-2.24-1-4.15-1.46-6-.29-1.15.1-1.56,1.29-1.52,1.83.06,1.84,0,1.2-1.78l-.12-.38c-.72-2.34-.64-2.46,1.77-2.6a2.09,2.09,0,0,0,.39-.11c-.38-1.4-.8-2.77-1.1-4.17-.47-2.16-.21-2.45,2-2.42a7.34,7.34,0,0,0,.87-.06l-.41-5.4,2.21.73c-.2-1.68-.35-3.13-.55-4.58-.12-.86,0-1.41,1.06-1.44s1-.52.7-1.29a4.45,4.45,0,0,1,.8-4.56,15.93,15.93,0,0,0-.09,2.81c.05.37.68.66,1.06,1a8.83,8.83,0,0,0,.48-1.2c.34-1.57.63-3.16,1-4.73.45-2.17.89-4.34,1.39-6.49.08-.37.45-.68.69-1a8.2,8.2,0,0,0,.5,1c.25.36.56.67.84,1,.25-.33.68-.64.71-1a22.89,22.89,0,0,0,0-3.1c-.15-3.26.29-6.36,2.4-9.08a29.65,29.65,0,0,0,0,13l1.52-.64.92,8.09c-.07,0,0,0,.1,0,1.55-.9,2.46-.55,2.81,1.24a28.78,28.78,0,0,1,.13,3.23,13.25,13.25,0,0,0,.36,1.75l2.14-.6c0,1,.08,2.25.08,3.44,0,2-.12,4.06-.07,6.08,0,.24.71.61,1.13.66.76.08,2.1-.28,2.22,0a9.51,9.51,0,0,1,.87,3.56c0,1.61-.32,3.23-.39,4.85a4.31,4.31,0,0,0,2,3.67l.52-.15-.62-3.84c1.43,1,2.79,2.06,2.56,4-.2,1.59-.65,3.16-1,4.89l4.11.21c1.11,3.9.15,7.71-1,11.8l3.17-1.34a3.24,3.24,0,0,1,.91,2.61,11.63,11.63,0,0,1-.33,2.68c-.36,1.55-.17,1.81,1.48,1.67s1.83.12,1.83,1.72a10.18,10.18,0,0,1-1.45,5.56c-.23.37-.39.77-.7,1.41.83-.11,1.4-.17,2-.27,1.28-.21,1.86.2,1.58,1.47a23.09,23.09,0,0,1-1.36,3.6,8.79,8.79,0,0,1-.59,1l2.13.38c.23,2.58-.87,4.37-3.72,5.47a15.59,15.59,0,0,0,2,.55c1.16.12,1.29.76,1,1.69-.55,1.55-1.12,3.08-2.82,3.78a8,8,0,0,0-.82.44l.11.47,2.61.81c-.22,2.21-2.09,3.72-5.8,4.85l3.06.87c-.28,2.5-2.48,2.72-4.43,3.29a1.59,1.59,0,0,1-.44,2.87,25.16,25.16,0,0,1-3.55.87c1.11,1.34,1,1.72-.91,2.34-1,.31-1.88.76-2.85,1a4.57,4.57,0,0,1-1.61.1c-.81-.08-1.6-1-2.44,0-.08.09-.79-.29-1.18-.51-.57-.33-1.11-.7-1.66-1.05l-.41.15a14.05,14.05,0,0,0,.14,2.84c.57,2.18,1.28,4.33,2,6.48.26.83.53,1.57-.66,1.92s-2.32.17-2.6-.9a29,29,0,0,1-.58-3.73c-.2-1.73-.36-3.46-.56-5.37-.93.7-1.7,1.24-2.43,1.83-.88.73-1.7,1.1-2.33.05-1.14.35-2.17.71-3.23,1-.15,0-.42-.48-.66-.4-1.14-.16-2.3-.27-3.41-.54C252.08,168.28,252.14,167.43,252.08,166.74Z"/></g></g></g></svg>