<svg xmlns="http://www.w3.org/2000/svg" width="57.661" height="57.694" viewBox="0 0 57.661 57.694"><defs><style>.a{fill:#032dff;}</style></defs><g transform="translate(0 0)"><path class="a" d="M0,26.583c.04-.046.1-.1.11-.144a2.548,2.548,0,0,1,0-.785c.208-.392-.023-.854.231-1.206a5.371,5.371,0,0,1,.237-1.54,20.321,20.321,0,0,1,.49-1.985c.2-.635.4-1.258.612-1.887.162-.479.375-.935.577-1.4a21.226,21.226,0,0,1,1.154-2.4c.265-.5.531-.987.819-1.465.237-.392.49-.779.762-1.154.387-.537.79-1.062,1.189-1.592S7.125,9.909,7.593,9.35A11.914,11.914,0,0,1,9.018,7.873c.635-.542,1.229-1.125,1.9-1.627s1.454-1.108,2.215-1.61c.433-.294.906-.531,1.344-.819A18.958,18.958,0,0,1,16.7,2.663c.623-.294,1.281-.537,1.921-.8A14.36,14.36,0,0,1,20.5,1.238c.4-.11.813-.219,1.212-.34.288-.092.577-.156.865-.225A11.77,11.77,0,0,0,23.943.349a5.521,5.521,0,0,1,.8-.11C25.253.142,25.807.205,26.32.1a10.477,10.477,0,0,1,2.037-.1h2.031a4.489,4.489,0,0,1,.963.115c.323.063.663-.115.958.11h.167c.213.035.444-.069.646.069s.467-.058.687.115.444-.058.612.156A9.583,9.583,0,0,1,36.03.88c.733.173,1.448.4,2.158.64s1.517.577,2.273.9,1.494.692,2.233,1.079c.831.444,1.639.946,2.435,1.465.577.358,1.044.825,1.581,1.217s1.056.9,1.587,1.344a11.7,11.7,0,0,1,1.287,1.217c.629.71,1.275,1.4,1.858,2.152s1.108,1.448,1.61,2.21c.294.438.525.912.819,1.35a18.058,18.058,0,0,1,1.154,2.215c.3.629.542,1.281.8,1.921a19.086,19.086,0,0,1,.715,2.233c.11.438.254.871.358,1.315.035.138.052.277.081.415a3.5,3.5,0,0,1,.11.4,9.231,9.231,0,0,1,.225,1.483c.179.225.058.5.121.738.121.415,0,.854.127,1.246a6.566,6.566,0,0,1,.087,1.535q0,.865,0,1.731c.052.779-.115,1.546-.138,2.308a7.184,7.184,0,0,1-.1.854,3.387,3.387,0,0,0-.1.8c-.231.19,0,.485-.185.715s0,.444-.138.675a5.515,5.515,0,0,0-.133.733c-.288.894-.49,1.817-.819,2.7-.237.635-.485,1.264-.762,1.881s-.652,1.385-1.01,2.06c-.265.513-.577,1.01-.86,1.506-.225.375-.456.75-.715,1.108-.352.542-.756,1.119-1.154,1.621s-.958,1.108-1.419,1.673A17.453,17.453,0,0,1,48.6,49.88c-.26.248-.548.479-.813.727a9.433,9.433,0,0,1-.79.675c-.842.635-1.662,1.246-2.515,1.829-.485.335-1.044.577-1.54.888a17.97,17.97,0,0,1-1.8.963c-.669.323-1.373.577-2.065.86a20.13,20.13,0,0,1-2.227.738,10.748,10.748,0,0,0-1.356.392c-.208.087-.462-.081-.617.144a13.644,13.644,0,0,0-1.592.254,20.615,20.615,0,0,1-2.152.231.949.949,0,0,0-.04.092H26.586c0-.156-.121-.11-.2-.11a2.515,2.515,0,0,1-.837,0,4.344,4.344,0,0,0-.692-.1,1.731,1.731,0,0,0-.687-.11.4.4,0,0,1-.219,0,6.1,6.1,0,0,0-1.385-.317c-.306-.081-.617-.144-.917-.237s-.773-.237-1.154-.335a14.141,14.141,0,0,1-1.887-.617,6.825,6.825,0,0,1-1.425-.629c-.438,0-.762-.335-1.154-.485a5.192,5.192,0,0,1-1.119-.577c-.877-.623-1.846-1.1-2.712-1.731A28.634,28.634,0,0,1,9.543,50.3a1.875,1.875,0,0,0-.242-.237A7.252,7.252,0,0,1,7.731,48.57c-.542-.623-1.114-1.235-1.615-1.9-.392-.531-.779-1.067-1.154-1.6-.265-.375-.531-.75-.767-1.154-.288-.479-.537-.981-.808-1.465a19.362,19.362,0,0,1-1.154-2.394c-.185-.467-.392-.929-.577-1.4-.219-.629-.415-1.258-.612-1.887a17.475,17.475,0,0,1-.467-2A5.539,5.539,0,0,1,.34,33.224c-.254-.369,0-.813-.208-1.212-.1-.213,0-.513,0-.779,0-.046-.069-.1-.11-.144ZM30.763,55.724v.052l1.644-.133h.052a9.145,9.145,0,0,1,1.667-.317,4.616,4.616,0,0,1,1.31-.254c.842-.381,1.765-.5,2.625-.865.669-.283,1.362-.519,2.025-.825.819-.375,1.615-.808,2.417-1.229a7.164,7.164,0,0,0,.71-.467c.525-.369,1.062-.715,1.581-1.1a18.693,18.693,0,0,0,1.979-1.558,28.305,28.305,0,0,0,3.133-3.306c.381-.5.773-1,1.154-1.506a23.112,23.112,0,0,0,1.615-2.689,25.882,25.882,0,0,0,1.558-3.56,15.665,15.665,0,0,0,.577-1.835,9.7,9.7,0,0,0,.473-2.175c.271-.213-.046-.577.225-.808a2.845,2.845,0,0,1,.138-.854,4.552,4.552,0,0,1,.1-.917,4.615,4.615,0,0,0,0-.894c0-.306.087-.577.1-.912v-1.3c0-.415-.081-.831-.11-1.246-.04-.577-.075-1.154-.115-1.731a.19.19,0,0,0,0-.058,8.078,8.078,0,0,1-.312-1.61c-.1-.577-.248-1.154-.392-1.731-.173-.663-.387-1.333-.623-1.99-.271-.75-.577-1.5-.877-2.227-.392-.871-.848-1.731-1.321-2.55a4.72,4.72,0,0,0-.387-.629c-.4-.519-.744-1.09-1.154-1.621a20.359,20.359,0,0,0-1.517-1.979,24.382,24.382,0,0,0-2.689-2.6c-.629-.49-1.206-1.05-1.858-1.5a29.493,29.493,0,0,0-2.827-1.731A28.512,28.512,0,0,0,38.3,3.54a7.5,7.5,0,0,0-1.315-.473c-.681-.121-1.321-.369-2-.513s-1.3-.254-1.939-.4a6.168,6.168,0,0,0-.744-.127,4.287,4.287,0,0,1-.8-.1,4.743,4.743,0,0,0-.952,0c-.323,0-.646-.081-.969-.1a24.993,24.993,0,0,0-2.937.115c-.473,0-.946.069-1.419.1h-.052c-.144.19-.346.075-.519.11s-.346.087-.519.11c-.329.052-.658.133-.987.2s-.675.179-1.021.248c-.537.11-1.044.288-1.569.433a22.939,22.939,0,0,0-2.885,1.1,26.613,26.613,0,0,0-2.55,1.315,4.379,4.379,0,0,0-.629.387c-.525.4-1.09.744-1.621,1.154a18.86,18.86,0,0,0-1.956,1.546,29.332,29.332,0,0,0-3.133,3.312c-.467.612-.929,1.229-1.379,1.852a22.807,22.807,0,0,0-1.54,2.573,10.8,10.8,0,0,0-.831,1.8c-.1.329-.306.623-.433.946s-.231.692-.346,1.038a11.988,11.988,0,0,0-.375,1.246A4.125,4.125,0,0,0,2.6,22.7a15.439,15.439,0,0,0-.444,1.9c.075.3-.127.577-.115.854a1.552,1.552,0,0,1-.11.854,15.577,15.577,0,0,1-.121,2.262c-.035.779.156,1.546.115,2.308a13.645,13.645,0,0,1,.121,1.529s0,.046,0,.058c.144.127.092.3.115.462s.092.34.1.513a8.562,8.562,0,0,0,.213,1.1c.058.369.173.721.248,1.085.1.49.288.969.415,1.46.092.335.248.652.352.975.213.687.531,1.327.8,1.985a21.849,21.849,0,0,0,1.61,3.04,22.08,22.08,0,0,0,2.7,3.641A26.8,26.8,0,0,0,11.949,49.9c.617.462,1.217.946,1.852,1.379a26.407,26.407,0,0,0,2.487,1.483,22.974,22.974,0,0,0,2.51,1.154,19.882,19.882,0,0,0,2.971.975c.462.1.929.225,1.379.358s.969.167,1.448.294,1.062.121,1.592.231a8.482,8.482,0,0,0,1.015,0c.34,0,.681.087,1.021.1h1.292A9.931,9.931,0,0,0,30.763,55.724Z" transform="translate(0 0.02)"/><path class="a" d="M45.169,46.883v6.7a.687.687,0,0,1-.75.721H38.9a.854.854,0,0,1-.94-.929V40.248c0-.363,0-.363-.34-.363H35.3a.86.86,0,0,1-.952-.923V33.614a.848.848,0,0,1,.952-.94h2.423c.185,0,.26,0,.254-.237V29.114c0-.288.087-.577.1-.854a5.1,5.1,0,0,1,0-.842c.1-.4.127-.808.219-1.206a7.28,7.28,0,0,1,.335-1.1,5.717,5.717,0,0,1,.842-1.344,4.944,4.944,0,0,1,1.344-1.1,3.906,3.906,0,0,1,1.212-.462,5.152,5.152,0,0,1,1.65-.242,20.878,20.878,0,0,1,3.56-.1c.8-.029,1.61,0,2.417,0a.854.854,0,0,1,.912.906v5.406a.819.819,0,0,1-.415.767,1.662,1.662,0,0,1-.738.127H46.375a1.408,1.408,0,0,1-.312-.052c-.5-.144-.894.1-.9.577v2.931a.173.173,0,0,0,.115.127,2.982,2.982,0,0,0,.392,0h3.946a.86.86,0,0,1,.946.929V38.95a.854.854,0,0,1-.94.935H45.4c-.2,0-.248.035-.248.242C45.169,42.377,45.169,44.627,45.169,46.883Zm-1.69-1.3V39a.842.842,0,0,1,.237-.64.808.808,0,0,1,.681-.271h4.166c.179,0,.213-.058.213-.219V34.71c0-.219-.075-.237-.26-.237h-4.16a1.062,1.062,0,0,1-.71-.329c-.2-.162-.167-.358-.167-.577V29.794a2.977,2.977,0,0,1,.208-1.321,2.077,2.077,0,0,1,.335-.577,2.308,2.308,0,0,1,1.731-.744c.94-.035,1.881,0,2.815,0,.1,0,.225.046.225-.144v-3.04c0-.2-.1-.288-.3-.306H44.454c-.092,0-.213-.035-.271,0-.2.156-.427.087-.635.11s-.421.075-.629.11A3.537,3.537,0,0,0,41.3,24.6a3.127,3.127,0,0,0-.981,1.275,2.654,2.654,0,0,0-.3,1.113c-.213.185,0,.45-.121.629a1.229,1.229,0,0,0-.1.635v5.066a2.262,2.262,0,0,1-.127.687.7.7,0,0,1-.652.473H36.342c-.144,0-.19.04-.19.19v3.208c0,.173.058.213.219.213h2.423c.577,0,.681.121.906.646a1.189,1.189,0,0,1,.058.485V52.2c0,.277,0,.277.254.283h3.1c.358,0,.363,0,.363-.346Z" transform="translate(-14.528 -9.226)"/></g></svg>