<svg xmlns="http://www.w3.org/2000/svg" width="106.391" height="82.75" viewBox="0 0 106.391 82.75">
  <defs>
    <style>
      .cls-1 {
        fill: #9fd268;
      }
    </style>
  </defs>
  <path id="Icon_awesome-book-open" data-name="Icon awesome-book-open" class="cls-1" d="M100.153,2.26c-10.122.574-30.241,2.665-42.661,10.268A2.84,2.84,0,0,0,56.15,14.96v67.21a2.923,2.923,0,0,0,4.3,2.492c12.778-6.432,31.258-8.186,40.4-8.667a5.761,5.761,0,0,0,5.545-5.663V7.93a5.79,5.79,0,0,0-6.238-5.671ZM48.9,12.528C36.48,4.925,16.362,2.836,6.239,2.26A5.793,5.793,0,0,0,0,7.93v62.4A5.758,5.758,0,0,0,5.545,76c9.141.48,27.631,2.237,40.409,8.672a2.914,2.914,0,0,0,4.287-2.486V14.927A2.781,2.781,0,0,0,48.9,12.528Z" transform="translate(0 -2.25)"/>
</svg>
