<svg xmlns="http://www.w3.org/2000/svg" width="76.192" height="70.751" viewBox="0 0 76.192 70.751">
  <defs>
    <style>
      .cls-1 {
        fill: #9fd268;
      }
    </style>
  </defs>
  <g id="Icon_ionic-md-analytics" data-name="Icon ionic-md-analytics" transform="translate(-2.25 -3.375)">
    <path id="Path_460" data-name="Path 460" class="cls-1" d="M61.319,13.374,46.493,36.057a8.077,8.077,0,0,1,1.836,5.152,8.162,8.162,0,1,1-16.323,0,8.943,8.943,0,0,1,.136-1.513L22.348,34a8.111,8.111,0,0,1-5.662,2.278,8.207,8.207,0,0,1-4.013-1.054L2.25,44.983v9.726a7.278,7.278,0,0,0,7.26,7.26H71.181a7.278,7.278,0,0,0,7.26-7.26V18.56l-9.964-6.614a8.156,8.156,0,0,1-7.158,1.428Z" transform="translate(0 12.156)"/>
    <path id="Path_461" data-name="Path 461" class="cls-1" d="M16.7,32.111a8.164,8.164,0,0,1,8.162,8.162c0,.357-.034.714-.068,1.054l10.219,5.713A8.089,8.089,0,0,1,40.184,45.2a8.54,8.54,0,0,1,1.768.187L56.814,22.368A8.075,8.075,0,0,1,55.3,17.641a8.162,8.162,0,0,1,16.323,0,8.869,8.869,0,0,1-.221,1.921l7.022,4.693V10.635a7.278,7.278,0,0,0-7.26-7.26H9.51a7.278,7.278,0,0,0-7.26,7.26V49.624l6.8-6.512a8.161,8.161,0,0,1,7.651-11Z"/>
  </g>
</svg>
