<svg xmlns="http://www.w3.org/2000/svg" xmlns:xlink="http://www.w3.org/1999/xlink" viewBox="0 0 2950.22 1329.25"><defs><style>.cls-1{fill:none;}.cls-2{fill:#fcecdb;}.cls-3{fill:#163560;}.cls-4{fill:#ed975d;}.cls-5{fill:#ed7d2b;}.cls-6{fill:#599dad;}.cls-7{fill:#6bb7bf;}.cls-8{fill:#5aa9ad;}.cls-9{fill:#ffb27d;}.cls-10{fill:#f99746;}.cls-11{fill:#4a75cb;}.cls-12{fill:#2b478b;}.cls-13{fill:#2e3552;}.cls-14,.cls-28{fill:#82b378;}.cls-15{fill:#a8d29f;}.cls-16{fill:#f1a34f;}.cls-17{fill:#ffb973;}.cls-18{fill:#d86713;}.cls-19{fill:#d39e7a;}.cls-20{fill:#e0b594;}.cls-21{fill:#233862;}.cls-22{clip-path:url(#clip-path);}.cls-23{fill:#2a4e96;}.cls-24{fill:#1e3d70;}.cls-25{fill:#ddebfd;}.cls-26{fill:#739af0;}.cls-27{fill:#a8c3f7;}.cls-28{opacity:0.5;}.cls-29{fill:#ffb93e;}.cls-30{fill:#ffa412;}.cls-31{fill:#e2810e;}</style><clipPath id="clip-path"><path class="cls-1" d="M1801.92,899c-159.88,147-358.78,146.75-561.1,65.22h0C1122.4,916.51,997.15,833.75,929.07,727.11c-92.07-142.29-60-264.68,11-417.76,94.24-203.31,246.76-323.84,471.28-299,288.07,31.89,469.93,241.41,519.7,519.69C1956.17,670.25,1903.29,805.77,1801.92,899Z"/></clipPath></defs><title>Investors Panel</title><g id="Layer_2" data-name="Layer 2"><g id="_Layer_" data-name="&lt;Layer&gt;"><path class="cls-2" d="M1801.92,899c-159.88,147-358.78,146.75-561.1,65.22h0C1122.4,916.51,997.15,833.75,929.07,727.11c-92.07-142.29-60-264.68,11-417.76,94.24-203.31,246.76-323.84,471.28-299,288.07,31.89,469.93,241.41,519.7,519.69C1956.17,670.25,1903.29,805.77,1801.92,899Z"/><path class="cls-2" d="M115.92,1322.3S-60.18,727.79,263,547.71,781,654.93,894.6,804.9s604.5,446.86,902.15,167.65c313.58-294.16,469.16-377.64,692.89-384.75S2621,821,2809.25,913.92s96.89,390.86-77.63,412.36Z"/><path class="cls-3" d="M2191.18,1259.2s-3.8,61.23-15.65,62.1c-1.57.12-60.08.12-60.08.12l-74.68-.43s.49-18,22.32-21.8,58.37-19.15,71.59-48C2148.6,1220.83,2191.18,1259.2,2191.18,1259.2Z"/><path class="cls-4" d="M2231,535.1s-35.26,20-45.13,20-48.62-7.49-59.41-2-30.35,27.72-34,35c-6.6,13,26.55,7.28,42.22-3.83a9.84,9.84,0,0,1,7.82-1.61c8.12,1.77,25,4.83,33.12,1.82,10.94-4,68.6-8.55,68.6-8.55Z"/><path class="cls-5" d="M2499.28,262.05s-36.55,259.77-97.07,283c-29.86,11.48-161.84,37.5-200.88,40.12,0,0-9.56-7.76-7.23-39.34,0,0,138.27-50.77,157.92-78.37,29.23-41.09-18.15-167.85,18.53-206.44S2469,205.88,2499.28,262.05Z"/><path class="cls-6" d="M2487,809.33c-10.66,18.09-23,35-35.7,51.09-39.28,49.59-82,90.48-89.49,129.13a174.31,174.31,0,0,1-6.91,24.74c-3.11,8.85-7,18.16-11.39,27.78-16.67,36.21-41.6,76.78-66.49,113.66-43,63.76-78.24,106.54-78.24,106.54s-11.28,8.8-43.55,8.79c-9,0-39.22-4.92-39.22-4.92,3-7.44,38.66-92.08,82-199.66,17.58-43.67,36.27-90.12,54.31-134.92q3.6-9,7.18-17.85c5.52-13.71,10.94-27.2,16.24-40.34,40.65-101,73-181.45,73-181.45s162.47-61.55,179.34-21.67C2541.93,703.13,2530.6,735.35,2487,809.33Z"/><path class="cls-3" d="M2363,1084.28s51.61,33.17,46.6,43.94c-.67,1.43-29.19,52.51-29.19,52.51l-36.78,65s-15.48-9.2-8.16-30.12,11.74-60.29-7-85.91C2308.73,1102.76,2363,1084.28,2363,1084.28Z"/><path class="cls-7" d="M2333.66,1147.86s36.33-33.73,42-54.6c0,0-132.91-159.24-161.74-194.93-1.32-1.64-1-3.44.77-5.41,21.76-24.54,263.58-74.43,295.18-123.6a152.26,152.26,0,0,0,20.42-47.08c7.17-30,1.5-50.73,1.5-50.73l-241.5-7s-201.07,125.2-223.85,210.57S2333.66,1147.86,2333.66,1147.86Z"/><path class="cls-8" d="M2214.71,892.92c21.76-24.54,263.58-74.43,295.18-123.6a152.26,152.26,0,0,0,20.42-47.08V691.68l-102.64-16.15s-29.11,89.57-115.32,123.16C2231.61,830.15,2216.32,886,2214.71,892.92Z"/><path class="cls-9" d="M2356.39,245.68c48.86,12.63,129.85-32.64,129.85-32.64s-31.45-21.14-43.1-67.56c-.6-2.34-1.12-4.74-1.6-7.2L2416.45,133l-37.32,33.43s.85,13.88,5.52,37.74q1.21,6.24,2.81,13.39A115,115,0,0,0,2356.39,245.68Z"/><path class="cls-10" d="M2538,448.19c-7,94.12,2.21,237.26-5.73,262.05-6.85,21.39-84.92,8.68-116.08,1.53-11.53-2.64-25.5-6.41-39.93-10.88-40.24-12.46-84.09-30.25-88.8-43.46a12.28,12.28,0,0,1-.34-7.06c1.56-6.73,7.61-14,8.32-30.69.79-18.61.67-40.53,1.37-64.1,0-2.66.08-5.55.37-8.19v-1l0-1.51c.68-26.28,2-53.92,3.65-81.33,1-17.21,2.18-34.26,3.53-50.59,3.51-42.17,8.24-79.66,14.5-103.36,10.23-38.64,32.79-63.84,53.32-82.31L2387,214.58c16.58,3.62,36.17,1.22,53.89-7.18,19.18-9.11,25.8-15.63,29.15-13.17C2514.37,228.4,2546.23,333.12,2538,448.19Z"/><path class="cls-5" d="M2376.23,700.89c-40.24-12.46-84.09-30.25-88.8-43.46a12.09,12.09,0,0,1-.43-1.52c0-1.85.05-3.69.09-5.54,1.56-6.73,7.61-14,8.32-30.69.79-18.61.67-40.53,1.37-64.1,0-2.66.08-5.55.37-8.19v-1l0-1.51,162.7-207.27S2569.25,565.37,2376.23,700.89Z"/><path class="cls-4" d="M2379.13,166.39s.85,13.88,5.52,37.74c36.44-11.78,53-44.69,58.49-58.65-.6-2.34-1.12-4.74-1.6-7.2L2416.45,133Z"/><path class="cls-9" d="M2374.23,187.43s79.47-13.26,70.45-62.63-4.84-84.31-56-77.93-57.51,27-58.51,44.22S2353.33,189.61,2374.23,187.43Z"/><polygon class="cls-11" points="2256.58 595.62 2058.2 599.86 2001.8 426.27 1994.79 428.55 2054.42 612.05 2256.84 607.73 2256.58 595.62"/><path class="cls-9" d="M2252.79,617.4s-65,17.14-89.43,15.35-44.68-13.41-47.75-19.46-9.52-16.8,7.09-14.82,39.27,5.52,40,2.33-13.54-2.89-13.54-2.89-4.3-6.26,1.12-6.49,21.23-4.51,27.1-1.58,11.29,13.78,15.58,13.33,54.43-22.59,54.43-22.59Z"/><path class="cls-10" d="M2483.15,272.71s-7.69,262.21-65.27,292c-28.42,14.7-156.72,55.12-195.23,62,0,0-10.36-6.65-11.53-38.3,0,0,131.83-65.7,148.31-95.3,24.53-44.06-36.54-164.83-4.33-207.22S2446.88,220.22,2483.15,272.71Z"/><path class="cls-12" d="M2443.14,145.48s.91-16.94-9.54-26.64c0,0,3.64-17-3.08-19.78s-8.12,11.47-11.2,9.23-16.79-12.87-22.67-28.54-59.67,3.31-65.94,6.13-26.42-7.53-30.34-15.93c0,0,11.2-9,16.23-15.67s40.31-52.07,89.57-39.19,56,36.39,53.18,56.54S2463.31,138.71,2443.14,145.48Z"/><rect class="cls-13" y="1321.42" width="2950.22" height="7.83" rx="3.34" ry="3.34"/><path class="cls-14" d="M938.89,1123.49s-31.76-37.06-2-60.6c0,0,21.78-13.18,39.53-12.11,0,0-25.16,42.18-17,46.38s24.64-49,24.64-49,49.55-4.81,65.49,2.85c0,0-42.36,34.67-33.44,36.73s54.67-32,54.67-32,46.12,7.85,43.66,36-18.35,36.82-25.33,36.07-47.84-16.34-48.73-10.62,23.7,24.42,40.92,25.3c0,0-32.51,35.85-54.12,25.5s-23.45-26.75-36.92-32.9-25-6.14-19.4.14,29.94,12.37,37.64,26,14.61,22.82-7.74,19.45-58.7-19.72-60.29-38.45Z"/><path class="cls-14" d="M1091.8,1092.5s-125.25-4.83-152.91,31c0,0-6.11,18.32-24.94,35l-2.93,8s21.7-22.88,29.47-24.27C940.49,1142.22,928.34,1097.85,1091.8,1092.5Z"/><path class="cls-14" d="M914,1158.49s-26.88,19.89-28.75,55.41l4.88.44s8.59-36.73,24.11-51.1S914,1158.49,914,1158.49Z"/><path class="cls-15" d="M827.83,1076.89s50.53-28.3,26.95-66.7c0,0-18.86-23.59-39.08-29.65,0,0,10.78,57.27,0,58.62s-7.41-64.68-7.41-64.68-53.22-25.6-74.11-23.58c0,0,33,55.92,22.23,54.57s-47.83-57.94-47.83-57.94S654,937.42,645.25,969.76s5.39,48.51,13.47,50.53,60,1.35,58.62,8.09-36.39,17.51-55.92,11.45c0,0,21.56,53.23,49.85,50.53s37.06-20.21,54.58-21.56,30.31,3.37,21.56,8.09-38.41,1.54-52.56,13.57-25.6,19.44.68,24.83,73.44,2,82.87-18.19Z"/><path class="cls-14" d="M670.17,979.87s141.49,45.81,157.66,97c0,0-.67,22.9,13.48,49.18v10.11s-14.83-34.37-22.91-39.08C818.4,1097.1,850.06,1052.63,670.17,979.87Z"/><path class="cls-14" d="M841.31,1126.07s21.81,33.13,9.38,73.47l-5.62-1.51s5.45-44.43-6-66.77S841.31,1126.07,841.31,1126.07Z"/><path class="cls-15" d="M908.22,1037.86s-66.61-37.3-35.52-87.92c0,0,24.86-31.09,51.51-39.08,0,0-14.21,75.49,0,77.27S934,902.87,934,902.87s70.16-33.75,97.69-31.09c0,0-43.52,73.72-29.31,71.94s63.06-76.38,63.06-76.38,71.94-13.32,83.48,29.31-7.1,63.94-17.76,66.61-79,1.78-77.27,10.66,48,23.09,73.72,15.09c0,0-28.42,70.17-65.73,66.61S1013,1029,989.93,1027.2s-40,4.44-28.42,10.66,50.62,2,69.27,17.89,33.75,25.63-.89,32.73-96.8,2.67-109.24-24Z"/><path class="cls-14" d="M1116,910s-186.5,60.39-207.82,127.89c0,0,.89,30.2-17.76,64.83V1116s19.54-45.3,30.19-51.52C920.65,1064.5,878.91,1005.89,1116,910Z"/><path class="cls-14" d="M890.46,1102.69s-28.76,43.68-12.37,96.85l7.4-2s-7.18-58.56,7.87-88S890.46,1102.69,890.46,1102.69Z"/><path class="cls-16" d="M906,1314.83a130.47,130.47,0,0,0,130.47-130.47h-261A130.48,130.48,0,0,0,906,1314.83Z"/><path class="cls-17" d="M938.08,1313.83A130.55,130.55,0,0,1,791.4,1184.35h32.42A130.49,130.49,0,0,0,938.08,1313.83Z"/><path class="cls-16" d="M1038.25,1321.47H773.7a16.1,16.1,0,0,1,16.1-16.1h232.36a16.09,16.09,0,0,1,16.09,16.1Z"/><rect class="cls-18" x="771.21" y="1184.35" width="268.21" height="4"/><path class="cls-19" d="M2683.51,1314.37c-31-31.71-85.7-53.53-148.86-56.1V1153.45h97.58c2.41,0,4.57-2.11,5.94-5.36a21.55,21.55,0,0,0,1.53-8.19v-4.72c0-7.45-3.36-13.54-7.47-13.54h-97.58V872a12.57,12.57,0,0,0-12.54-12.53h0A12.57,12.57,0,0,0,2509.58,872v249.68H2412c-4.11,0-7.47,6.09-7.47,13.54v4.72a21.11,21.11,0,0,0,1.63,8.41c1.37,3.13,3.48,5.14,5.84,5.14h97.58v104.82c-63.16,2.57-117.83,24.39-148.87,56.1q-3.37,3.45-6.37,7.05h335.55Q2686.91,1317.82,2683.51,1314.37Z"/><path class="cls-20" d="M2534.65,1258.74c-44.06,4.08-81.94,25.35-103.86,55.63q-2.51,3.45-4.71,7.05h-31c1.48-2.4,3-4.75,4.71-7.05,24.47-33.79,68.78-56.35,119.39-56.35Q2527,1258,2534.65,1258.74Z"/><rect class="cls-5" x="2336.59" y="775.49" width="362.38" height="93.08" rx="15.05" ry="15.05"/><g id="man"><path class="cls-9" d="M844.56,296.39c-5.57,15-15.23,32.37-25.36,36.69-11.49,4.9-16.29,11.83-16.29,11.83l-9.28-5.39-11.08-6.44s.26-1.23.81-3.23,1.36-4.78,2.49-7.86a10.71,10.71,0,0,0,1.31-9.86c-2.08-5.48-1.66-14,1.89-19.13s7-17.89,9.13-17.51c5.18.89-2.55,18.38-.33,21.63,2,2.93,4.51,1.92,5,1.7l.08-.05c14.54-6.39,32.18-40.85,40-36.2C845.81,264.31,846.94,290,844.56,296.39Z"/><path class="cls-12" d="M794.26,317.25l18.22,12.8a2.85,2.85,0,0,0,4-.69L863.12,263a2.86,2.86,0,0,0-.7-4l-18.21-12.8a2.86,2.86,0,0,0-4,.69l-46.66,66.39A2.86,2.86,0,0,0,794.26,317.25Z"/><path class="cls-21" d="M810.94,329l10.68,7.51a2.19,2.19,0,0,0,3-.53l47.44-67.51a2.18,2.18,0,0,0-.53-3l-10.68-7.5a2.19,2.19,0,0,0-3,.52l-47.44,67.51A2.18,2.18,0,0,0,810.94,329Z"/><path class="cls-21" d="M533,222s92.67,161.64,126.3,191.39l123.28-91.91s17.88,5.48,25.72,23.44c0,0-74.86,152.52-148.57,159S482.54,321.08,482.54,321.08Z"/><path class="cls-21" d="M323.25,1321.42H269.7c-6.74-3.66-12.74-12-14.64-24.54-2.62-17.25-21.95-26.66-26.14-40.77s17.25-34,17.25-34l3.59-4.62,3.73-4.8L289,1221.1s.88,8.47,1.41,19.25c.39,7.78.59,16.77.16,24.65-1.05,18.81,5.26,39.08,22,42.74C324.94,1310.44,324.38,1317.78,323.25,1321.42Z"/><path class="cls-21" d="M634,1321.42H511.56c-5.89-7.19-3.72-33.71-2.83-42.37.18-1.74.31-2.76.31-2.76s41.82-33.45,47.56-7.84c.18.81.39,1.59.62,2.37,7.24,24,39.7,34.84,58.44,37.87C627.85,1310.67,632.35,1317,634,1321.42Z"/><path class="cls-10" d="M610.68,637.87s-6.35,79.22-13.81,174.45c-10.14,129.36-22.34,288.26-23.55,318.36-2.08,52.27-10.45,135.89-10.45,135.89s-19.85,19.86-59.58,11.49c0,0-35.4-119.36-45.52-245.65q-.22-3.11-.47-6.24c-9.4-128.56-24-399.28-24-399.28Z"/><path class="cls-5" d="M610.68,637.87s-6.35,79.22-13.81,174.45l-139.1,220.09q-.22-3.11-.47-6.24c-9.4-128.56-24-399.28-24-399.28Z"/><path class="cls-10" d="M581.69,647.28S467.24,934.19,392,1069s-98.77,172.46-98.77,172.46-43.12-17.24-47-29c0,0,28.78-260.31,79.18-323.76,28.47-35.85,61.93-143.46,63.49-181.08S399,595.54,399,595.54Z"/><path class="cls-9" d="M553.2,229c-44.73,14.11-122.11-24-122.11-24s41.23-30.95,39.07-95.3l34.58,27.87,23.49,18.93s-.09,11.16-2.66,30.72c-.68,5.14-1.52,10.88-2.59,17.14A107.09,107.09,0,0,1,553.2,229Z"/><path class="cls-4" d="M528.23,156.54s-.09,11.16-2.66,30.72c-26-4.47-55.55-46.54-55.55-46.54,13.25-3.82,24.85-4.51,34.72-3.11Z"/><path class="cls-9" d="M541.91,155.48S468,167.75,461.1,121.63,440,46,486.84,36.24s58.7,6.44,64.76,21.27S561,151.1,541.91,155.48Z"/><path class="cls-12" d="M615.62,644.47a7.29,7.29,0,0,1-4.7,1.79c-16.8-.23-65.77,9.1-107.21,4.84-34.94-3.35-65.86-13.7-99.07-28.59-4.41-2-14.55-7.39-14.33-12.32.15-5.39.69-13.22,1.36-23.08,2.35-34.27,6.45-93.23,2.45-161.24-.71-12.67-1.09-25.23-1.14-37.6-.34-92.17,17.94-173.25,54.67-200.69,3.13-2.25,22.39,7.16,40.09,15.89,16.35,8.07,32.7,9,48.15,5.83L551.34,223c18.81,17.47,39.42,41.21,48.37,77.27,7.63,30.68,12.1,86,14.56,143.33,1.12,26,2,52.19,2.25,77.06v.88c.22,2.47.22,5.16.22,7.63C617.64,593,616.74,643.56,615.62,644.47Z"/><path class="cls-21" d="M391.67,587.11c2.35-34.27,6.45-93.23,2.45-161.24-.71-12.67-1.09-25.23-1.14-37.6,15.3-37.11,27.81-64,27.81-64h38.56S487.63,517.36,391.67,587.11Z"/><path class="cls-21" d="M379.85,680.3,215.38,656.86a39.43,39.43,0,0,0-44.47,33.38l-10.16,71.27A39.43,39.43,0,0,0,194.13,806L358.6,829.42A39.43,39.43,0,0,0,403.07,796l10.15-71.27A39.42,39.42,0,0,0,379.85,680.3Z"/><path class="cls-12" d="M389.14,701.55h0a39.62,39.62,0,0,0-27.25-23.8h0c-1.24-.3-2.5-.55-3.8-.74l-32.75-4.65L327.49,657a13,13,0,0,0-11.05-14.72L307.9,641l-34.39-4.9-6.2-.88a13,13,0,0,0-14.72,11l-2.19,15.38-56.53-8.06a39.59,39.59,0,0,0-44.64,33.5L139,759.21a39.57,39.57,0,0,0,33.5,44.62l164.18,23.4a38.52,38.52,0,0,0,8.56.28h0A38.85,38.85,0,0,0,358,824.27a39.52,39.52,0,0,0,23.23-30.54l10.28-72.1A39.1,39.1,0,0,0,389.14,701.55ZM260.67,647.43a4.87,4.87,0,0,1,4-4.11,5.09,5.09,0,0,1,1.46,0l7.3,1,27.06,3.87,14.76,2.1a4.86,4.86,0,0,1,4.12,5.49l-2.18,15.38-58.75-8.38Z"/><path class="cls-9" d="M310.06,612.55c0-.88.09-1.78.16-2.7.34-4.6,9-16.1,9-16.1L297.54,582.5,289,596.68c-13,10.3-13.19,10.48-10.83,30.21,2.05,17.11-9.14,17.31-8.87,29.52s16,6.22,16,6.22c24.39-11.45,26.41-17.22,25.66-28.83,2.31,3.28,4.9,5.2,7.1,3.77,1.94-1.26-1.93-6.26-3.61-17.84C314.17,618,312.12,615.1,310.06,612.55Z"/><path class="cls-12" d="M297.23,602.56c13.89,2.71,28.95,1.62,28.95,1.62s41.22-127.36,46.53-139S495.17,315.85,495.17,315.85l-48.8-122.14S319.65,405.37,306.78,435.11c-21.26,49.15-28.64,159.34-28.64,159.34A53.08,53.08,0,0,0,297.23,602.56Z"/><path class="cls-12" d="M461,117.19s7.58-1.27,6.36-11.71-1.21-24.09,7.28-21.54,8.91,9.34,12.4,5.37,3.55-20.69,28.82-21.86,35.52,7.63,47.27,2.46S575.54,47,575.54,47s-3.35,6.35-8.39,8.37c0,0,19.6-26.81-3.09-45.19s-45.83-6.35-59-5.55C476.17,6.35,457.48,8.09,448,27.1S442.48,98.89,461,117.19Z"/></g><g class="cls-22"><path class="cls-4" d="M1507.26,618.38s-74.75-15-87.23-13.86-55.76,20.63-56.24,24.19,1.66,6.39,9.23,6.71,32.37-3.54,30.87-.48-72.8,19-73.21,33.46,39.55,40.22,72.77,41.15,97.44-39.32,103-40C1553.79,664.21,1507.26,618.38,1507.26,618.38Z"/><path class="cls-5" d="M1915.57,452.25c-29.2,36.36-53.55,64.56-66.38,74.81-10.19,8.15-23.09,16.48-37.89,24.82C1704.73,612,1499.75,673.06,1499.75,673.06l-.4-.29a89.7,89.7,0,0,1-25.6-30.77c-7.8-15.79-6.19-25.58-3.87-30.71a13.53,13.53,0,0,1,3.08-4.54s245.63-157,265.28-173.33c11.14-9.27,51.48-103.2,84.35-182.83q6.89,10,13.35,20.29C1870.42,325.62,1897,386.73,1915.57,452.25Z"/><path class="cls-7" d="M1917.25,730.23q-2.32,6.59-4.87,13.1a409.18,409.18,0,0,1-28.7,58.8h0q-9.89,16.79-21.37,32.66a436.79,436.79,0,0,1-58.61,65.91c.12-1.65.25-3.29.36-4.92.18-2.54.36-5,.53-7.55q.6-8.29,1.16-16.29c.16-2.07.3-4.12.45-6.15.94-13.18,1.83-25.68,2.66-37.41.24-3.38.47-6.68.7-9.93l.21-2.88q.21-2.87.4-5.67c.13-1.69.24-3.35.36-5,0-.17,0-.34,0-.5.11-1.68.23-3.34.35-5q.3-4.15.58-8.14c.11-1.65.23-3.28.34-4.88.18-2.51.35-4.94.52-7.32.05-.57.08-1.15.12-1.72.09-1.13.17-2.26.24-3.37q.06-.84.12-1.65a1.41,1.41,0,0,0,0-.2c.15-2.13.3-4.21.45-6.22,0-.11,0-.21,0-.32.11-1.47.22-2.91.31-4.31,0-.47.07-.94.1-1.39.06-.8.12-1.6.16-2.38s.1-1.28.14-1.9c.31-4.39.6-8.41.85-12,0-.52.08-1,.11-1.52s.08-1,.1-1.51c.07-1,.14-1.87.2-2.75.45-6.35.77-11,1-13.7q0-.42.06-.78c0-.08,0-.15,0-.23,0-.25,0-.48,0-.67.06-.76.09-1.16.09-1.16Z"/><path class="cls-6" d="M1917.25,730.23q-2.32,6.59-4.87,13.1a409.18,409.18,0,0,1-28.7,58.8h0q-9.89,16.79-21.37,32.66a436.79,436.79,0,0,1-58.61,65.91c.12-1.65.25-3.29.36-4.92.18-2.54.36-5,.53-7.55q.6-8.29,1.16-16.29c.16-2.07.3-4.12.45-6.15.94-13.18,1.83-25.68,2.66-37.41.24-3.38.47-6.68.7-9.93l.21-2.88q.21-2.87.4-5.67c.13-1.69.24-3.35.36-5,0-.17,0-.34,0-.5.11-1.68.23-3.34.35-5q.3-4.15.58-8.14c.11-1.65.23-3.28.34-4.88.18-2.51.35-4.94.52-7.32.05-.57.08-1.15.12-1.72.09-1.13.17-2.26.24-3.37q.06-.84.12-1.65a1.41,1.41,0,0,0,0-.2c.15-2.13.3-4.21.45-6.22,0-.11,0-.21,0-.32.11-1.47.22-2.91.31-4.31,0-.47.07-.94.1-1.39.06-.8.12-1.6.16-2.38s.1-1.28.14-1.9c.31-4.39.6-8.41.85-12,0-.52.08-1,.11-1.52s.08-1,.1-1.51c.07-1,.14-1.87.2-2.75.45-6.35.77-11,1-13.7q0-.42.06-.78c0-.08,0-.15,0-.23,0-.25,0-.48,0-.67.06-.76.09-1.16.09-1.16Z"/><path class="cls-10" d="M1933.46,530.15a391.18,391.18,0,0,1-16.21,200.08q-2.32,6.59-4.87,13.1a409.18,409.18,0,0,1-28.7,58.8h0q-9.89,16.79-21.37,32.66c-21.9-3.16-39.71-5.75-50.7-6a14.28,14.28,0,0,1-9.26-3.91c-2.18-1.89-.12-103.07,6.56-230.5.19-4.92.38-10.32,1-15.2l0-1.8q.62-12.61,1.32-25.48.42-7.41.86-14.89c2.06-34,4.61-68.75,7.39-103.42.27-3.32.53-6.65.79-10,4.38-53.36,9.53-105.81,15.6-152.73,34.48,54.74,61.08,115.85,79.63,181.37Q1926.34,490.26,1933.46,530.15Z"/><path class="cls-23" d="M1016.28,718.42c-1.22-35.68-3-78.17-5.44-124.06-.19-4.92-.4-10.32-1-15.2l-.08-1.8q-.29-6.11-.6-12.27c-.11-2.32-.24-4.64-.37-7q-.54-10.49-1.21-21.13c-2-34-4.62-68.75-7.36-103.42-.29-3.32-.55-6.65-.82-10-4-49.43-8.75-98.08-14.26-142.28v0c0-.25-.07-.49-.1-.74-.69-5.55-1.41-11.06-2.13-16.46-1.44-10.9-2.94-21.49-4.49-31.69q-3.2,5.22-6.29,10.54Q953.84,274.21,938,308.43C916.5,354.85,898.25,405.07,883,457.94c-.1.33-.19.66-.29,1a324.34,324.34,0,0,0-10.43,51.13h0c-.3,2.39-.56,4.78-.8,7.17h0c-7.33,76,14.33,147.22,55.48,210.81,1.4,2.19,2.85,4.38,4.32,6.55q4.35,6.5,9,12.86,3.27,4.51,6.68,9c.47.62,1,1.24,1.45,1.87a519.92,519.92,0,0,0,52.76,58.27q4.7,4.49,9.52,8.9c.79.72,1.6,1.46,2.41,2.18a15.63,15.63,0,0,0,4.33-2.81C1018.79,823.64,1018.45,781.79,1016.28,718.42Z"/><path class="cls-24" d="M1016.28,718.42c-57.31-60-105.07-133.75-144-208.34h0a324.34,324.34,0,0,1,10.43-51.13c.1-.34.19-.67.29-1C898.25,405.07,916.5,354.85,938,308.43c35.17,50.28,59.83,96.55,61.35,115.18.27,3.31.53,6.64.82,10,2.74,34.67,5.31,69.44,7.36,103.42q.66,10.63,1.21,21.13c.13,2.33.26,4.65.37,7q.32,6.17.6,12.27l.08,1.8c.62,4.88.83,10.28,1,15.2C1013.24,640.25,1015.06,682.74,1016.28,718.42Z"/><path class="cls-9" d="M1276.49,622.87s76.25.07,88.26,3.71,50.55,31.28,50.32,34.86-2.89,5.94-10.37,4.74-31-9.88-30.17-6.59,67.58,33.08,65.12,47.32-46.74,31.58-79.48,25.9-87.71-57.86-93.05-59.59C1221.81,658.56,1276.49,622.87,1276.49,622.87Z"/><path class="cls-23" d="M1290.31,648.9a89.72,89.72,0,0,1-22,24.93,63.16,63.16,0,0,1-6,4.25s-146.73-54.93-253.09-113c-35.15-19.19-65.9-38.72-85.48-56.71-8.84-8.13-23.19-26.28-40.69-50.44C898.25,405.07,916.5,354.85,938,308.43q15.84-34.15,34.08-65.47c4.25,12.64,8.62,25.55,13,38.35v0c23.3,68,47.18,133.13,55.68,141.26,18.47,17.67,252.72,191.19,252.72,191.19s3,2.93,3.85,9.24C1298.14,628.75,1297.08,637.26,1290.31,648.9Z"/><rect class="cls-25" x="1178.79" y="109.74" width="400.06" height="362.87"/><rect class="cls-26" x="1178.79" y="87.98" width="400.06" height="21.76"/><path class="cls-25" d="M1192.21,94.51a4.36,4.36,0,1,0,4.36,4.35A4.36,4.36,0,0,0,1192.21,94.51Z"/><path class="cls-25" d="M1209.26,94.51a4.36,4.36,0,1,0,4.35,4.35A4.36,4.36,0,0,0,1209.26,94.51Z"/><path class="cls-25" d="M1226.43,94.51a4.36,4.36,0,1,0,4.36,4.35A4.36,4.36,0,0,0,1226.43,94.51Z"/><path class="cls-27" d="M1298.93,157h152.84a7.29,7.29,0,0,0,7.26-7.26h0a7.28,7.28,0,0,0-7.26-7.25H1298.93a7.27,7.27,0,0,0-7.25,7.25h0A7.28,7.28,0,0,0,1298.93,157Z"/><path class="cls-27" d="M1264.11,181.92H1486.6a7.26,7.26,0,0,0,0-14.51H1264.11a7.26,7.26,0,1,0,0,14.51Z"/><path class="cls-27" d="M1245.3,247.46h268.15a5.32,5.32,0,0,0,0-10.64H1245.3a5.32,5.32,0,1,0,0,10.64Z"/><rect class="cls-27" x="1239.97" y="261.37" width="278.8" height="10.64" rx="5.32" ry="5.32"/><path class="cls-27" d="M1513.45,285.91H1245.3a5.32,5.32,0,1,0,0,10.64h268.15a5.32,5.32,0,0,0,0-10.64Z"/><path class="cls-27" d="M1272.22,375.15H1245.3a5.32,5.32,0,1,0,0,10.64h26.92a5.32,5.32,0,0,0,0-10.64Z"/><path class="cls-27" d="M1317.2,375.15h-26.92a5.32,5.32,0,1,0,0,10.64h26.92a5.32,5.32,0,0,0,0-10.64Z"/><path class="cls-27" d="M1468.47,375.15h-26.92a5.32,5.32,0,1,0,0,10.64h26.92a5.32,5.32,0,0,0,0-10.64Z"/><path class="cls-27" d="M1513.45,375.15h-26.92a5.32,5.32,0,1,0,0,10.64h26.92a5.32,5.32,0,0,0,0-10.64Z"/><path class="cls-27" d="M1279.68,392.26A28.37,28.37,0,1,0,1308,420.62,28.4,28.4,0,0,0,1279.68,392.26Zm0,55.29a26.93,26.93,0,1,1,26.93-26.93A27,27,0,0,1,1279.68,447.55Z"/><path class="cls-27" d="M1279.68,397.77a22.86,22.86,0,1,0,22.85,22.85A22.88,22.88,0,0,0,1279.68,397.77Zm0,44.28a21.43,21.43,0,1,1,21.42-21.43A21.45,21.45,0,0,1,1279.68,442.05Z"/><path class="cls-27" d="M1271.91,430c-3-.25-4.62-1.68-4.69-4.25a6.68,6.68,0,0,1,2.15-5.12c.59,3,2.15,5.46,3.88,6a2.39,2.39,0,0,0,2.66-.95,16.39,16.39,0,0,0,2-3.36,1.7,1.7,0,0,0,1.14.5c1.05.05,2.1-.79,3-2.43a11.35,11.35,0,0,0,.68-1.4,1.3,1.3,0,0,0,.23.18.88.88,0,0,0,1-.15,9.28,9.28,0,0,0,1.75-2.62,1.31,1.31,0,0,0,.48.55,1,1,0,0,0,1.3-.28.66.66,0,0,0,.18-.84c-.15-.28-.66-.49-1.39-.61h0c.79-1.82,1.34-3.71,1-4.41a.68.68,0,0,0-.71-.43c-.52,0-.89.57-1.11,1.6a10,10,0,0,0-.14,3.1l0,0c-.53,0-1.13,0-1.78,0a2.07,2.07,0,0,0-.27-1.08.67.67,0,0,0-.72-.38c-.4.1-.55.59-.61,1,0,.15,0,.34,0,.55a33.3,33.3,0,0,0-5.81,1,19,19,0,0,0-6.18,2.77c0-.9,0-2,.66-2.4s2.08.11,2.54.37l.45-.77c-.09-.05-2.1-1.21-3.46-.36-.84.52-1.2,1.64-1.07,3.33,0,.16,0,.33,0,.49a7.72,7.72,0,0,0-2.88,6.18c.08,3,2,4.83,5.51,5.12a22.06,22.06,0,0,0,8.14-1.27c6.6-2.14,12.73-6.7,14-10.84C1292.17,423.94,1279.33,430.59,1271.91,430Zm14.71-18.39a5.59,5.59,0,0,1-.21.93A5.7,5.7,0,0,1,1286.62,411.58Zm-3,4.38c.52,0,1,0,1.42,0a8.31,8.31,0,0,1-1.59,2.41s-.12-.08-.26-.5A10.55,10.55,0,0,0,1283.64,416Zm-4.79.49c1.11-.19,2.19-.33,3.18-.41a8.23,8.23,0,0,0,.25,1.81,11.89,11.89,0,0,1-.92,2.08c-.74,1.29-1.55,2-2.22,2a1,1,0,0,1-.79-.53C1279.1,419.48,1279.43,417.58,1278.85,416.45Zm-.87.27c.42.58.33,1.86-.12,3.34A6.86,6.86,0,0,1,1278,416.72Zm-5.18,1.6a22.26,22.26,0,0,1,4.2-1.47,8.38,8.38,0,0,0,0,3.42,4.94,4.94,0,0,0,.37,1.16,15.3,15.3,0,0,1-2.15,3.67,1.52,1.52,0,0,1-1.7.66c-1.33-.42-2.9-2.72-3.37-5.84A13.39,13.39,0,0,1,1272.8,418.32Z"/><path class="cls-27" d="M1293.93,418.75c.06-.18.11-.36.15-.53C1294,418.39,1294,418.57,1293.93,418.75Z"/><path class="cls-27" d="M1476.73,393a29.05,29.05,0,1,0,29,29.05A29.08,29.08,0,0,0,1476.73,393Zm0,56.63a27.59,27.59,0,1,1,27.58-27.58A27.62,27.62,0,0,1,1476.73,449.65Z"/><path class="cls-27" d="M1476.73,398.66a23.41,23.41,0,1,0,23.4,23.41A23.43,23.43,0,0,0,1476.73,398.66Zm0,45.35a21.94,21.94,0,1,1,21.94-21.94A22,22,0,0,1,1476.73,444Z"/><path class="cls-27" d="M1491.33,420.15q.09-.28.15-.54C1491.44,419.78,1491.38,420,1491.33,420.15Z"/><path class="cls-27" d="M1468.77,431.65c-3.11-.27-4.73-1.73-4.8-4.36a6.88,6.88,0,0,1,2.2-5.25c.6,3,2.2,5.6,4,6.15a2.44,2.44,0,0,0,2.72-1,16.72,16.72,0,0,0,2.1-3.45,1.75,1.75,0,0,0,1.16.52c1.08.05,2.16-.81,3.11-2.49a11.32,11.32,0,0,0,.7-1.44,1,1,0,0,0,.23.19.89.89,0,0,0,1.06-.16,9.26,9.26,0,0,0,1.8-2.68,1.3,1.3,0,0,0,.49.56,1.08,1.08,0,0,0,1.34-.28.69.69,0,0,0,.18-.86c-.16-.29-.67-.5-1.43-.63h0c.8-1.86,1.36-3.8,1.07-4.51a.7.7,0,0,0-.73-.45c-.53,0-.91.59-1.14,1.64a10.56,10.56,0,0,0-.14,3.18l0,0c-.54,0-1.16,0-1.82,0a2.09,2.09,0,0,0-.28-1.11c-.27-.41-.58-.42-.73-.38-.42.1-.57.59-.63,1,0,.15,0,.35,0,.56a34.25,34.25,0,0,0-6,1,19.51,19.51,0,0,0-6.32,2.83c-.06-.92,0-2.05.68-2.46s2.13.11,2.59.38l.46-.79c-.08-.05-2.15-1.23-3.53-.37-.86.54-1.23,1.69-1.1,3.41,0,.17,0,.34,0,.51a7.9,7.9,0,0,0-3,6.33c.08,3.09,2.08,4.95,5.64,5.24a22.54,22.54,0,0,0,8.34-1.3c6.75-2.19,13-6.87,14.29-11.1C1489.52,425.46,1476.38,432.28,1468.77,431.65Zm15.07-18.85a7.46,7.46,0,0,1-.21,1A5.2,5.2,0,0,1,1483.84,412.8Zm-3,4.48c.53,0,1,0,1.45,0a8.6,8.6,0,0,1-1.62,2.47s-.13-.08-.27-.51A11.94,11.94,0,0,0,1480.79,417.28Zm-4.9.52a31.66,31.66,0,0,1,3.25-.43,8.69,8.69,0,0,0,.25,1.86,11.07,11.07,0,0,1-.94,2.13c-.75,1.32-1.58,2.06-2.28,2a1.07,1.07,0,0,1-.8-.55C1476.13,420.9,1476.48,419,1475.89,417.8Zm-.9.27c.43.6.34,1.91-.12,3.42A7.06,7.06,0,0,1,1475,418.07Zm-5.31,1.63a24.17,24.17,0,0,1,4.31-1.5,8.59,8.59,0,0,0,0,3.5,6.18,6.18,0,0,0,.38,1.19,15.2,15.2,0,0,1-2.2,3.76,1.54,1.54,0,0,1-1.74.67c-1.36-.42-3-2.78-3.45-6A14.52,14.52,0,0,1,1469.68,419.7Z"/><path class="cls-15" d="M1614,756.09l-34.81,47-3.43,4.62-1.67,2.24-4.28,5.79-2.33,3.14-4.3,5.8-4.51,6.09-4.23,5.69-.06.08v0l-4,5.34,0,.07-.59.8-.06.08v0l-.75,1h0l-4.28,5.31v.46l-4,5.41h0l-5.18,7h0l-3.91,5.27h0l-4.28,5.77h0l-7.17,9.66h0l-.7,1L1517,887h0l-5.64,7.6-7.47,9.62v.46l-3.88,5.23-.4.54h0l-5.39,7.27h0l-5,6.78,0,.07h0l-12.44,16.78h0l-18.51,25-31,41.84-3.86,5.21-2.27,3.06c1.19.18,2.37.34,3.55.5h0c4.12.55,8.24,1,12.33,1.49,1.16.13,2.32.26,3.47.37l2.16.22c1.74.17,3.48.33,5.21.47.74.07,1.46.14,2.2.19l1,.09c1.15.1,2.31.18,3.46.26l.66,0c2.53.19,5.08.35,7.6.49,1.15.07,2.31.13,3.46.18.9.06,1.8.09,2.7.13l.51,0c1.5.07,3,.14,4.49.18l3.46.09c1.3,0,2.61.08,3.91.1l3.47.06,3.65,0h3.46c.64,0,1.27,0,1.9,0s1.4,0,2.09,0l1.37,0,1.35,0,1.92,0h.47l1,0,1.38,0q13.44-.36,26.67-1.47h0q15.26-1.25,30.17-3.47,16.14-2.38,31.88-5.87l.54-.11a.5.5,0,0,1,0,.13l9.87-2.42c1.37-.33,2.75-.67,4.11-1q19.44-4.93,38.15-11.45,3.13-1.08,6.24-2.21l1.54-.57q5.82-2.12,11.54-4.41c1-.4,2.07-.82,3.1-1.24h0l.63-.24h0c1.22-.49,2.43-1,3.62-1.5.91-.37,1.81-.75,2.71-1.14,1.06-.44,2.12-.9,3.17-1.36l2-.89h0c1.18-.52,2.36-1,3.54-1.58h0q17.36-7.82,33.87-17c1.16-.64,2.32-1.29,3.47-1.95h0l60.59-81.76Z"/><path class="cls-14" d="M1522.39,924.55v4.83l3.53-4.75,0-.07h-3.58Zm-6.63,6.38a26.09,26.09,0,0,0-3.59,1.77l-7.74,10.43-5.93,8v10.5l7-9.46,16.86-22.76A20.06,20.06,0,0,0,1515.76,930.93Zm-28.57,35.45-.88,1.19-3.37,4.56-15.24,20.55v10.5l10.77-14.53,8.62-11.63,4.52-6.09,3.36-4.54h-7.77ZM1616,792.56l-36.25,48.92-.32.43-2.2,3-2.82,3.8-1.47,2v0l-6.72,9.08-2.79,3.31v.45l-1.83,2.48-2.46,3.3-10,13.5h0l-.22.28-.5.68h0l-3.18,4.29v.46l-9.51,12.37-3.69,5-.61.82-10.21,13.78-3,4.11,0,.07-6,8.08-7.74,10.43-5.93,8-4.28,5.79-7,9.47-.88,1.19-3.37,4.56-15.24,20.55-4.27,5.77-7.24,9.77-8.39,11.31c.74.07,1.46.14,2.2.19l1,.09c1.15.1,2.31.18,3.46.26l.66,0,8.81-11.89h0l3.73-5.05,10.77-14.53,8.62-11.63,4.52-6.09,3.36-4.54h0l3.54-4.76,7-9.46,16.86-22.76,0,0,3.53-4.75,0-.07h0l5.48-6.93v-.46l4.29-5.78,3.41-4.61,6.1-8.23,4.28-5.78,4.84-6.52,1.84-2.49.72-1h0l2.22-3,4.3-5.79,4.52-6.11,4.54-6.12.45-.59v0l4.28-5.78,3.29-4.44,1.54-2v0l3.94-5.33.34-.46.86-1.16,16.52-22.29a22.82,22.82,0,0,1,31.91-4.75l84.41,62.57a25.1,25.1,0,0,1,5.22,35.13l-50.93,68.72-3,4.05c.91-.37,1.81-.75,2.71-1.14,1.06-.44,2.12-.9,3.17-1.36l2-.89h0c1.18-.52,2.36-1,3.54-1.58h0L1749,891.1ZM1487.19,966.38l-.88,1.19-3.37,4.56-15.24,20.55v10.5l10.77-14.53,8.62-11.63,4.52-6.09,3.36-4.54h-7.77Zm28.57-35.45a26.09,26.09,0,0,0-3.59,1.77l-7.74,10.43-5.93,8v10.5l7-9.46,16.86-22.76A20.06,20.06,0,0,0,1515.76,930.93Zm6.63-6.38v4.83l3.53-4.75,0-.07h-3.58Z"/><path class="cls-14" d="M1592.55,1010.42a.5.5,0,0,0,0-.13l-.54.11q-15.73,3.47-31.88,5.87-14.93,2.21-30.17,3.47h0q-13.21,1.13-26.67,1.47l-1.38,0-1,0h-.47c-.09-1.29-.12-2.59-.1-3.89a50.22,50.22,0,0,1,.93-9.13,51.36,51.36,0,0,1,9.19-20.89l.11-.13a51.23,51.23,0,0,1,7.61-8.19,50.35,50.35,0,0,1,4.27-3.32,51.18,51.18,0,0,1,13.1-6.55c1.41-.48,2.84-.88,4.29-1.22a50,50,0,0,1,10.19-1.39c1.44-.06,2.87-.05,4.29,0a51.26,51.26,0,0,1,9.51,1.34c1.44.34,2.86.75,4.28,1.22A51.81,51.81,0,0,1,1573,971c1.45.65,2.87,1.38,4.27,2.17a50.43,50.43,0,0,1,4.51,2.88l.81.58c1.14.84,2.23,1.72,3.28,2.64h0a1.54,1.54,0,0,1,.19.17q1.21,1.07,2.34,2.19a57.23,57.23,0,0,1,4.28,4.81v.06c.58.74,1.13,1.49,1.66,2.26v.07a50.07,50.07,0,0,1,4.27,7.34v.06c.56,1.2,1.06,2.42,1.53,3.64h0a51.67,51.67,0,0,1,2.3,8.08Z"/><path class="cls-28" d="M1549,843.85h0l-4.28,5.37v.4l-4,5.41-5.18,7h0l-3.91,5.27h0l-4.28,5.77h0l-7.17,9.66h0l-.7,1L1517,887h0l-5.64,7.6-7.47,9.68v.4l-3.88,5.23-.4.54h0l-5.4,7.27-5,6.78,0,.07h0l-12.44,16.78h0l-18.51,25-31,41.84-3.86,5.21-2.27,3.06c1.19.18,2.37.34,3.55.5h0c4.12.55,8.24,1,12.33,1.49,1.16.13,2.32.26,3.47.37l2.16.22c1.74.17,3.48.33,5.21.47.74.07,1.46.14,2.2.19l1,.09c1.15.1,2.31.18,3.46.26l.66,0c2.53.19,5.08.35,7.6.49,1.15.07,2.31.13,3.46.18.9.06,1.8.09,2.7.13l.51,0c.89-4.19,1.92-8.44,3.07-12.71,1.74-6.48,3.75-13,6-19.58,1.71-5,3.56-10.09,5.5-15.12.77-2,1.55-4,2.35-6l.48-1.19h0c2.37-5.85,4.87-11.67,7.43-17.4v-.39c1.41-3.14,2.84-5.87,4.29-9q3.59-7.65,7.26-15a.19.19,0,0,1,0-.07c3.31-6.65,6.64-13.09,9.89-19.26.44-.81.87-1.32,1.3-2v-.39c1.44-2.71,2.87-5.38,4.28-8q3.15-5.8,6.13-11.15c.19-.32.36-.65.54-1,1.25-2.24,2.47-4,3.66-6.14v-.38c2.88-5.13,5.54-9.82,7.9-14q2.13-3.79,3.9-7c.46-.82.89-1.6,1.3-2.35,1.88-3.45,3.34-6.24,4.28-8.29.31-.68.56-1.28.75-1.79Z"/><path class="cls-29" d="M1600.17,975.57l0,23.64c0,.24,0,.47,0,.7h0a8.94,8.94,0,0,1-1.54,4.37,9.09,9.09,0,0,1-4.27,3.41,7.64,7.64,0,0,1-1.26.38l-.41.09a7.32,7.32,0,0,1-.8.11,7.09,7.09,0,0,1-.81,0h-99.46l-19.09,0h-16.29l-29,0H1375.7c-4.84-1-9.68-2.15-14.53-3.3l-3.46-.84q-4.83-1.15-9.67-2.4c-1.42-.36-2.86-.73-4.28-1.11-2.44-.63-4.89-1.27-7.34-1.94-2.64-.72-5.29-1.44-7.94-2.19l-3.47-1q-9.84-2.82-19.68-5.89h0l-.76-.24c-2-.61-4-1.24-5.93-1.89-1.16-.35-2.31-.73-3.46-1.11q-27.75-9-55.09-20h5.25l98.45.07h4.28l26.5,0h216.91a8,8,0,0,1,1.2.15,7.94,7.94,0,0,1,1.67.46,9.21,9.21,0,0,1,4.27,3.41A9,9,0,0,1,1600.17,975.57Z"/><path class="cls-30" d="M1415.26,1008.19H1375.7c-4.84-1-9.68-2.15-14.53-3.3l-3.46-.84q-4.83-1.15-9.67-2.4c-1.42-.36-2.86-.73-4.28-1.11-2.44-.63-4.89-1.27-7.34-1.94-2.64-.72-5.29-1.44-7.94-2.19l-3.47-1q-9.84-2.82-19.68-5.89h0l-.76-.24c-2-.61-4-1.24-5.93-1.89-1.16-.35-2.31-.73-3.46-1.11q-27.75-9-55.09-20h5.25l98.45.07h4.28l26.5,0h16a85.57,85.57,0,0,0,7.24,20,68.63,68.63,0,0,0,14.78,19.48c.4.37.81.72,1.23,1.08l.25.23Z"/><rect class="cls-30" x="1550.06" y="966.43" width="4.28" height="41.86"/><rect class="cls-30" x="1535.58" y="966.42" width="4.28" height="41.86"/><rect class="cls-30" x="1518.21" y="966.41" width="4.28" height="41.86" transform="translate(1.02 -1.58) rotate(0.06)"/><rect class="cls-30" x="1491.58" y="966.39" width="4.28" height="41.86"/><rect class="cls-30" x="1463.43" y="966.37" width="4.28" height="41.86"/><rect class="cls-30" x="1420.27" y="966.34" width="4.28" height="41.86"/><rect class="cls-30" x="1379.85" y="966.31" width="4.28" height="41.86"/><path class="cls-30" d="M1348.06,966.29l0,35.33c-1.42-.36-2.86-.73-4.28-1.11l0-34.22Z"/><rect class="cls-30" x="1563.85" y="966.44" width="4.28" height="41.86"/><rect class="cls-30" x="1572.96" y="966.45" width="4.28" height="41.86"/><rect class="cls-30" x="1581.76" y="966.45" width="4.28" height="41.86" transform="translate(1.02 -1.64) rotate(0.06)"/><path class="cls-30" d="M1592.67,966.6l0,41.57a9.45,9.45,0,0,1-1.61.14h-2.67l0-41.86h2.67A9.45,9.45,0,0,1,1592.67,966.6Z"/><path class="cls-30" d="M1598.61,970.48l0,33.81a9.16,9.16,0,0,1-4.28,3.41l0-40.63A9.25,9.25,0,0,1,1598.61,970.48Z"/><path class="cls-29" d="M1631,933.74v23.63a9.13,9.13,0,0,1-5.85,8.49,7.88,7.88,0,0,1-1.66.47,8.61,8.61,0,0,1-1.61.15l-376.5-.26a9.15,9.15,0,0,1-9.1-8.65c0-.16,0-.31,0-.47l0-23.63c0-.16,0-.32,0-.47a9.14,9.14,0,0,1,8-8.57,7.59,7.59,0,0,1,1.07-.07l376.51.26a8.61,8.61,0,0,1,1.61.15,7.88,7.88,0,0,1,1.66.47,9.09,9.09,0,0,1,4.27,3.41A9,9,0,0,1,1631,933.74Z"/><path class="cls-30" d="M1446.06,966.36l-201.71-.14c-4.33,0-7.9-3.86-8.12-8.65,0-.16,0-.31,0-.47l0-23.63c0-.16,0-.32,0-.47.2-4.43,3.28-8.06,7.16-8.57a6.24,6.24,0,0,1,1-.07l176.93.12s0,0,0,.07C1424.16,936.87,1430.73,953.87,1446.06,966.36Z"/><rect class="cls-30" x="1580.86" y="924.59" width="4.28" height="41.86"/><rect class="cls-30" x="1566.38" y="924.58" width="4.28" height="41.86"/><rect class="cls-30" x="1549.01" y="924.57" width="4.28" height="41.86"/><rect class="cls-30" x="1522.38" y="924.55" width="4.28" height="41.86"/><rect class="cls-30" x="1494.23" y="924.54" width="4.28" height="41.86"/><rect class="cls-30" x="1451.07" y="924.51" width="4.28" height="41.86"/><rect class="cls-30" x="1410.65" y="924.48" width="4.28" height="41.86"/><rect class="cls-30" x="1374.57" y="924.45" width="4.28" height="41.86"/><rect class="cls-30" x="1594.65" y="924.6" width="4.28" height="41.86"/><rect class="cls-30" x="1603.76" y="924.61" width="4.28" height="41.86"/><rect class="cls-30" x="1612.56" y="924.62" width="4.28" height="41.86"/><path class="cls-30" d="M1623.47,924.77l0,41.56a8.61,8.61,0,0,1-1.61.15h-2.67l0-41.85h2.67A8.61,8.61,0,0,1,1623.47,924.77Z"/><path class="cls-30" d="M1629.41,928.65l0,33.81a9.16,9.16,0,0,1-4.27,3.4l0-40.62A9.16,9.16,0,0,1,1629.41,928.65Z"/><path class="cls-29" d="M1581.56,891.91l0,23.64a9,9,0,0,1-1.56,5.08,9.16,9.16,0,0,1-4.28,3.41,8.52,8.52,0,0,1-1.66.47l-.53.08-.43,0h-.65l-376.51-.26a9.13,9.13,0,0,1-9.09-8.64c0-.16,0-.32,0-.47l0-23.64c0-.15,0-.31,0-.47a9.13,9.13,0,0,1,9.1-8.63l376.51.26h.48a10.09,10.09,0,0,1,1.12.13,8.42,8.42,0,0,1,1.67.47,7.07,7.07,0,0,1,.79.36c.16.08.32.16.47.25l0,0c.15.09.31.18.46.29a.18.18,0,0,1,.07,0l.41.29a8.59,8.59,0,0,1,.91.79l.25.27,0,0,.15.17,0,0a2.16,2.16,0,0,1,.27.33,5.6,5.6,0,0,1,.36.49A9,9,0,0,1,1581.56,891.91Z"/><path class="cls-30" d="M1396.65,924.53l-201.7-.14c-4.33,0-7.9-3.85-8.12-8.64,0-.16,0-.32,0-.47l0-23.64c0-.15,0-.31,0-.47.22-4.79,3.79-8.64,8.13-8.63l176.93.12c.07.32.15.64.23,1,2.93,12.22,9.54,28.67,24.44,40.85Z"/><rect class="cls-30" x="1531.46" y="882.77" width="4.28" height="41.86"/><rect class="cls-30" x="1516.98" y="882.76" width="4.28" height="41.86"/><rect class="cls-30" x="1499.6" y="882.75" width="4.28" height="41.86"/><rect class="cls-30" x="1472.98" y="882.73" width="4.28" height="41.86"/><rect class="cls-30" x="1444.82" y="882.71" width="4.28" height="41.86"/><rect class="cls-30" x="1401.66" y="882.68" width="4.28" height="41.86"/><rect class="cls-30" x="1361.25" y="882.65" width="4.28" height="41.86"/><rect class="cls-30" x="1325.16" y="882.63" width="4.28" height="41.86" transform="matrix(1, 0, 0, 1, 0.94, -1.38)"/><rect class="cls-30" x="1545.25" y="882.78" width="4.28" height="41.86"/><rect class="cls-30" x="1554.36" y="882.79" width="4.28" height="41.86"/><rect class="cls-30" x="1563.15" y="882.79" width="4.28" height="41.86"/><path class="cls-30" d="M1574.06,882.94l0,41.57a9.54,9.54,0,0,1-1.61.14h-2.68l0-41.86h2.68A9.34,9.34,0,0,1,1574.06,882.94Z"/><path class="cls-30" d="M1580,886.82l0,33.81a9.16,9.16,0,0,1-4.28,3.41l0-40.63A9.15,9.15,0,0,1,1580,886.82Z"/><path class="cls-29" d="M1609.27,851l0,23.64a9,9,0,0,1-1.56,5.08,9.16,9.16,0,0,1-4.28,3.41,8.42,8.42,0,0,1-1.67.47,9.34,9.34,0,0,1-1.6.14l-376.51-.26a8.94,8.94,0,0,1-4.06-1,9.14,9.14,0,0,1-5-7.3c0-.12,0-.25,0-.37s0-.32,0-.47l0-23.64c0-.16,0-.31,0-.47a9.14,9.14,0,0,1,8-8.57,9.64,9.64,0,0,1,1.08-.06l376.51.25a9.33,9.33,0,0,1,1.6.15,8.42,8.42,0,0,1,1.67.47,9.15,9.15,0,0,1,4.27,3.41A9,9,0,0,1,1609.27,851Z"/><path class="cls-30" d="M1424.36,883.66l-201.7-.14a7.3,7.3,0,0,1-3.63-1,9.19,9.19,0,0,1-4.47-7.3c0-.12,0-.25,0-.37s0-.32,0-.47l0-23.64c0-.16,0-.31,0-.47.2-4.43,3.28-8,7.16-8.57a7.61,7.61,0,0,1,1-.06l176.94.12s0,0,0,.06c2.75,12,9.07,28.46,23.57,40.84C1423.58,883,1424,883.34,1424.36,883.66Z"/><rect class="cls-30" x="1559.17" y="841.9" width="4.28" height="41.86"/><rect class="cls-30" x="1544.68" y="841.89" width="4.28" height="41.86"/><rect class="cls-30" x="1527.31" y="841.88" width="4.28" height="41.86"/><rect class="cls-30" x="1500.69" y="841.86" width="4.28" height="41.86"/><rect class="cls-30" x="1472.53" y="841.84" width="4.28" height="41.86"/><rect class="cls-30" x="1429.37" y="841.81" width="4.28" height="41.86"/><rect class="cls-30" x="1388.96" y="841.78" width="4.28" height="41.86"/><rect class="cls-30" x="1352.87" y="841.76" width="4.28" height="41.86"/><rect class="cls-30" x="1572.96" y="841.91" width="4.28" height="41.86"/><rect class="cls-30" x="1582.07" y="841.91" width="4.28" height="41.86"/><rect class="cls-30" x="1590.86" y="841.92" width="4.28" height="41.86"/><path class="cls-30" d="M1601.77,842.07l0,41.57a9.34,9.34,0,0,1-1.6.14h-2.68l0-41.86h2.68A8.43,8.43,0,0,1,1601.77,842.07Z"/><path class="cls-30" d="M1607.71,846l0,33.81a9.22,9.22,0,0,1-4.28,3.41l0-40.63A9.15,9.15,0,0,1,1607.71,846Z"/><path class="cls-29" d="M1581.62,809.23l0,23.64A9.05,9.05,0,0,1,1580,838a9.16,9.16,0,0,1-4.28,3.41,8.42,8.42,0,0,1-1.67.47l-.53.08-.29,0-.3,0h-.48L1196,841.71a9.13,9.13,0,0,1-9.09-8.64c0-.16,0-.32,0-.47V809c0-.16,0-.31,0-.47a9.13,9.13,0,0,1,9.11-8.63l376.5.25a9.45,9.45,0,0,1,1.61.15,8.62,8.62,0,0,1,1.67.47,9.25,9.25,0,0,1,4.27,3.41A9,9,0,0,1,1581.62,809.23Z"/><path class="cls-30" d="M1396.71,841.85,1195,841.71c-4.33,0-7.89-3.85-8.11-8.64,0-.16,0-.32,0-.47V809c0-.16,0-.31,0-.47.23-4.79,3.8-8.64,8.13-8.63L1372,800c2.81,12.3,9.37,29.31,24.66,41.81A.24.24,0,0,1,1396.71,841.85Z"/><rect class="cls-30" x="1531.52" y="800.09" width="4.28" height="41.86" transform="translate(0.85 -1.59) rotate(0.06)"/><rect class="cls-30" x="1517.03" y="800.08" width="4.28" height="41.86"/><rect class="cls-30" x="1499.66" y="800.07" width="4.28" height="41.86"/><rect class="cls-30" x="1473.04" y="800.05" width="4.28" height="41.86"/><rect class="cls-30" x="1444.88" y="800.03" width="4.28" height="41.86"/><rect class="cls-30" x="1401.72" y="800" width="4.28" height="41.86"/><rect class="cls-30" x="1361.31" y="799.97" width="4.28" height="41.86"/><rect class="cls-30" x="1325.22" y="799.95" width="4.28" height="41.86"/><rect class="cls-30" x="1545.3" y="800.1" width="4.28" height="41.86"/><rect class="cls-30" x="1554.41" y="800.1" width="4.28" height="41.86"/><rect class="cls-30" x="1563.21" y="800.11" width="4.28" height="41.86"/><path class="cls-30" d="M1574.12,800.26l0,41.57a9.34,9.34,0,0,1-1.6.14h-2.68l0-41.86h2.67A9.45,9.45,0,0,1,1574.12,800.26Z"/><path class="cls-30" d="M1580.06,804.14l0,33.81a9.22,9.22,0,0,1-4.28,3.41l0-40.63A9.25,9.25,0,0,1,1580.06,804.14Z"/><path class="cls-31" d="M1632.51,999.58q-12.83,4.06-26,7.4c-1.36.35-2.74.69-4.11,1q-4.89,1.2-9.83,2.29l-.54.11q-15.73,3.47-31.88,5.87-14.93,2.21-30.17,3.47h0q-13.21,1.13-26.67,1.47l-1.38,0-1,0h-.47l-1.92,0-1.35,0-1.37,0c-.69,0-1.39,0-2.09,0s-1.26,0-1.9,0h-3.46l-3.65,0-3.47-.06c-1.3,0-2.61,0-3.91-.1l-3.46-.09c-1.49,0-3-.11-4.49-.18l-.51,0c-.9,0-1.8-.07-2.7-.13-1.15,0-2.31-.11-3.46-.18-2.52-.14-5.07-.3-7.6-.49l-.66,0c-1.15-.08-2.31-.16-3.46-.26l-1-.09c-.74-.05-1.46-.12-2.2-.19-1.73-.14-3.47-.3-5.21-.47l-2.16-.22c-1.15-.11-2.31-.24-3.47-.37-4.09-.44-8.21-.94-12.33-1.49h0c-1.18-.16-2.36-.32-3.55-.5l-1.19-.17c-.32,0-.65-.08-1-.13-.82-.11-1.64-.24-2.45-.36l-.68-.11-.13,0h0l-.21,0c-3.07-.45-6.14-.95-9.23-1.48l-3.23-.57c-1.07-.19-2.14-.38-3.23-.59l-3.62-.68-3.46-.66q-8.46-1.65-16.92-3.49h0c-4.84-1-9.68-2.15-14.53-3.3l-3.46-.84-1.66-.4A133.69,133.69,0,0,1,1424.77,875c1.71-.94,3.45-1.84,5.18-2.7s3.33-2,5-2.93a133.69,133.69,0,0,1,197.52,130.17Z"/><path class="cls-31" d="M1658.28,905a132.93,132.93,0,0,0-49-50.58l-1.56-.91q-2.12-1.23-4.28-2.34c-.55-.3-1.11-.59-1.67-.86q-2.12-1.09-4.27-2.08c-.77-.36-1.55-.72-2.33-1.06-1.42-.62-2.84-1.22-4.28-1.79s-3-1.17-4.52-1.73l-.34-.11c-1.3-.47-2.62-.91-3.94-1.34l-.91-.28h-.39a5.77,5.77,0,0,0-1-.43c-.88-.27-1.77-.52-2.66-.77-.45-.13-.9-.26-1.35-.37s-1.11-.3-1.67-.44c-1.42-.36-2.85-.7-4.28-1-.78-.18-1.55-.34-2.33-.49-1.42-.29-2.86-.56-4.28-.79s-3-.48-4.52-.68-2.8-.35-4.22-.49h-.06c-1.61-.16-3.21-.29-4.83-.39-1.42-.09-2.85-.16-4.28-.21q-4.74-.14-9.51,0c-1.42.06-2.85.14-4.28.24q-5.1.36-10.21,1.14c-1.42.21-2.85.45-4.27.71a130.8,130.8,0,0,0-13.09,3.1c-.87.25-1.74.52-2.61.8h0a1.41,1.41,0,0,0-.22.06l-.39.13a133.31,133.31,0,0,0-23.88,10.27l-.1.06q-2.12,1.17-4.19,2.4c-.25.15-.5.3-.74.46a133.06,133.06,0,0,0-32.32,27.46c-.28.32-.55.65-.81,1a133.63,133.63,0,0,0-23.34,40.81.19.19,0,0,0,0,.07l-.35,1a132.22,132.22,0,0,0-4.29,15.16v.38a129.46,129.46,0,0,0-3.12,25.25h0a132.77,132.77,0,0,0,5,39.51q.33,1.17.69,2.34c.76,2.51,1.6,5,2.53,7.51l.68.11c.81.12,1.63.25,2.45.36.31.05.64.1,1,.13l1.19.17c1.19.18,2.37.34,3.55.5h0c4.12.55,8.24,1,12.33,1.49,1.16.13,2.32.26,3.47.37l2.16.22c1.74.17,3.48.33,5.21.47.74.07,1.46.14,2.2.19l1,.09c1.15.1,2.31.18,3.46.26l.66,0c2.53.19,5.08.35,7.6.49,1.15.07,2.31.13,3.46.18.9.06,1.8.09,2.7.13l.51,0c1.5.07,3,.14,4.49.18l3.46.09c1.3,0,2.61.08,3.91.1l3.47.06,3.65,0h3.46c.64,0,1.27,0,1.9,0s1.4,0,2.09,0l1.37,0,1.35,0,1.92,0h.47l1,0,1.38,0q13.44-.36,26.67-1.47h0q15.26-1.25,30.17-3.47,16.14-2.38,31.88-5.87l.54-.11a.5.5,0,0,1,0,.13l9.87-2.42c1.37-.33,2.75-.67,4.11-1q19.44-4.93,38.15-11.45,3.13-1.08,6.24-2.21l1.54-.57q5.82-2.12,11.54-4.41c1-.4,2.07-.82,3.1-1.24h0l.63-.24h0c1.22-.49,2.43-1,3.62-1.5.91-.37,1.81-.75,2.71-1.14.11-1,.21-1.93.29-2.91A133,133,0,0,0,1658.28,905Z"/><path class="cls-29" d="M1648.07,910.61a133,133,0,0,0-38.81-43.91l-1.56-1.11c-1.4-1-2.83-1.94-4.27-2.87l-1.67-1.06q-2.12-1.3-4.28-2.55c-.77-.44-1.55-.88-2.33-1.29q-2.12-1.17-4.28-2.25c-1.49-.75-3-1.46-4.52-2.15s-2.84-1.27-4.28-1.86l-1.54-.63c-1.09-.43-2.18-.85-3.29-1.25-.94-.35-1.87-.68-2.81-1l-1.46-.48c-3.13-1.05-6.3-2-9.5-2.77q-2.15-.52-4.29-1-4.65-1-9.39-1.68c-.27,0-.55-.09-.82-.12-1.42-.2-2.84-.37-4.27-.51-.56-.07-1.12-.12-1.69-.17h-.42a1.56,1.56,0,0,0-.32-.07h-.83c-1.82-.19-3.91-.31-5.66-.39-1.43-.06-2.85-.09-4.28-.09-3.39,0-6.79.09-10.21.34l-1.6.13h-.55l-.23.06h-.52a125.76,125.76,0,0,0-13.41,2c-1.43.28-2.85.59-4.28.93a132.53,132.53,0,0,0-23.88,8q-2.14.95-4.29,2l-.74.37q-2.67,1.31-5.29,2.75a133.3,133.3,0,0,0-32.17,24.71q-.36.36-.69.72l-.23.24h0a133,133,0,0,0-26.15,40.8l0,.07a134.13,134.13,0,0,0-9.64,41.79,130.24,130.24,0,0,0,.17,20,132,132,0,0,0,3.68,21.81q.69,2.73,1.51,5.41l3.23.57c3.09.53,6.16,1,9.23,1.48l.21,0h0l.13,0,.68.11c.81.12,1.63.25,2.45.36.31.05.64.1,1,.13l1.19.17c1.19.18,2.37.34,3.55.5h0c4.12.55,8.24,1,12.33,1.49,1.16.13,2.32.26,3.47.37l2.16.22c1.74.17,3.48.33,5.21.47.74.07,1.46.14,2.2.19l1,.09c1.15.1,2.31.18,3.46.26l.66,0c2.53.19,5.08.35,7.6.49,1.15.07,2.31.13,3.46.18.9.06,1.8.09,2.7.13l.51,0c1.5.07,3,.14,4.49.18l3.46.09c1.3,0,2.61.08,3.91.1l3.47.06,3.65,0h3.46c.64,0,1.27,0,1.9,0s1.4,0,2.09,0l1.37,0,1.35,0,1.92,0h.47l1,0,1.38,0q13.44-.36,26.67-1.47h0q15.26-1.25,30.17-3.47,16.14-2.38,31.88-5.87l.54-.11a.5.5,0,0,1,0,.13l9.87-2.42c1.37-.33,2.75-.67,4.11-1q19.44-4.93,38.15-11.45,3.13-1.08,6.24-2.21l1.54-.57q5.82-2.12,11.54-4.41A132.94,132.94,0,0,0,1648.07,910.61Z"/><path class="cls-30" d="M1638.42,917.72a121.13,121.13,0,0,0-31.46-37q-1.76-1.37-3.55-2.67c-.55-.41-1.11-.81-1.67-1.18-1.4-1-2.83-2-4.27-2.88-.77-.49-1.55-1-2.33-1.45q-2.12-1.29-4.28-2.48t-4.52-2.38c-1.42-.71-2.84-1.39-4.28-2-1.6-.72-3.2-1.41-4.83-2.05-1.41-.58-2.84-1.12-4.27-1.63l-.45-.17q-3.1-1.1-6.27-2c-.93-.28-1.86-.54-2.78-.79-1.43-.39-2.85-.75-4.29-1.07-3.37-.79-6.77-1.42-10.21-1.93-1.42-.2-2.84-.37-4.27-.53-.43,0-.86-.1-1.3-.13l-2.7-.24h0q-4.53-.35-9.08-.35c-1.43,0-2.86,0-4.28.08a120.63,120.63,0,0,0-22.35,2.87c-1.43.32-2.86.67-4.28,1.06a121.36,121.36,0,0,0-23.88,9.08c-1.28.64-2.54,1.31-3.81,2l-.48.27A121.69,121.69,0,0,0,1454,882.71c-.4.31-.78.63-1.17,1-1.26,1.05-2.48,2.15-3.69,3.26-1.47,1.34-2.89,2.72-4.29,4.14a120,120,0,0,0-23.25,33.4.11.11,0,0,0,0,.07,2.12,2.12,0,0,0-.14.31,121.44,121.44,0,0,0-6.47,17.14v.25a1.35,1.35,0,0,0-.17.32,111.8,111.8,0,0,0-4.13,19.82v.16h0v.28h0v.28h0v.16c-.12,1-.21,2-.3,3q-.45,5.16-.45,10.31a120,120,0,0,0,3.88,30.28c.11.43.22.84.34,1.26.69,2.56,1.47,5.09,2.33,7.62.81.12,1.63.25,2.45.36.31.05.64.1,1,.13l1.19.17c1.19.18,2.37.34,3.55.5-.44-1.18-.88-2.37-1.28-3.56q-.9-2.58-1.66-5.21c-.5-1.75-1-3.06-1.39-4.82v-.46a113.27,113.27,0,0,1-2.62-36.58,115.67,115.67,0,0,1,4.11-21.74c.87-3,1.84-5.94,2.94-8.82h0a111.14,111.14,0,0,1,5-11.21.11.11,0,0,1,0-.07,112,112,0,0,1,15.16-22.67c1.37-1.61,2.79-3.17,4.28-4.7a111.66,111.66,0,0,1,15.47-13.43h0c.45-.33.9-.66,1.36-1h.1c2.12-1.49,4.22-2.92,6.47-4.26q1.95-1.2,4-2.31a1.82,1.82,0,0,1,.31-.16,112.8,112.8,0,0,1,23.87-9.76c1.42-.41,2.85-.77,4.28-1.12a113,113,0,0,1,22.36-3.06c1.41,0,2.82-.08,4.23-.08h0c1.29,0,2.6,0,3.9.06h0c1.33.05,2.66.12,4,.22,1.74.11,3.48.28,5.2.47,1.43.16,2.85.36,4.26.58q5.16.78,10.21,2c.83.2,1.65.42,2.46.64.61.16,1.22.34,1.83.51,1.51.44,3,.91,4.52,1.4,1.67.56,3.34,1.16,5,1.79,1.44.55,2.86,1.14,4.28,1.74,1.63.71,3.23,1.45,4.83,2.22q2.16,1.07,4.28,2.21,2.29,1.23,4.51,2.57c1.44.86,2.87,1.77,4.28,2.71.78.51,1.56,1,2.33,1.58.5.35,1,.71,1.51,1.08h0a114.51,114.51,0,0,1,45.7,111.75q3.13-1.08,6.24-2.21l1.54-.57A120.86,120.86,0,0,0,1638.42,917.72Z"/><path class="cls-30" d="M1528.25,1018.17a29.1,29.1,0,0,1-5.94-9.67l-21.93,8.89c0,1.3,0,2.6.1,3.89h.47l1,0,1.38,0q13.44-.36,26.67-1.47C1529.4,1019.26,1528.82,1018.74,1528.25,1018.17Zm0,0a29.1,29.1,0,0,1-5.94-9.67l-21.93,8.89c0,1.3,0,2.6.1,3.89h.47l1,0,1.38,0q13.44-.36,26.67-1.47C1529.4,1019.26,1528.82,1018.74,1528.25,1018.17Zm0,0a29.1,29.1,0,0,1-5.94-9.67l-21.93,8.89c0,1.3,0,2.6.1,3.89h.47l1,0,1.38,0q13.44-.36,26.67-1.47C1529.4,1019.26,1528.82,1018.74,1528.25,1018.17Zm0,0a29.1,29.1,0,0,1-5.94-9.67l-21.93,8.89c0,1.3,0,2.6.1,3.89h.47l1,0,1.38,0q13.44-.36,26.67-1.47C1529.4,1019.26,1528.82,1018.74,1528.25,1018.17Zm0,0a29.1,29.1,0,0,1-5.94-9.67l-21.93,8.89c0,1.3,0,2.6.1,3.89h.47l1,0,1.38,0q13.44-.36,26.67-1.47C1529.4,1019.26,1528.82,1018.74,1528.25,1018.17Zm0,0a29.1,29.1,0,0,1-5.94-9.67l-21.93,8.89c0,1.3,0,2.6.1,3.89h.47l1,0,1.38,0q13.44-.36,26.67-1.47C1529.4,1019.26,1528.82,1018.74,1528.25,1018.17Zm64.4-23.75a41.2,41.2,0,0,0-2-6.29,48.63,48.63,0,0,0-2.26-4.81,39.17,39.17,0,0,0-2.34-3.75l-.19-.26h0a29.59,29.59,0,0,0-4.09-4.62l0,0a35.62,35.62,0,0,0-4.46-3.48,39.4,39.4,0,0,0-4.27-2.4,36.54,36.54,0,0,0-4-1.64c-.26-.09-.54-.19-.8-.26-.43-.15-.85-.28-1.29-.41h0l-.47-.12a62.39,62.39,0,0,0-13.09-2.22l-.55,0-3.74-.19q-7.37-.29-15.73-.07-3.6.12-6.61,0-2.31-.06-4.29-.24l-.23,0a27.9,27.9,0,0,1-7.82-1.71,13.86,13.86,0,0,1-5.22-3.54,18.64,18.64,0,0,1-3.32-5.48c-.09-.22-.18-.45-.26-.67a20.41,20.41,0,0,1-1.25-5.76,14.21,14.21,0,0,1,.17-3.27,13.81,13.81,0,0,1,4.51-8,18.26,18.26,0,0,1,3.23-2.38,26.09,26.09,0,0,1,3.59-1.77,20.06,20.06,0,0,1,6.61-1.53h0a16.18,16.18,0,0,1,4.29.38,16.81,16.81,0,0,1,3.68,1.29q6.78,3.33,11,13.83l7.61-3.08,4.28-1.74,13.1-5.31,2.24-.91c-.7-1.71-1.44-3.35-2.24-4.91v-.46c-.77-1.45-1.59-2.49-2.46-3.84a.18.18,0,0,0,0-.07c-.24-.39-.49-.77-.74-1.13a43.24,43.24,0,0,0-3.41-4.38c-.36-.41-.71-.79-1.11-1.18v0a41.09,41.09,0,0,0-4.27-3.9,35.73,35.73,0,0,0-4.83-3.24q-.91-.53-1.86-1c-.8-.39-1.61-.75-2.42-1.08a38.78,38.78,0,0,0-6.09-1.89c-1.12-.25-2.25-.45-3.41-.6-.89-.13-1.79-.21-2.7-.28l-1,0-.61,0a49.51,49.51,0,0,0-10.2.74c-1.41.24-2.84.55-4.28.92-.13,0-.24.06-.37.09l-.92-2.27-4.33-10.66-2.45-6.06-5,2-4.28,1.73-5.79,2.35,5.78,14.26.4,1,1.41,3.48c-.61.32-1.22.65-1.81,1a54.7,54.7,0,0,0-5.39,3.35h0a51.53,51.53,0,0,0-6.62,5.5c-.43.43-.84.85-1.24,1.28l-.07.07a41.26,41.26,0,0,0-7.43,10.81,33.84,33.84,0,0,0-2.15,6h0a34.07,34.07,0,0,0-1.06,7.76,36.71,36.71,0,0,0,2.87,14.63c.37.89.74,1.76,1.14,2.59h0a40,40,0,0,0,3.3,5.75c.33.48.66,1,1,1.4a28.39,28.39,0,0,0,3.12,3.49l.38.35a34.62,34.62,0,0,0,4.13,3.24,35.35,35.35,0,0,0,8.62,4.23,55.16,55.16,0,0,0,10.4,2.4c1.87.26,3.82.44,5.83.55l1.77.09c1.39.06,2.82.1,4.27.12q6.21.12,13.09-.2l.39,0c1.35-.08,2.66-.13,3.9-.15a63.85,63.85,0,0,1,6.72.23,29.76,29.76,0,0,1,3.48.49,23.94,23.94,0,0,1,4.28,1.23h0a14.68,14.68,0,0,1,5.44,3.7,20.32,20.32,0,0,1,3.67,6.05,3.84,3.84,0,0,0,.37.54v.46a16.36,16.36,0,0,1,.93,5.46,13.67,13.67,0,0,1-1.46,6.15,16.45,16.45,0,0,1-3.15,4.32q16.14-2.38,31.88-5.87l.54-.11c.18-.73.34-1.46.46-2.21a34.7,34.7,0,0,0,.51-5A33.41,33.41,0,0,0,1592.65,994.42Zm-64.4,23.75a29.1,29.1,0,0,1-5.94-9.67l-21.93,8.89c0,1.3,0,2.6.1,3.89h.47l1,0,1.38,0q13.44-.36,26.67-1.47C1529.4,1019.26,1528.82,1018.74,1528.25,1018.17Zm0,0a29.1,29.1,0,0,1-5.94-9.67l-21.93,8.89c0,1.3,0,2.6.1,3.89h.47l1,0,1.38,0q13.44-.36,26.67-1.47C1529.4,1019.26,1528.82,1018.74,1528.25,1018.17Zm0,0a29.1,29.1,0,0,1-5.94-9.67l-21.93,8.89c0,1.3,0,2.6.1,3.89h.47l1,0,1.38,0q13.44-.36,26.67-1.47C1529.4,1019.26,1528.82,1018.74,1528.25,1018.17Zm0,0a29.1,29.1,0,0,1-5.94-9.67l-21.93,8.89c0,1.3,0,2.6.1,3.89h.47l1,0,1.38,0q13.44-.36,26.67-1.47C1529.4,1019.26,1528.82,1018.74,1528.25,1018.17Zm0,0a29.1,29.1,0,0,1-5.94-9.67l-21.93,8.89c0,1.3,0,2.6.1,3.89h.47l1,0,1.38,0q13.44-.36,26.67-1.47C1529.4,1019.26,1528.82,1018.74,1528.25,1018.17Zm0,0a29.1,29.1,0,0,1-5.94-9.67l-21.93,8.89c0,1.3,0,2.6.1,3.89h.47l1,0,1.38,0q13.44-.36,26.67-1.47C1529.4,1019.26,1528.82,1018.74,1528.25,1018.17Zm0,0a29.1,29.1,0,0,1-5.94-9.67l-21.93,8.89-5.31,2.15c.25.62.5,1.23.77,1.82l1.37,0,1.35,0,1.92,0h.47l1,0,1.38,0q13.44-.36,26.67-1.47C1529.4,1019.26,1528.82,1018.74,1528.25,1018.17Z"/></g></g></g></svg>