<svg xmlns="http://www.w3.org/2000/svg" xmlns:xlink="http://www.w3.org/1999/xlink" viewBox="0 0 1005 1005"><defs><style>.cls-1{fill:#fff;}.cls-2{fill:#247207;}.cls-3{fill:#1d1d1b;}.cls-4{fill:url(#radial-gradient);}</style><radialGradient id="radial-gradient" cx="534.15" cy="922.9" r="481.53" gradientTransform="translate(-338.98 1553.75) rotate(-96.12) scale(1 1.01)" gradientUnits="userSpaceOnUse"><stop offset="0" stop-color="#6b8934"/><stop offset="0.25" stop-color="#9eaf36"/><stop offset="0.5" stop-color="#f1b946"/><stop offset="0.75" stop-color="#edaa48"/><stop offset="0.79" stop-color="#ec9f42"/><stop offset="1" stop-color="#e66e28"/></radialGradient></defs><title>Logo</title><g id="Logo"><g id="Logo-2" data-name="Logo"><circle class="cls-1" cx="503" cy="527" r="418"/><path class="cls-2" d="M619,77.65c-.92-.25-1.86-.48-2.77-.71-12.67,14.43-17.68,32-19.76,50.75a154.27,154.27,0,0,1-2.57,16.5c4.48,1.06,8.92,2.18,13.32,3.4C606.15,123.16,611.39,100.22,619,77.65Zm-40,63.31,2.71.53c-.23-.79-.44-1.57-.69-2.34A25.22,25.22,0,0,1,578.93,141Zm252.49,57.8a463.25,463.25,0,0,0-197-116.88c-2.56-.76-5.13-1.48-7.7-2.19s-5.16-1.39-7.75-2c-.92-.25-1.86-.48-2.77-.71q-4.34-1.08-8.67-2.06T598.93,73a471.5,471.5,0,0,0-96.43-9.92c-124.24,0-241,48.2-328.92,135.69S37.27,402.71,37.27,526.54,85.68,766.76,173.58,854.31,378.26,990,502.5,990c1.62,0,3.26,0,4.88,0q3.54,0,7-.12c2.7-.05,5.39-.14,8.09-.26q9.81-.41,19.58-1.24c2.11-.16,4.24-.35,6.36-.56,3.45-.34,6.91-.71,10.34-1.11C661.73,974.37,757,928.45,831.42,854.31c87.9-87.55,136.31-203.94,136.31-327.77S919.32,286.31,831.42,198.76ZM533.85,918.28c-1.18.1-2.38.19-3.58.26-1.94.14-3.89.27-5.85.37-3.84.21-7.68.37-11.56.48-2.48.05-5,.09-7.51.1-1,0-1.9,0-2.85,0-1.34,0-2.7,0-4,0-215.8-2.15-390.7-177.6-390.7-392.94,0-216.69,177.09-393,394.74-393a399,399,0,0,1,58.61,4.32c2.82.42,5.64.88,8.44,1.36,3.14.53,6.28,1.11,9.38,1.72l2.71.53v0c4.11.83,8.18,1.71,12.23,2.68,4.48,1.06,8.92,2.18,13.32,3.4q9.49,2.61,18.79,5.66c2.64.86,5.29,1.76,7.89,2.69,153.26,54,263.37,199.75,263.37,370.6C897.24,732.72,736.91,902.33,533.85,918.28Z"/><g id="Neem_Tree_Leaf" data-name="Neem Tree Leaf"><path class="cls-3" d="M699.09,598.93a20.8,20.8,0,0,0-7.93-7.83,87.69,87.69,0,0,0,8.7-27.63c.87-5.55,1.54-12-1.33-18.2-2.7-5.85-7.53-9.75-14.4-11.63a81.27,81.27,0,0,0,2.78-12c2.52-17-2.85-26.46-7.8-31.34l-5.85-5.78c6.2-17.32,9.67-34.64,7.34-53.76l-1.37-11.37L668,417.05l-1.23-.26-6.21-1.31c1.8-4.58,3.49-9.27,4.87-14.11,6.22-21.89-8.64-36.2-16.62-43.88l-3-2.89a110,110,0,0,0,2.87-14,75.83,75.83,0,0,0-2.43-30c-.9-3.18-4.16-10.72-15-12.43-1.14-.17-2.31-.28-3.47-.37.69-4.1,1.43-8.26,2.2-12.54.81-4.57,1.66-9.27,2.43-14,.94-5.64,1.61-11.08,2.28-16.35.26-2.14.53-4.23.79-6.22l2.73-20.5-16.35,2a73.24,73.24,0,0,0,1.3-14.76c-.61-17.92-10.27-24.3-16.61-26.58l1.35-32.9.13-2.76.89-21.31-11.66,2.87c1-19.31,5.85-37.14,11.19-52.86.51-1.52,1-3,1.55-4.5L632,15l-48,45.45A85.2,85.2,0,0,0,573,73c-10.06,14.05-14.58,29.2-16.87,42.1L543.54,128c-.11.12-.53.47-.85.74a27.37,27.37,0,0,0-7.54,9.18c-.14.33-.3.69-.44,1-3.86,9.59-7.56,19.3-11.16,28.85l-17.88,16.84c-11.83,11.14-15.32,23.07-15.39,33.1a20.38,20.38,0,0,0-5.62,3.47c-7.5,6.48-7.65,15.81-7.7,18.87,0,1.45,0,2.91-.09,4.37L464.43,238,462.53,262,461,280.74a22.47,22.47,0,0,0-15,5.61c-8.24,7.49-7.59,18.46-7.17,25.72.23,3.83.58,7.6,1,11.32a19.6,19.6,0,0,0-9.92,5.65c-5.94,6.21-6.19,13.8-5.36,21.52A20.83,20.83,0,0,0,413,356c-5.2,4.89-7.42,11.81-6.61,20.59.5,5.5,1,11.06,1.43,16.77l-2-.58-14.52-4.25-5.06,14.26a82.12,82.12,0,0,0-4.07,38A20.27,20.27,0,0,0,366.28,445c-7.67,6.22-8.16,15.9-8.57,23.65a79.58,79.58,0,0,0,.09,12.49L348,475.47l-6.49,18L340.23,497c-3.15,8.63-6.75,18.41-7.72,29.15a62.2,62.2,0,0,0-.21,7.7,19.65,19.65,0,0,0-9.43,3.94c-4.77,3.69-7.56,9.17-8.26,16.27l-.09,1c-1,9.83-2.1,21,.19,32.55l-4.52-.34L306.77,600a50,50,0,0,0,2.48,33.74l-4.7.2-1.25,14a38.87,38.87,0,0,0,9.9,30.48c-3.65,7-3,15.35,2,24.81a61.23,61.23,0,0,0,5.66,8.74l-4.81,2,4,13.85a41,41,0,0,0,15.35,22.28l.84,4.61c3.38,18.58,14.89,27.39,25.34,31.74l.27.65c6.25,15.63,18.43,20.3,27.06,22.4a16.57,16.57,0,0,0,9.94,13,168.19,168.19,0,0,0,17.77,6l1.67.49a16.78,16.78,0,0,0,9.2,4.67,16.22,16.22,0,0,0,3.81.14c4.77-.35,9.33-1,14-1.67,28.81,6.82,24.53,49.8,27.22,87.39.87,11.82,2.4,23.08,5.87,32.54.5,5.17.94,10.33,1.36,15.51q.93,11.19,1.69,22.43,3.54,0,7.05-.12c2.7-.05,5.39-.14,8.09-.26q-1.87-10.08-3.42-20.2-1.06-6.9-2-13.85a303.2,303.2,0,0,0-4.25-36.14c-6.17-37.22-15.4-74.74-3.75-111.15-3.37,0-7.21,2.6-11.12,5.34s-8.16,5.8-11.95,6.33c-3.1.48-6-.72-8.42-5-3.81.57-7.46,1.15-11,1.66s-7,1-10.55,1.23H430a.29.29,0,0,1-.16-.06.3.3,0,0,1-.17-.12,2.81,2.81,0,0,1-.34-.3c-.68-.79-1.49-2.29-2.46-2.63l-.23-.07h-.35c-7.14-2.18-14.38-4-21.22-6.9-.92-.39.3-5.8.61-10.24-8.88-4.57-22.94-1.34-28.95-16.36,3.23-1,6.54-2,9.85-3-.16-.84-.31-1.69-.49-2.53-1-.13-1.94-.23-2.89-.37-1.5-.2-3-.41-4.42-.67l-2.21-.41-1.21-.26c-.41-.09-.81-.18-1.22-.29-1.2-.28-2.38-.61-3.52-1-.39-.13-.78-.25-1.15-.39s-.74-.26-1.11-.41-.67-.26-1-.4a26.85,26.85,0,0,1-7.27-4.42c-.27-.23-.51-.46-.76-.69a21.06,21.06,0,0,1-2-2.13c-.17-.21-.33-.43-.49-.64s-.26-.37-.4-.56a21.75,21.75,0,0,1-1.91-3.24c-.14-.27-.26-.53-.37-.8s-.28-.63-.42-1-.3-.76-.44-1.16a32.14,32.14,0,0,1-1.32-5.08l17.81-2.15c-14.48-7.43-29.62-9.9-34.36-26.29l12.2-5c-6.35-7.65-13.89-14.29-18.26-22.59-5.38-10.24-1.82-14,9.85-13.32,1.59.1,3.19-.07,6.61-.18-14.49-8.42-28.15-15.47-26.59-32.92l19.91-.79c-12.55-13.76-21.71-26.56-16.92-44.44,5.8.42,11.12.83,18.86,1.39-14.21-16.09-12.21-33-10.54-49.94a10.71,10.71,0,0,1,.93-3.7,5.14,5.14,0,0,1,.53-.83,4,4,0,0,1,3.28-1.45c.25,0,.49,0,.74,0a4.81,4.81,0,0,1,.53.07l.26,0a13.1,13.1,0,0,1,2,.53c4.58,1.52,9.29,2.66,16.34,4.65-12.83-21-4.94-38.45,1.41-56,9.13,5.26,17.57,10.13,27.28,15.75-3.63-11.79-7-21.41-9.47-31.24-1.11-4.45-.93-9.31-.68-14,.47-9.31,1.19-12.83,5.26-12.83.27,0,.55,0,.85.05a5.15,5.15,0,0,1,.65.07l.3.06h0a9.46,9.46,0,0,1,1,.22c.39.09.81.2,1.24.32l1.18.35.86.29,1.13.38,2.5.89c4.62,1.67,9.37,2.94,16.18,5-7.88-19.49-10.08-37.86-3.6-56.15l24.32,7.12c-1.2-14.82-2.11-27.49-3.28-40.13-.56-6.18,1.27-8.84,6-8.84a12.18,12.18,0,0,1,1.32.07c.44,0,.92.09,1.43.17h0l1,.18c.42.09.83.16,1.22.23l1.11.21,2,.35.9.13c2.66.35,4.18.23,4.9-.76a2.72,2.72,0,0,0,.28-.51c.62-1.57.09-4.58-.88-9.78-.16-.86-.3-1.73-.44-2.59-2.25-15.67-1.6-16.36,13.92-14.82a11.07,11.07,0,0,0,2.61-.34c-1-9.32-2.29-18.5-2.84-27.72-.72-12.16.64-15.1,9.7-14.24l.79.09a1.26,1.26,0,0,1,.28,0c.56.05,1.15.12,1.76.23.3,0,.62.08.94.14.56.09,1.14.17,1.74.28,1.13.19,2.27.26,3.58.35l2.06.14c.93-11.64,1.83-22.94,2.78-34.91l13.42,6.88c.4-10.93.91-20.38,1-29.82.09-5.62,1.62-9,8.21-8.18,5.86.76,6.93-2.29,5.82-7.52-2.36-11.14,1.18-20.36,9.66-28.34-1.36,6.45-3.3,12.14-3.42,17.87-.05,2.4,3.73,4.9,5.78,7.35,1.44-2.4,3.28-4.64,4.28-7.21,3.77-9.71,7.23-19.52,10.89-29.29,5-13.39,10-26.8,15.37-40.07A11.4,11.4,0,0,1,553,141a25.22,25.22,0,0,0,2-1.81c.25.77.46,1.55.69,2.34v0a28.9,28.9,0,0,0,1.55,4.42c1.22,2.52,2.89,4.85,4.37,7.26,1.92-1.86,4.95-3.47,5.53-5.69.29-1.09.55-2.2.78-3.31a154.27,154.27,0,0,0,2.57-16.5c2.08-18.8,7.09-36.32,19.76-50.75a64.2,64.2,0,0,1,4.67-4.86c-.65,1.85-1.29,3.7-1.91,5.57-7.57,22.57-12.81,45.51-11.77,69.94q.13,3.71.48,7.45l10.34-2.53c-.76,18-1.48,35.2-2.2,52.62,0,0,0,0-.05,0h-.09l0,0,.07,0,.21.07a1,1,0,0,0,.47,0c3.53-1.37,6.49-1.95,8.89-1.69a4.61,4.61,0,0,1,.77.11.92.92,0,0,1,.32.07,1.9,1.9,0,0,1,.46.1,1.72,1.72,0,0,1,.4.14,3.12,3.12,0,0,1,.48.18,3.92,3.92,0,0,1,.65.32,3.48,3.48,0,0,1,.48.3,4.26,4.26,0,0,1,.63.49,3.82,3.82,0,0,1,.58.56,4.23,4.23,0,0,1,.58.73,4.6,4.6,0,0,1,.5.77,2.25,2.25,0,0,1,.12.21,7.6,7.6,0,0,1,.37.76,8.31,8.31,0,0,1,.4,1c.13.35.23.74.34,1.13s.16.65.23,1a23.14,23.14,0,0,1,.4,3q.06.73.09,1.53c.23,6.91-1.81,13.84-2.38,20.8-.31,3.8.3,7.7.51,11.56,4-.5,8-1,14.33-1.75-.92,6.79-1.74,14.47-3,22.1-2.14,12.94-4.8,25.8-6.51,38.79-.19,1.55,3.93,4.63,6.51,5.34a6.33,6.33,0,0,0,1,.21c.16,0,.31.07.49.09a2.21,2.21,0,0,0,.25,0,1.33,1.33,0,0,0,.28,0c.35.06.7.11,1.07.15.73.07,1.5.14,2.28.17,1.34.09,2.69.13,3.94.21.22,0,.43,0,.64,0,.47,0,.92.05,1.34.1l.84.11a3.92,3.92,0,0,1,1.92.65.46.46,0,0,1,.15.16.49.49,0,0,1,.08.18,60,60,0,0,1,2,23.61c-1.36,10.35-5.27,20.32-7.32,30.61s2.08,18.47,8.83,25.43l3.44-.41c0-8.31,0-16.61-.07-25.18,8.12,7.84,15.74,16,12.32,28-2.84,10-7.3,19.56-11.4,30.24,8.15,1.73,16.21,3.42,26.08,5.5,3.15,26-6.81,49.43-18.44,74.36,6.63-1.65,13.26-3.29,21.57-5.37,3.86,3.82,4.23,10.76,3.21,17.6a75.11,75.11,0,0,1-4.79,16.76c-1.31,3.24-2.06,5.6-2.06,7.33a5.09,5.09,0,0,0,0,.58,4.8,4.8,0,0,0,.11.57,1.73,1.73,0,0,0,.14.42,2.69,2.69,0,0,0,.33.6,1.4,1.4,0,0,0,.27.33,1.48,1.48,0,0,0,.31.3.59.59,0,0,0,.18.14,3.74,3.74,0,0,0,.92.55,4.68,4.68,0,0,0,.56.23,14,14,0,0,0,2.94.7c.28.06.58.09.9.13.94.12,2,.23,3.17.31l1.43.13c.67.05,1.3.12,1.9.21a4.58,4.58,0,0,1,.55.07l.32.07.79.14.86.21.22.06a3.56,3.56,0,0,1,.74.24,3.71,3.71,0,0,1,.68.27l.11.05c.23.12.44.23.63.35a4.92,4.92,0,0,1,.55.41l0,0a2.62,2.62,0,0,1,.46.48,4.16,4.16,0,0,1,.69,1.11,2,2,0,0,1,.19.56,2.61,2.61,0,0,1,.14.55.2.2,0,0,1,0,.14,3.85,3.85,0,0,1,.07.49,2.84,2.84,0,0,1,.07.66c0,.3,0,.61,0,1a38.25,38.25,0,0,1-.55,5.62c-1.94,12.67-6.36,24.25-14.86,34.1-1.81,2.11-3.24,4.54-5.86,8.3,5.42.12,9.12.3,12.83.28.52,0,1,0,1.53,0a18.46,18.46,0,0,1,1.9.16,1.45,1.45,0,0,1,.3,0,8,8,0,0,1,1,.21c.16,0,.32.07.46.12a8.23,8.23,0,0,1,2.1.87c.17.1.33.23.49.33s.09.07.12.11a2.14,2.14,0,0,1,.44.4,4.72,4.72,0,0,1,.41.48,4.12,4.12,0,0,1,.35.54c.09.2.18.39.27.6a3.82,3.82,0,0,1,.19.66,7.16,7.16,0,0,1,.12.74c0,.23,0,.45,0,.7a14.17,14.17,0,0,1-1.11,4.95c-3,7.67-8.06,14.52-12.34,21.68-1,1.65-2.46,3-4.76,5.78L681,646.68c-1.13,16.69-10,27-29.26,31.21,5.77,2.7,8.73,4.6,11.95,5.48,7.3,2,7.51,6.19,4.46,11.79-5.09,9.33-10.27,18.54-21.85,21.33a58.86,58.86,0,0,0-5.68,2c.07,1,.16,2.08.23,3.12l15.88,7.75c-3.65,14-17.06,21.73-41.91,25.18l18.68,8.64c-4.33,15.7-18.6,14.94-31.59,16.6,6.06,7.35,3.45,15.84-5.69,17.9-7.74,1.76-15.95,1.45-23.6,2,2.87,4.83,4,7.81,2.82,9.83-24.69,10.31-55.56,8.37-74.88-9-14.45,39-10.5,79.14-2.06,118.38,2.82,13.15,6.13,26.19,9.45,39.07q1.81,7.39,3.75,14.7c1.39,5.21,2.89,10.45,4.48,15.66,2.11-.16,4.24-.35,6.36-.56,3.45-.34,6.91-.71,10.34-1.11-1.87-3-3.58-6.08-5.16-9.15a136.24,136.24,0,0,1-5.71-12.7c-4.42-15-9.83-30.81-14.08-46.54-9-33.06-12.85-65.89,8.09-90.74,7.72-9.66,40.53,7.72,63-1.29A20.59,20.59,0,0,0,590,816c.2-.44.39-.87.55-1.31a70.13,70.13,0,0,0,9.13-1.43c9.78-2.22,17.11-8.47,20.09-17.19a25.85,25.85,0,0,0,.74-2.67,45,45,0,0,0,9.11-3c9.64-4.37,16.28-12.33,19.24-23.05l2-7.2c.34-.18.67-.37,1-.58,10.57-6.3,17.39-15.11,20.3-26.23l3.31-12.68-3.86-1.89c4.73-5.36,8-11.26,10.52-16,4.27-7.79,5-15.1,2.14-21.75a16.81,16.81,0,0,0-.83-1.72c9.53-9.43,12.77-21.38,13.46-31.6l.83-12.25-4.85-1.65a85.36,85.36,0,0,0,6.82-13.4C703.64,610.37,701.54,603.18,699.09,598.93Z"/><path class="cls-1" d="M692.25,617.57c2.24-5.74,2.2-10.68-.1-14.66-1.48-2.55-4.59-5.83-11-6.84a22,22,0,0,0-2.25-.26c6.78-9.38,11.08-20.41,13.09-33.55.95-6.17,2.93-19-12.74-21.48-1.28-.22-2.73-.37-4.54-.5-.5,0-1-.09-1.4-.12.13-.34.27-.71.43-1.11a82,82,0,0,0,5.3-18.58c1.62-11-.23-19.24-5.52-24.46l-3.2-3.15-4.36,1.08-5.55,1.39c9-21,15-41.22,12.29-63.58l-.69-5.7-5.61-1.18-11.91-2.5-4.84-1c.1-.28.23-.56.33-.85a199.81,199.81,0,0,0,7.81-21.32c4.91-17.27-7.23-28.95-14.47-35.93l-6.41-6.17a127.81,127.81,0,0,0,3.91-17.48,68.55,68.55,0,0,0-2.21-26.84c-.59-2.1-2.5-5.74-8.54-6.69a46.64,46.64,0,0,0-5.43-.44,46.88,46.88,0,0,1-5-.39l-.76-.14a1.93,1.93,0,0,1-.24-.13c1-7.06,2.3-14.2,3.56-21.16.81-4.51,1.63-9.2,2.41-13.83.9-5.49,1.57-10.86,2.22-16,.26-2.17.53-4.28.81-6.29l1.36-10.26-10.26,1.25-.33,0-5.62.67c0-.67,0-1.32,0-1.94.21-2.41.62-4.92,1.06-7.56a71.82,71.82,0,0,0,1.35-14.15c-.53-15.58-9-19.23-14-20a19.19,19.19,0,0,0-2.87-.21l1.7-40.74.06-1.48,0-.41.45-10.64-10.36,2.53-1,.25c-.6-24.21,5.18-46.26,11.63-65.29q.84-2.5,1.71-5l11-31.19-24,22.73a77.25,77.25,0,0,0-7.84,8.62c-13.7,17.45-17.45,37.54-19.05,51.93-.23,2.08-.5,4.43-.87,6.89L558.57,124l-9.3,9.51c-.34.36-.85.8-1.38,1.26a23.78,23.78,0,0,0-4.3,4.44,13.89,13.89,0,0,0-1.46,2.67c-4.5,11.14-8.78,22.53-12.92,33.58l.53-2.56-18.59,17.5c-10.22,9.64-14.38,20.92-12.41,33.57a13.65,13.65,0,0,0-8.84,3.22c-4.3,3.72-4.88,9.17-4.94,13-.09,5.56-.3,11.2-.54,17.11l-2.28-1.17-10.68-5.48-.95,12-1.72,21.6-.39,5.08c-6.14-.9-12.37-1.2-17,3-5,4.54-5,11.73-4.57,19.33.39,6.43,1.13,12.83,1.85,19-5.32-.21-9.69.47-13,3.93-4.71,4.91-3.72,11.82-2.45,20.56.12.92.28,1.87.47,2.91.06.28.11.56.16.86l-.24-.05c-.44-.07-.87-.16-1.29-.21-2.2-.35-8.95-1.41-13.87,3.21s-4.33,11.7-4.12,14c.81,8.71,1.5,17.57,2.24,26.95,0,.49.07,1,.1,1.5l-13.18-3.86-7.26-2.12-2.52,7.14c-5.16,14.52-5.62,29.87-1.34,46.59l-1-.35a55.32,55.32,0,0,0-9.73-2.87c-4.17-.65-7.66.12-10.39,2.34-4.57,3.7-5.18,9.46-5.62,17.85-.29,5.54-.43,11,.93,16.34,1,4,2.17,8,3.42,12.05L360.57,492l-8.29-4.77-3.26,9c-.42,1.16-.84,2.35-1.26,3.51-4.74,12.9-9.94,27.07-6.28,43l-.14-.05a22.48,22.48,0,0,0-3.56-.88,12.67,12.67,0,0,0-10,2.27c-3,2.33-4.68,5.83-5.18,10.73l-.08,1c-1.27,12.73-2.67,26.72,3.31,40.6l-3-.23-6.61-.47-1.7,6.4c-4.25,15.86.52,28.28,8.21,39.15l-3.79.14-7,.28-.63,7C310,662.25,315.93,671,324,677.7a12.63,12.63,0,0,0-3.08,3.29c-4.62,7.18-.13,15.71,1.33,18.53,3.14,5.93,7.48,10.94,11.83,15.71l-1.69.69-6.68,2.72,2,6.92a33.87,33.87,0,0,0,14.91,19.77l1.44,7.9c3,16.19,12.9,23.37,23.6,26.91l1.58,4c5.75,14.38,17.61,16.83,25.45,18.45l2.22.48c-.11.86-.18,1.71-.23,2.47-.32,6.3,3.14,8.72,5.23,9.6a160.81,160.81,0,0,0,16.92,5.67l3.88,1.15a8.91,8.91,0,0,0,7.91,3.88c5.62-.43,11-1.25,16.72-2.14,8.76,5.82,18.42,3.88,26.14-1.92-5.57,32,.91,65,5.88,97.75,1.92,12.66,3.63,25.27,4.32,37.75.55,4.58,1.13,9.15,1.78,13.71.88,6.31,1.87,12.62,3,18.89,2.7-.05,5.39-.14,8.09-.26q-1.87-10.08-3.42-20.2-1.06-6.9-2-13.85a303.2,303.2,0,0,0-4.25-36.14c-6.17-37.22-15.4-74.74-3.75-111.15-3.37,0-7.21,2.6-11.12,5.34s-8.16,5.8-11.95,6.33c-3.1.48-6-.72-8.42-5-3.81.57-7.46,1.15-11,1.66s-7,1-10.55,1.23H430a.29.29,0,0,1-.16-.06.3.3,0,0,1-.17-.12,2.81,2.81,0,0,1-.34-.3c-.68-.79-1.49-2.29-2.46-2.63l-.23-.07h-.35c-7.14-2.18-14.38-4-21.22-6.9-.92-.39.3-5.8.61-10.24-8.88-4.57-22.94-1.34-28.95-16.36,3.23-1,6.54-2,9.85-3-.16-.84-.31-1.69-.49-2.53-1-.13-1.94-.23-2.89-.37-1.5-.2-3-.41-4.42-.67l-2.21-.41-1.21-.26c-.41-.09-.81-.18-1.22-.29-1.2-.28-2.38-.61-3.52-1-.39-.13-.78-.25-1.15-.39s-.74-.26-1.11-.41-.67-.26-1-.4a26.85,26.85,0,0,1-7.27-4.42c-.27-.23-.51-.46-.76-.69a21.06,21.06,0,0,1-2-2.13c-.17-.21-.33-.43-.49-.64s-.26-.37-.4-.56a21.75,21.75,0,0,1-1.91-3.24c-.14-.27-.26-.53-.37-.8s-.28-.63-.42-1-.3-.76-.44-1.16a32.14,32.14,0,0,1-1.32-5.08l17.81-2.15c-14.48-7.43-29.62-9.9-34.36-26.29l12.2-5c-6.35-7.65-13.89-14.29-18.26-22.59-5.38-10.24-1.82-14,9.85-13.32,1.59.1,3.19-.07,6.61-.18-14.49-8.42-28.15-15.47-26.59-32.92l19.91-.79c-12.55-13.76-21.71-26.56-16.92-44.44,5.8.42,11.12.83,18.86,1.39-14.21-16.09-12.21-33-10.54-49.94a10.71,10.71,0,0,1,.93-3.7,5.14,5.14,0,0,1,.53-.83,4,4,0,0,1,3.28-1.45c.25,0,.49,0,.74,0a4.81,4.81,0,0,1,.53.07l.26,0a13.1,13.1,0,0,1,2,.53c4.58,1.52,9.29,2.66,16.34,4.65-12.83-21-4.94-38.45,1.41-56,9.13,5.26,17.57,10.13,27.28,15.75-3.63-11.79-7-21.41-9.47-31.24-1.11-4.45-.93-9.31-.68-14,.47-9.31,1.19-12.83,5.26-12.83.27,0,.55,0,.85.05a5.15,5.15,0,0,1,.65.07l.3.06h0a9.46,9.46,0,0,1,1,.22c.39.09.81.2,1.24.32l1.18.35.86.29,1.13.38,2.5.89c4.62,1.67,9.37,2.94,16.18,5-7.88-19.49-10.08-37.86-3.6-56.15l24.32,7.12c-1.2-14.82-2.11-27.49-3.28-40.13-.56-6.18,1.27-8.84,6-8.84a12.18,12.18,0,0,1,1.32.07c.44,0,.92.09,1.43.17h0l1,.18c.42.09.83.16,1.22.23l1.11.21,2,.35.9.13c2.66.35,4.18.23,4.9-.76a2.72,2.72,0,0,0,.28-.51c.62-1.57.09-4.58-.88-9.78-.16-.86-.3-1.73-.44-2.59-2.25-15.67-1.6-16.36,13.92-14.82a11.07,11.07,0,0,0,2.61-.34c-1-9.32-2.29-18.5-2.84-27.72-.72-12.16.64-15.1,9.7-14.24l.79.09a1.26,1.26,0,0,1,.28,0c.56.05,1.15.12,1.76.23.3,0,.62.08.94.14.56.09,1.14.17,1.74.28,1.13.19,2.27.26,3.58.35l2.06.14c.93-11.64,1.83-22.94,2.78-34.91l13.42,6.88c.4-10.93.91-20.38,1-29.82.09-5.62,1.62-9,8.21-8.18,5.86.76,6.93-2.29,5.82-7.52-2.36-11.14,1.18-20.36,9.66-28.34-1.36,6.45-3.3,12.14-3.42,17.87-.05,2.4,3.73,4.9,5.78,7.35,1.44-2.4,3.28-4.64,4.28-7.21,3.77-9.71,7.23-19.52,10.89-29.29,5-13.39,10-26.8,15.37-40.07A11.4,11.4,0,0,1,553,141a25.22,25.22,0,0,0,2-1.81c.25.77.46,1.55.69,2.34v0a28.9,28.9,0,0,0,1.55,4.42c1.22,2.52,2.89,4.85,4.37,7.26,1.92-1.86,4.95-3.47,5.53-5.69.29-1.09.55-2.2.78-3.31a154.27,154.27,0,0,0,2.57-16.5c2.08-18.8,7.09-36.32,19.76-50.75a64.2,64.2,0,0,1,4.67-4.86c-.65,1.85-1.29,3.7-1.91,5.57-7.57,22.57-12.81,45.51-11.77,69.94q.13,3.71.48,7.45l10.34-2.53c-.76,18-1.48,35.2-2.2,52.62,0,0,0,0-.05,0h-.09l0,0,.07,0,.21.07a1,1,0,0,0,.47,0c3.53-1.37,6.49-1.95,8.89-1.69a4.61,4.61,0,0,1,.77.11.92.92,0,0,1,.32.07,1.9,1.9,0,0,1,.46.1,1.72,1.72,0,0,1,.4.14,3.12,3.12,0,0,1,.48.18,3.92,3.92,0,0,1,.65.32,3.48,3.48,0,0,1,.48.3,4.26,4.26,0,0,1,.63.49,3.82,3.82,0,0,1,.58.56,4.23,4.23,0,0,1,.58.73,4.6,4.6,0,0,1,.5.77,2.25,2.25,0,0,1,.12.21,7.6,7.6,0,0,1,.37.76,8.31,8.31,0,0,1,.4,1c.13.35.23.74.34,1.13s.16.65.23,1a23.14,23.14,0,0,1,.4,3q.06.73.09,1.53c.23,6.91-1.81,13.84-2.38,20.8-.31,3.8.3,7.7.51,11.56,4-.5,8-1,14.33-1.75-.92,6.79-1.74,14.47-3,22.1-2.14,12.94-4.8,25.8-6.51,38.79-.19,1.55,3.93,4.63,6.51,5.34a6.33,6.33,0,0,0,1,.21c.16,0,.31.07.49.09a2.21,2.21,0,0,0,.25,0,1.33,1.33,0,0,0,.28,0c.35.06.7.11,1.07.15.73.07,1.5.14,2.28.17,1.34.09,2.69.13,3.94.21.22,0,.43,0,.64,0,.47,0,.92.05,1.34.1l.84.11a3.92,3.92,0,0,1,1.92.65.46.46,0,0,1,.15.16.49.49,0,0,1,.08.18,60,60,0,0,1,2,23.61c-1.36,10.35-5.27,20.32-7.32,30.61s2.08,18.47,8.83,25.43l3.44-.41c0-8.31,0-16.61-.07-25.18,8.12,7.84,15.74,16,12.32,28-2.84,10-7.3,19.56-11.4,30.24,8.15,1.73,16.21,3.42,26.08,5.5,3.15,26-6.81,49.43-18.44,74.36,6.63-1.65,13.26-3.29,21.57-5.37,3.86,3.82,4.23,10.76,3.21,17.6a75.11,75.11,0,0,1-4.79,16.76c-1.31,3.24-2.06,5.6-2.06,7.33a5.09,5.09,0,0,0,0,.58,4.8,4.8,0,0,0,.11.57,1.73,1.73,0,0,0,.14.42,2.69,2.69,0,0,0,.33.6,1.4,1.4,0,0,0,.27.33,1.48,1.48,0,0,0,.31.3.59.59,0,0,0,.18.14,3.74,3.74,0,0,0,.92.55,4.68,4.68,0,0,0,.56.23,14,14,0,0,0,2.94.7c.28.06.58.09.9.13.94.12,2,.23,3.17.31l1.43.13c.67.05,1.3.12,1.9.21a4.58,4.58,0,0,1,.55.07l.32.07.79.14.86.21.22.06a3.56,3.56,0,0,1,.74.24,3.71,3.71,0,0,1,.68.27l.11.05c.23.12.44.23.63.35a4.92,4.92,0,0,1,.55.41l0,0a2.62,2.62,0,0,1,.46.48,4.16,4.16,0,0,1,.69,1.11,2,2,0,0,1,.19.56,2.61,2.61,0,0,1,.14.55.2.2,0,0,1,0,.14,3.85,3.85,0,0,1,.07.49,2.84,2.84,0,0,1,.07.66c0,.3,0,.61,0,1a38.25,38.25,0,0,1-.55,5.62c-1.94,12.67-6.36,24.25-14.86,34.1-1.81,2.11-3.24,4.54-5.86,8.3,5.42.12,9.12.3,12.83.28.52,0,1,0,1.53,0a18.46,18.46,0,0,1,1.9.16,1.45,1.45,0,0,1,.3,0,8,8,0,0,1,1,.21c.16,0,.32.07.46.12a8.23,8.23,0,0,1,2.1.87c.17.1.33.23.49.33s.09.07.12.11a2.14,2.14,0,0,1,.44.4,4.72,4.72,0,0,1,.41.48,4.12,4.12,0,0,1,.35.54c.09.2.18.39.27.6a3.82,3.82,0,0,1,.19.66,7.16,7.16,0,0,1,.12.74c0,.23,0,.45,0,.7a14.17,14.17,0,0,1-1.11,4.95c-3,7.67-8.06,14.52-12.34,21.68-1,1.65-2.46,3-4.76,5.78L681,646.68c-1.13,16.69-10,27-29.26,31.21,5.77,2.7,8.73,4.6,11.95,5.48,7.3,2,7.51,6.19,4.46,11.79-5.09,9.33-10.27,18.54-21.85,21.33a58.86,58.86,0,0,0-5.68,2c.07,1,.16,2.08.23,3.12l15.88,7.75c-3.65,14-17.06,21.73-41.91,25.18l18.68,8.64c-4.33,15.7-18.6,14.94-31.59,16.6,6.06,7.35,3.45,15.84-5.69,17.9-7.74,1.76-15.95,1.45-23.6,2,2.87,4.83,4,7.81,2.82,9.83-24.69,10.31-55.56,8.37-74.88-9-14.45,39-10.5,79.14-2.06,118.38,2.82,13.15,6.13,26.19,9.45,39.07q1.81,7.39,3.75,14.7c1.39,5.21,2.89,10.45,4.48,15.66,2.11-.16,4.24-.35,6.36-.56-1.29-3.89-2.5-7.81-3.67-11.7-1.55-5.16-3-10.33-4.39-15.51-3.47-14-7.08-28-10.13-42-7.42-34.29-11.44-68.92-1.85-104.52a146.06,146.06,0,0,0,73.45,4.92,12.56,12.56,0,0,0,6.87-6.31,11.68,11.68,0,0,0,1.08-5.46,80.44,80.44,0,0,0,14.08-1.69c7-1.59,12.23-6,14.29-12a17,17,0,0,0,.88-6.93c11-1.48,23.6-5.06,28.07-21.27l1.82-6.56L639.09,757c11.54-4.43,21.79-12,25.35-25.57L666.1,725l-5.9-2.87-3.05-1.5c9.07-5.3,13.92-14.2,18-21.67,1.13-2,4.55-8.32,1.8-14.75a13.26,13.26,0,0,0-5-5.89c10.35-6.8,16.06-17.22,17-31.12l.4-6.13-5.79-2-2.81-1,2.1-3.34C686.28,629.45,689.82,623.88,692.25,617.57Z"/><path class="cls-4" d="M672.46,636.36c-1,1.65-2.46,3-4.76,5.78L681,646.68c-1.13,16.69-10,27-29.26,31.21,5.77,2.7,8.73,4.6,11.95,5.48,7.3,2,7.51,6.19,4.46,11.79-5.09,9.33-10.27,18.54-21.85,21.33a58.86,58.86,0,0,0-5.68,2c.07,1,.16,2.08.23,3.12l15.88,7.75c-3.65,14-17.06,21.73-41.91,25.18l18.68,8.64c-4.33,15.7-18.6,14.94-31.59,16.6,6.06,7.35,3.45,15.84-5.69,17.9-7.74,1.76-15.95,1.45-23.6,2,2.87,4.83,4,7.81,2.82,9.83-24.69,10.31-55.56,8.37-74.88-9-14.45,39-10.5,79.14-2.06,118.38,2.82,13.15,6.13,26.19,9.45,39.07q1.81,7.39,3.75,14.7c1.39,5.21,2.89,10.45,4.48,15.66q-9.76.82-19.58,1.24-1.87-10.08-3.42-20.2-1.06-6.9-2-13.85a303.2,303.2,0,0,0-4.25-36.14c-6.17-37.22-15.4-74.74-3.75-111.15-5.36-1.53-8.29,1.8-11.12,5.34-3.09,3.88-6.06,8-11.95,6.33-2.29-.65-5-2.2-8.42-5-3.81.57-7.46,1.15-11,1.66s-7,1-10.55,1.23H430a.29.29,0,0,1-.16-.06.3.3,0,0,1-.17-.12,2.81,2.81,0,0,1-.34-.3c-.68-.79-1.49-2.29-2.46-2.63l-.23-.07h-.35c-7.14-2.18-14.38-4-21.22-6.9-.92-.39.3-5.8.61-10.24-8.88-4.57-22.94-1.34-28.95-16.36,3.23-1,6.54-2,9.85-3-.16-.84-.31-1.69-.49-2.53-1-.13-1.94-.23-2.89-.37-1.5-.2-3-.41-4.42-.67l-2.21-.41-1.21-.26c-.41-.09-.81-.18-1.22-.29-1.2-.28-2.38-.61-3.52-1-.39-.13-.78-.25-1.15-.39s-.74-.26-1.11-.41-.67-.26-1-.4a26.85,26.85,0,0,1-7.27-4.42c-.27-.23-.51-.46-.76-.69a21.06,21.06,0,0,1-2-2.13c-.17-.21-.33-.43-.49-.64s-.26-.37-.4-.56a21.75,21.75,0,0,1-1.91-3.24c-.14-.27-.26-.53-.37-.8s-.28-.63-.42-1-.3-.76-.44-1.16a32.14,32.14,0,0,1-1.32-5.08l17.81-2.15c-14.48-7.43-29.62-9.9-34.36-26.29l12.2-5c-6.35-7.65-13.89-14.29-18.26-22.59-5.38-10.24-1.82-14,9.85-13.32,1.59.1,3.19-.07,6.61-.18-14.49-8.42-28.15-15.47-26.59-32.92l19.91-.79c-12.55-13.76-21.71-26.56-16.92-44.44,5.8.42,11.12.83,18.86,1.39-14.21-16.09-12.21-33-10.54-49.94a10.71,10.71,0,0,1,.93-3.7,5.14,5.14,0,0,1,.53-.83,4,4,0,0,1,3.28-1.45c.25,0,.49,0,.74,0s.53.07.79.12a13.1,13.1,0,0,1,2,.53c4.58,1.52,9.29,2.66,16.34,4.65-12.83-21-4.94-38.45,1.41-56,9.13,5.26,17.57,10.13,27.28,15.75-3.63-11.79-7-21.41-9.47-31.24-1.11-4.45-.93-9.31-.68-14,.47-9.31,1.19-12.83,5.26-12.83.27,0,.55,0,.85.05a8.62,8.62,0,0,1,.95.13h0l1,.22c.39.09.81.2,1.24.32l1.18.35.86.29,1.13.38,2.5.89c4.62,1.67,9.37,2.94,16.18,5-7.88-19.49-10.08-37.86-3.6-56.15l24.32,7.12c-1.2-14.82-2.11-27.49-3.28-40.13-.56-6.18,1.27-8.84,6-8.84a12.18,12.18,0,0,1,1.32.07c.44,0,.92.09,1.43.17h0l1,.18c.42.09.83.16,1.22.23l1.11.21,2,.35.9.13c2.66.35,4.18.23,4.9-.76a1.92,1.92,0,0,0,.28-.51c.62-1.57.09-4.58-.88-9.78-.16-.86-.3-1.73-.44-2.59-2.25-15.67-1.6-16.36,13.92-14.82a11.07,11.07,0,0,0,2.61-.34c-1-9.32-2.29-18.5-2.84-27.72-.72-12.16.64-15.1,9.7-14.24l.79.09a1.26,1.26,0,0,1,.28,0c.56.05,1.15.12,1.76.23.3,0,.62.08.94.14.56.09,1.14.17,1.74.28,1.13.19,2.27.26,3.58.35.65,0,1.32.07,2.06.14.93-11.64,1.83-22.94,2.78-34.91l13.42,6.88c.4-10.93.91-20.38,1-29.82.09-5.62,1.62-9,8.21-8.18,5.86.76,6.93-2.29,5.82-7.52-2.36-11.14,1.18-20.36,9.66-28.34-1.36,6.45-3.3,12.14-3.42,17.87-.05,2.4,3.73,4.9,5.78,7.35,1.44-2.4,3.28-4.64,4.28-7.21,3.77-9.71,7.23-19.52,10.89-29.29,5-13.39,10-26.8,15.37-40.07A11.4,11.4,0,0,1,553,141a25.22,25.22,0,0,0,2-1.81c.25.77.46,1.55.69,2.34v0a28.9,28.9,0,0,0,1.55,4.42c1.22,2.52,2.89,4.85,4.37,7.26,1.92-1.86,4.95-3.47,5.53-5.69.29-1.09.55-2.2.78-3.31a154.27,154.27,0,0,0,2.57-16.5c2.08-18.8,7.09-36.32,19.76-50.75a64.2,64.2,0,0,1,4.67-4.86c-.65,1.85-1.29,3.7-1.91,5.57-7.57,22.57-12.81,45.51-11.77,69.94q.13,3.71.48,7.45l10.34-2.53c-.76,18-1.48,35.2-2.2,52.62,0,0,0,0-.05,0s-.09,0-.09,0l0,0,.07,0,.21.07a1,1,0,0,0,.47,0c3.53-1.37,6.49-1.95,8.89-1.69a4.61,4.61,0,0,1,.77.11.92.92,0,0,1,.32.07,1.9,1.9,0,0,1,.46.1,1.72,1.72,0,0,1,.4.14,3.12,3.12,0,0,1,.48.18,3.92,3.92,0,0,1,.65.32,3.48,3.48,0,0,1,.48.3,4.26,4.26,0,0,1,.63.49,3.82,3.82,0,0,1,.58.56,4.23,4.23,0,0,1,.58.73,4.6,4.6,0,0,1,.5.77,2.25,2.25,0,0,1,.12.21,7.6,7.6,0,0,1,.37.76,8.31,8.31,0,0,1,.4,1c.13.35.23.74.34,1.13s.16.65.23,1a23.14,23.14,0,0,1,.4,3q.06.73.09,1.53c.23,6.91-1.81,13.84-2.38,20.8-.31,3.8.3,7.7.51,11.56,4-.5,8-1,14.33-1.75-.92,6.79-1.74,14.47-3,22.1-2.14,12.94-4.8,25.8-6.51,38.79-.19,1.55,3.93,4.63,6.51,5.34a6.33,6.33,0,0,0,1,.21c.16,0,.31.07.49.09a4.85,4.85,0,0,0,.53.08c.35.06.7.11,1.07.15.73.07,1.5.14,2.28.17,1.34.09,2.69.13,3.94.21.22,0,.43,0,.64,0,.47,0,.92.05,1.34.1l.84.11a3.92,3.92,0,0,1,1.92.65.46.46,0,0,1,.15.16.49.49,0,0,1,.08.18,60,60,0,0,1,2,23.61c-1.36,10.35-5.27,20.32-7.32,30.61s2.08,18.47,8.83,25.43l3.44-.41c0-8.31,0-16.61-.07-25.18,8.12,7.84,15.74,16,12.32,28-2.84,10-7.3,19.56-11.4,30.24,8.15,1.73,16.21,3.42,26.08,5.5,3.15,26-6.81,49.43-18.44,74.36,6.63-1.65,13.26-3.29,21.57-5.37,3.86,3.82,4.23,10.76,3.21,17.6a75.11,75.11,0,0,1-4.79,16.76c-1.31,3.24-2.06,5.6-2.06,7.33a5.09,5.09,0,0,0,0,.58,4.8,4.8,0,0,0,.11.57,1.73,1.73,0,0,0,.14.42,2.69,2.69,0,0,0,.33.6,1.4,1.4,0,0,0,.27.33,1.48,1.48,0,0,0,.31.3.59.59,0,0,0,.18.14,3.74,3.74,0,0,0,.92.55,4.68,4.68,0,0,0,.56.23,14,14,0,0,0,2.94.7c.28.06.58.09.9.13.94.12,2,.23,3.17.31l1.43.13,1.9.21c.3,0,.59.09.87.14l.79.14.86.21.22.06a7.14,7.14,0,0,1,.74.24,3.71,3.71,0,0,1,.68.27l.11.05c.23.12.44.23.63.35s.37.27.55.41l0,0a3.51,3.51,0,0,1,.46.48,4.16,4.16,0,0,1,.69,1.11,2,2,0,0,1,.19.56,2.61,2.61,0,0,1,.14.55.2.2,0,0,1,0,.14,3.85,3.85,0,0,1,.07.49,2.84,2.84,0,0,1,.07.66c0,.3,0,.61,0,1a38.25,38.25,0,0,1-.55,5.62c-1.94,12.67-6.36,24.25-14.86,34.1-1.81,2.11-3.24,4.54-5.86,8.3,5.42.12,9.12.3,12.83.28.52,0,1,0,1.53,0a18.46,18.46,0,0,1,1.9.16c.48.07.92.16,1.34.25l.46.12a8.23,8.23,0,0,1,2.1.87c.17.1.33.23.49.33s.09.07.12.11a4.18,4.18,0,0,1,.44.4,4.72,4.72,0,0,1,.41.48,4.12,4.12,0,0,1,.35.54c.09.2.18.39.27.6a5,5,0,0,1,.19.66,7.16,7.16,0,0,1,.12.74c0,.23,0,.45,0,.7a14.17,14.17,0,0,1-1.11,4.95C681.82,622.35,676.74,629.2,672.46,636.36Z"/></g><path class="cls-2" d="M502.5,990A465.47,465.47,0,0,1,73.87,707a459.15,459.15,0,0,1-36.6-180.46h70.49c0,216.68,177.08,393,394.74,393s394.74-176.29,394.74-393h70.49a464.18,464.18,0,0,1-284.18,427A463.75,463.75,0,0,1,502.5,990Z"/></g></g></svg>