<svg xmlns="http://www.w3.org/2000/svg" viewBox="0 0 671 360"><defs><style>.cls-1{fill:#ffdf5e;}.cls-2{fill:#59d19f;}</style></defs><title>DigiAn</title><g id="Layer_2" data-name="Layer 2"><g id="Layer_5" data-name="Layer 5"><g id="_Group_" data-name="&lt;Group&gt;"><path class="cls-1" d="M360,179.5v.5A180,180,0,0,1,180,360q-2.37,0-4.74-.06l-21-47,26-48A85,85,0,0,0,265,180c0-.16,0-.33,0-.49h.51l48.16,27.76L359.5,179.5Z"/><path class="cls-2" d="M360,179.5h-.5l-45.84,27.76L265.5,179.5H265A85,85,0,0,0,180,95c-1.5,0-3,0-4.46.12l0-.62,30-48.7L175.29.06Q177.65,0,180,0A180,180,0,0,1,360,179.5Z"/><path class="cls-1" d="M175.29.06,205.5,45.8l-30,48.7,0,.62A85,85,0,0,0,95,179.22l-47.78-27L.5,179.5H0A180,180,0,0,1,175.29.06Z"/><path class="cls-2" d="M180.23,265l-26,48,21,47A180,180,0,0,1,0,180v-.5H.5l46.73-27.26,47.78,27c0,.26,0,.52,0,.78a85,85,0,0,0,85,85Z"/></g><g id="_Group_2" data-name="&lt;Group&gt;"><polygon class="cls-2" points="623.65 90 671 180 623.65 268 559 268 559 90 623.65 90"/><rect class="cls-1" x="429" y="90" width="130" height="178"/><path class="cls-2" d="M429,90V268H351.91c11.89-26.48,18.7-57.22,18.7-90,0-32-6.47-62-17.82-88Z"/></g><path d="M241,87.41c-.14-2.68-.31-5.9-.28-8.29h-.09c-.66,2.25-1.45,4.64-2.42,7.29l-3.39,9.31H233l-3.1-9.14c-.91-2.7-1.68-5.18-2.22-7.46h-.06c-.06,2.39-.2,5.61-.37,8.49l-.51,8.22h-2.37l1.34-19.19h3.16l3.28,9.29c.8,2.36,1.45,4.47,1.93,6.46h.09c.48-1.94,1.17-4,2-6.46l3.42-9.29h3.16l1.19,19.19h-2.42Z"/><path d="M249.23,89.4c.06,3.39,2.22,4.78,4.73,4.78a9,9,0,0,0,3.81-.71l.43,1.79a11.11,11.11,0,0,1-4.59.86c-4.24,0-6.77-2.79-6.77-7s2.45-7.43,6.46-7.43c4.5,0,5.7,4,5.7,6.49a9.13,9.13,0,0,1-.09,1.17Zm7.35-1.79c0-1.6-.66-4.08-3.48-4.08-2.53,0-3.64,2.34-3.84,4.08Z"/><path d="M269.73,95.83l-.2-1.73h-.08a5.14,5.14,0,0,1-4.22,2.05,3.93,3.93,0,0,1-4.21-4c0-3.33,3-5.15,8.28-5.13v-.28a2.84,2.84,0,0,0-3.13-3.19,6.85,6.85,0,0,0-3.59,1L262,83a8.56,8.56,0,0,1,4.53-1.22c4.22,0,5.24,2.88,5.24,5.64v5.15a19.41,19.41,0,0,0,.23,3.3Zm-.37-7c-2.73-.06-5.84.43-5.84,3.1a2.23,2.23,0,0,0,2.37,2.4A3.43,3.43,0,0,0,269.22,92a2.8,2.8,0,0,0,.14-.8Z"/><path d="M275.48,93.27a6.51,6.51,0,0,0,3.31,1c1.82,0,2.67-.91,2.67-2s-.71-1.85-2.56-2.54c-2.48-.88-3.65-2.25-3.65-3.9,0-2.22,1.8-4,4.76-4a7,7,0,0,1,3.39.85l-.63,1.83a5.29,5.29,0,0,0-2.82-.8c-1.48,0-2.3.85-2.3,1.88s.82,1.65,2.62,2.33c2.39.91,3.61,2.11,3.61,4.16,0,2.42-1.88,4.13-5.15,4.13a7.82,7.82,0,0,1-3.87-.94Z"/><path d="M298.63,92.08c0,1.42,0,2.67.11,3.75h-2.22l-.14-2.25h-.06a5.15,5.15,0,0,1-4.55,2.57c-2.17,0-4.76-1.2-4.76-6V82.05h2.51v7.63c0,2.62.8,4.39,3.07,4.39a3.64,3.64,0,0,0,3.31-2.28,3.69,3.69,0,0,0,.23-1.28V82.05h2.5Z"/><path d="M302.79,86.35c0-1.62,0-3-.12-4.3h2.2l.08,2.71h.12a4.13,4.13,0,0,1,3.81-3,2.5,2.5,0,0,1,.71.09v2.36a3.43,3.43,0,0,0-4.21,3.13,6.69,6.69,0,0,0-.12,1.17v7.34h-2.47Z"/><path d="M313.21,89.4c.06,3.39,2.22,4.78,4.73,4.78a9,9,0,0,0,3.81-.71l.43,1.79a11.15,11.15,0,0,1-4.59.86c-4.24,0-6.77-2.79-6.77-7s2.45-7.43,6.46-7.43c4.5,0,5.7,4,5.7,6.49a9.13,9.13,0,0,1-.09,1.17Zm7.34-1.79c0-1.6-.65-4.08-3.47-4.08-2.53,0-3.64,2.34-3.84,4.08Z"/><path d="M435.74,163.72v29.69h-3.83V163.72Z"/><path d="M442.74,177.86c0-2.21,0-4-.17-5.77H446l.18,3.43h.13A7.36,7.36,0,0,1,453,171.6a6.31,6.31,0,0,1,6,4.27h.09a8.74,8.74,0,0,1,2.38-2.77,7.24,7.24,0,0,1,4.71-1.5c2.82,0,7,1.85,7,9.25v12.56H469.4V181.34c0-4.1-1.5-6.57-4.63-6.57a5,5,0,0,0-4.58,3.53,6.26,6.26,0,0,0-.31,1.94v13.17h-3.79V180.63c0-3.39-1.5-5.86-4.45-5.86a5.79,5.79,0,0,0-5.11,5.77v12.87h-3.79Z"/><path d="M479.49,179.05c0-2.74-.09-4.94-.18-7h3.48l.18,3.65h.08a8.39,8.39,0,0,1,7.58-4.14c5.15,0,9,4.36,9,10.84,0,7.66-4.67,11.45-9.69,11.45a7.45,7.45,0,0,1-6.56-3.35h-.09v11.59h-3.83Zm3.83,5.68a9.44,9.44,0,0,0,.17,1.58,6,6,0,0,0,5.82,4.54c4.1,0,6.47-3.35,6.47-8.24,0-4.27-2.24-7.92-6.34-7.92a6.19,6.19,0,0,0-5.86,4.8,6.29,6.29,0,0,0-.26,1.58Z"/><path d="M504.55,178.74c0-2.51,0-4.67-.17-6.65h3.39l.13,4.18h.18a6.39,6.39,0,0,1,5.9-4.67,4.55,4.55,0,0,1,1.1.13v3.66a5.72,5.72,0,0,0-1.32-.13c-2.73,0-4.67,2.07-5.2,5a10.53,10.53,0,0,0-.18,1.8v11.37h-3.83Z"/><path d="M537.81,182.57c0,7.89-5.46,11.32-10.61,11.32-5.78,0-10.22-4.23-10.22-11,0-7.13,4.67-11.32,10.57-11.32C533.67,171.6,537.81,176.05,537.81,182.57Zm-16.91.22c0,4.67,2.68,8.19,6.47,8.19s6.48-3.48,6.48-8.28c0-3.61-1.81-8.19-6.39-8.19S520.9,178.74,520.9,182.79Z"/><path d="M543.89,172.09l4.19,12a56.31,56.31,0,0,1,1.72,5.46h.13c.48-1.76,1.1-3.52,1.8-5.46l4.15-12h4l-8.37,21.32h-3.7l-8.11-21.32Z"/><path d="M565.3,183.45c.09,5.24,3.44,7.4,7.32,7.4a14,14,0,0,0,5.9-1.1l.66,2.78a17.4,17.4,0,0,1-7.09,1.32c-6.57,0-10.49-4.32-10.49-10.75s3.79-11.5,10-11.5c7,0,8.81,6.12,8.81,10.05a13.44,13.44,0,0,1-.13,1.8Zm11.37-2.77c0-2.47-1-6.3-5.38-6.3-3.92,0-5.63,3.61-5.94,6.3Z"/><path d="M64.5,77.75H58.67V75.64h14.2v2.11H67V94.83H64.5Z"/><path d="M74.3,88.4c0,3.39,2.22,4.78,4.72,4.78a9,9,0,0,0,3.82-.71l.43,1.79a11.19,11.19,0,0,1-4.59.86c-4.24,0-6.77-2.79-6.77-7s2.44-7.43,6.46-7.43c4.5,0,5.69,4,5.69,6.49A9.52,9.52,0,0,1,84,88.4Zm7.34-1.79c0-1.6-.65-4.08-3.47-4.08-2.54,0-3.65,2.34-3.84,4.08Z"/><path d="M86.83,92.27a6.51,6.51,0,0,0,3.3,1c1.82,0,2.67-.91,2.67-2s-.71-1.85-2.56-2.54c-2.48-.88-3.64-2.25-3.64-3.9,0-2.22,1.79-4,4.75-4a6.94,6.94,0,0,1,3.39.85l-.63,1.83a5.26,5.26,0,0,0-2.82-.8c-1.48,0-2.3.85-2.3,1.88s.82,1.65,2.62,2.33c2.39.91,3.61,2.11,3.61,4.16,0,2.42-1.88,4.13-5.15,4.13a7.85,7.85,0,0,1-3.87-.94Z"/><path d="M101.46,77.1v4h3.59V83h-3.59v7.43c0,1.71.48,2.68,1.88,2.68a5.82,5.82,0,0,0,1.45-.17l.12,1.88a6.2,6.2,0,0,1-2.23.34,3.48,3.48,0,0,1-2.7-1.05,5.14,5.14,0,0,1-1-3.59V83H96.88V81.05H99v-3.3Z"/><path d="M49.86,257.9a25.38,25.38,0,0,1,4.75-.4c2.65,0,4.36.48,5.55,1.57a4.76,4.76,0,0,1,1.51,3.64,5,5,0,0,1-3.61,4.9v.08c1.48.52,2.36,1.88,2.82,3.88a29.86,29.86,0,0,0,1.48,5.26H59.79a25,25,0,0,1-1.28-4.58c-.57-2.65-1.59-3.64-3.84-3.73H52.33v8.31H49.86Zm2.47,8.74h2.54c2.65,0,4.33-1.45,4.33-3.64,0-2.48-1.8-3.56-4.42-3.59a9.9,9.9,0,0,0-2.45.23Z"/><path d="M66.6,270.4c.06,3.39,2.22,4.78,4.73,4.78a9,9,0,0,0,3.81-.71l.43,1.79a11.11,11.11,0,0,1-4.59.86c-4.24,0-6.77-2.79-6.77-6.95s2.45-7.43,6.46-7.43c4.5,0,5.7,4,5.7,6.49a9.13,9.13,0,0,1-.09,1.17ZM74,268.61c0-1.6-.66-4.08-3.48-4.08-2.53,0-3.64,2.34-3.84,4.08Z"/><path d="M79.47,267.55c0-1.76-.06-3.19-.11-4.5H81.6l.12,2.37h.06a5.4,5.4,0,0,1,4.89-2.68c3.33,0,5.84,2.82,5.84,7,0,5-3,7.41-6.26,7.41A4.84,4.84,0,0,1,82,275h0v7.49H79.47ZM82,271.22a5.42,5.42,0,0,0,.11,1,3.86,3.86,0,0,0,3.76,2.93c2.65,0,4.18-2.16,4.18-5.32,0-2.76-1.45-5.13-4.1-5.13a4,4,0,0,0-3.78,3.11,3.82,3.82,0,0,0-.17,1Z"/><path d="M108.14,269.83c0,5.1-3.53,7.32-6.86,7.32-3.73,0-6.61-2.74-6.61-7.09,0-4.62,3-7.32,6.84-7.32S108.14,265.62,108.14,269.83ZM97.21,270c0,3,1.73,5.3,4.18,5.3s4.19-2.25,4.19-5.35c0-2.34-1.17-5.3-4.13-5.3S97.21,267.35,97.21,270Z"/><path d="M111.3,267.35c0-1.62,0-3-.11-4.3h2.19l.09,2.71h.11a4.15,4.15,0,0,1,3.82-3,2.6,2.6,0,0,1,.71.09v2.36a3.66,3.66,0,0,0-.86-.09,3.52,3.52,0,0,0-3.36,3.22,7.9,7.9,0,0,0-.11,1.17v7.34H111.3Z"/><path d="M124.31,259.1v3.95h3.59V265h-3.59v7.43c0,1.71.49,2.68,1.88,2.68a5.76,5.76,0,0,0,1.45-.17l.12,1.88a6.13,6.13,0,0,1-2.22.34,3.49,3.49,0,0,1-2.71-1.05,5.14,5.14,0,0,1-1-3.59V265h-2.14v-1.91h2.14v-3.3Z"/><path d="M228,270.8l-2,6h-2.56l6.52-19.19h3l6.54,19.19h-2.64l-2-6Zm6.29-1.94-1.88-5.52c-.42-1.26-.71-2.39-1-3.5h-.06c-.28,1.13-.6,2.3-1,3.47l-1.88,5.55Z"/><path d="M242.11,266.78c0-1.42,0-2.59-.11-3.73h2.22l.14,2.28h.06a5.06,5.06,0,0,1,4.55-2.59c1.91,0,4.87,1.14,4.87,5.87v8.22h-2.5v-7.94c0-2.22-.83-4.07-3.19-4.07a3.57,3.57,0,0,0-3.36,2.56,3.44,3.44,0,0,0-.17,1.17v8.28h-2.51Z"/><path d="M265.54,276.83l-.19-1.73h-.09a5.14,5.14,0,0,1-4.21,2,3.94,3.94,0,0,1-4.22-4c0-3.33,3-5.15,8.29-5.13v-.28a2.84,2.84,0,0,0-3.13-3.19,6.85,6.85,0,0,0-3.59,1l-.57-1.66a8.56,8.56,0,0,1,4.53-1.22c4.21,0,5.24,2.88,5.24,5.64v5.15a19.48,19.48,0,0,0,.22,3.3Zm-.37-7c-2.73-.06-5.83.43-5.83,3.1a2.22,2.22,0,0,0,2.36,2.4A3.42,3.42,0,0,0,265,273a2.5,2.5,0,0,0,.14-.8Z"/><path d="M271.64,256.62h2.5v20.21h-2.5Z"/><path d="M279.27,263.05l3,8.15c.31.91.65,2,.88,2.82h.06c.25-.83.54-1.88.88-2.88l2.73-8.09h2.65l-3.76,9.83c-1.79,4.72-3,7.14-4.72,8.62a6.82,6.82,0,0,1-3.08,1.63l-.62-2.11a6.65,6.65,0,0,0,2.19-1.23,7.44,7.44,0,0,0,2.1-2.79,1.62,1.62,0,0,0,.2-.59,2,2,0,0,0-.17-.66l-5.09-12.7Z"/><path d="M291.26,274.27a6.51,6.51,0,0,0,3.3,1c1.82,0,2.68-.91,2.68-2s-.72-1.85-2.57-2.54c-2.47-.88-3.64-2.25-3.64-3.9,0-2.22,1.79-4,4.75-4a6.94,6.94,0,0,1,3.39.85l-.62,1.83a5.32,5.32,0,0,0-2.82-.8c-1.48,0-2.31.85-2.31,1.88s.83,1.65,2.62,2.33c2.39.91,3.62,2.11,3.62,4.16,0,2.42-1.88,4.13-5.16,4.13a7.85,7.85,0,0,1-3.87-.94Z"/><path d="M304.27,270.4c.06,3.39,2.22,4.78,4.73,4.78a9,9,0,0,0,3.81-.71l.43,1.79a11.15,11.15,0,0,1-4.59.86c-4.24,0-6.77-2.79-6.77-6.95s2.45-7.43,6.46-7.43c4.5,0,5.7,4,5.7,6.49a9.13,9.13,0,0,1-.09,1.17Zm7.34-1.79c0-1.6-.65-4.08-3.47-4.08-2.53,0-3.64,2.34-3.84,4.08Z"/></g></g></svg>