<svg xmlns="http://www.w3.org/2000/svg" width="76.751" height="76.75" viewBox="0 0 76.751 76.75">
  <defs>
    <style>
      .cls-1 {
        fill: #9fd268;
      }
    </style>
  </defs>
  <path id="Icon_metro-calculator" data-name="Icon metro-calculator" class="cls-1" d="M33.271,3.856H7.687A5.132,5.132,0,0,0,2.571,8.973V34.556a5.132,5.132,0,0,0,5.117,5.117H33.271a5.132,5.132,0,0,0,5.117-5.117V8.973a5.132,5.132,0,0,0-5.117-5.117Zm0,20.467H7.687V19.206H33.271ZM74.2,3.856H48.621A5.132,5.132,0,0,0,43.5,8.973V75.49a5.132,5.132,0,0,0,5.117,5.117H74.2a5.132,5.132,0,0,0,5.117-5.117V8.973A5.132,5.132,0,0,0,74.2,3.856Zm0,46.05H48.621V44.79H74.2Zm0-15.35H48.621V29.44H74.2ZM33.271,44.79H7.687a5.132,5.132,0,0,0-5.117,5.117V75.49a5.132,5.132,0,0,0,5.117,5.117H33.271a5.132,5.132,0,0,0,5.117-5.117V49.906a5.132,5.132,0,0,0-5.117-5.117Zm0,20.467H23.038V75.49H17.921V65.256H7.687V60.14H17.921V49.906h5.117V60.14H33.271v5.117Z" transform="translate(-2.571 -3.856)"/>
</svg>
