<svg xmlns="http://www.w3.org/2000/svg" width="57.695" height="57.694" viewBox="0 0 57.695 57.694"><defs><style>.a{fill:#f0e;}</style></defs><g transform="translate(0 0)"><path class="a" d="M28.882,0A28.847,28.847,0,1,1,0,28.8,28.847,28.847,0,0,1,28.882,0ZM55.214,28.888a26.361,26.361,0,1,0-7.756,18.64,26.366,26.366,0,0,0,7.756-18.64Z" transform="translate(0 0)"/><path class="a" d="M41.562,53.061a11.441,11.441,0,1,1,8.145-3.308,11.475,11.475,0,0,1-8.145,3.308ZM50.6,41.632A8.983,8.983,0,1,0,47.931,48,9.006,9.006,0,0,0,50.6,41.632Z" transform="translate(-12.755 -12.738)"/><path class="a" d="M75.275,23.625a2.383,2.383,0,0,1-2.412,2.354,2.475,2.475,0,0,1-2.515-2.6A2.429,2.429,0,0,1,72.759,21a2.5,2.5,0,0,1,2.515,2.625Z" transform="translate(-29.759 -8.884)"/></g></svg>