<svg xmlns="http://www.w3.org/2000/svg" width="57.35" height="57.654" viewBox="0 0 57.35 57.654"><defs><style>.a{fill:#0054a8;}</style></defs><g transform="translate(0 0)"><path class="a" d="M0,27.394c.115-.888.208-1.783.34-2.671A28.357,28.357,0,0,1,10.633,6.538,27.924,27.924,0,0,1,25.114.272,28.847,28.847,0,0,1,35.771,56.836c-1.662.415-3.4.531-5.106.79a4.31,4.31,0,0,0-.438.1H27.515c-.8-.087-1.6-.162-2.4-.271A28.847,28.847,0,0,1,.34,33C.208,32.108.115,31.219,0,30.325ZM28.888,1.761A27.082,27.082,0,1,0,55.964,28.877,27.083,27.083,0,0,0,28.888,1.761Z" transform="translate(0 -0.071)"/><path class="a" d="M48.658,55.839H43.466c-.335,0-.352-.2-.346-.444V39.506c0-.162.173-.462.277-.467h5.244v2.337a3.2,3.2,0,0,0,.277-.306c1.564-2.21,3.756-2.764,6.271-2.308a5.569,5.569,0,0,1,4.517,4.281,8.81,8.81,0,0,1,.4,2.377c.046,3.462,0,6.871,0,10.385H55.247c-.508,0-.675-.121-.669-.652q.04-4.039,0-8.112a7.921,7.921,0,0,0-.231-2.06A2.746,2.746,0,0,0,49.9,43.568a3.041,3.041,0,0,0-1.246,2.469v9.8Z" transform="translate(-18.242 -16.377)"/><path class="a" d="M28,56.081V39.35h4.985c.392,0,.525.133.525.519V55.654c0,.26,0,.531-.387.531H28.167a.612.612,0,0,1-.167-.1Z" transform="translate(-11.846 -16.688)"/><path class="a" d="M30.524,31.015a2.894,2.894,0,1,1,.04-5.769,2.894,2.894,0,1,1-.04,5.769Z" transform="translate(-11.6 -10.718)"/></g></svg>