<svg xmlns="http://www.w3.org/2000/svg" viewBox="0 0 100 99.98"><defs><style>.cls-1{fill:#FF0000;}</style></defs><title>Youtube</title><g id="Layer_2" data-name="Layer 2"><g id="Layer_1-2" data-name="Layer 1"><path class="cls-1" d="M100,49c.44,27.64-21.53,50.54-48.86,51C23.32,100.4.45,78.47,0,51.05a50,50,0,1,1,100-2ZM50,96.1A46.11,46.11,0,1,0,3.89,50,46.07,46.07,0,0,0,50,96.1Z"/><path class="cls-1" d="M50.17,68.81c-5.85-.23-11.68-.45-17.51-.71a12.06,12.06,0,0,1-2.45-.41A5.45,5.45,0,0,1,26.06,64a20.22,20.22,0,0,1-1-4.66,134.46,134.46,0,0,1,.09-20,12.72,12.72,0,0,1,.29-1.85c.82-3.69,3.14-5.6,6.94-5.84a273.59,273.59,0,0,1,35.07,0c4.26.27,6.89,2.75,7.3,7.31a126.7,126.7,0,0,1,0,21.95,12,12,0,0,1-.85,3.31c-1,2.62-3.21,3.75-5.89,3.88C62.08,68.38,56.12,68.58,50.17,68.81Zm8.61-19.38L45,41.93V56.87Z"/></g></g></svg>