<svg xmlns="http://www.w3.org/2000/svg" width="57.704" height="57.675" viewBox="0 0 57.704 57.675"><defs><style>.a{fill:#646464;}</style></defs><g transform="translate(0 0)"><path class="a" d="M57.69,28.287a28.275,28.275,0,1,0,0,.029ZM28.843,55.461a26.58,26.58,0,1,0-18.817-7.784A26.6,26.6,0,0,0,28.843,55.461Z" transform="translate(0.01 -0.04)"/><path class="a" d="M39.408,52.851c-3.375-.133-6.739-.26-10.1-.41a6.958,6.958,0,0,1-1.414-.237A3.144,3.144,0,0,1,25.5,50.076a11.666,11.666,0,0,1-.577-2.689,77.574,77.574,0,0,1,.052-11.539,7.339,7.339,0,0,1,.167-1.067,3.964,3.964,0,0,1,4-3.369,157.845,157.845,0,0,1,20.233,0,4.187,4.187,0,0,1,4.212,4.217,73.1,73.1,0,0,1,0,12.664,6.923,6.923,0,0,1-.49,1.91,3.51,3.51,0,0,1-3.4,2.239C46.279,52.6,42.841,52.719,39.408,52.851ZM44.376,41.67l-7.95-4.327v8.62Z" transform="translate(-10.457 -13.175)"/></g></svg>