<svg xmlns="http://www.w3.org/2000/svg" xmlns:xlink="http://www.w3.org/1999/xlink" viewBox="0 0 1000 1000"><defs><style>.cls-1{fill:#ffc648;}.cls-2{fill:#cca602;}.cls-3{fill:#f90;}.cls-4{fill:#945727;}.cls-5{fill:#885024;}.cls-6{fill:#dadcde;}.cls-7{fill:#995d2d;}.cls-8{fill:#945527;}.cls-9{fill:#8a5022;}.cls-10{fill:#905223;}.cls-11{fill:#f9f9f6;}.cls-12{fill:#824619;}.cls-13{fill:#904d1a;}.cls-14{fill:#854e24;}.cls-15{fill:#834717;}.cls-16{fill:#7d4316;}.cls-17{fill:#83430f;}.cls-18{fill:#8a5328;}.cls-19{fill:#8e5629;}.cls-20{fill:#895023;}.cls-21{fill:#dddcdd;}.cls-22{fill:#8f5529;}.cls-23{fill:#dcdee0;}.cls-24{fill:#ceb8af;}.cls-24,.cls-25{stroke:#000;stroke-width:0.6px;}.cls-24,.cls-25,.cls-26{stroke-miterlimit:10;}.cls-25{fill:#fff;}.cls-26{fill:none;stroke:#fff;stroke-width:0.97px;}.cls-27{fill:url(#radial-gradient);}.cls-28{fill:#773413;}</style><radialGradient id="radial-gradient" cx="-3554.82" cy="-2771.8" r="33.66" gradientTransform="matrix(-0.05, -0.99, -1.01, 0.06, -2683.5, -2782.28)" gradientUnits="userSpaceOnUse"><stop offset="0" stop-color="#54741e"/><stop offset="0.25" stop-color="#89a825"/><stop offset="0.5" stop-color="#f0af2f"/><stop offset="0.75" stop-color="#ee9a2f"/><stop offset="0.82" stop-color="#ef8527"/><stop offset="1" stop-color="#f15413"/></radialGradient></defs><title>Big Dark@Vector</title><g id="Big_Dark" data-name="Big Dark"><rect class="cls-1" width="1000" height="1000"/><g id="Wheat"><path class="cls-2" d="M406.25,358c.21-1.58.54-3.3.64-5,.29-4.62.47-9.27-1.38-13.67-1.27-3-2.72-3.2-4.62-.57a39.74,39.74,0,0,0-4.22,8.2c-2.15,5.16-4,10.44-5.64,15.78-.61,2-2.34,2.88-3.89,1.95a61.17,61.17,0,0,0-13.37-5.91,35.53,35.53,0,0,0-10.95-2.08c-3.05,0-3.82,1.39-2.29,4a16.31,16.31,0,0,0,3.38,3.94c6.78,6,14.51,10.56,22.54,14.64,1.21.62,2.55,1.31,3.86,1.07,1.81-.34,2,.63,2.4,1.94A218.64,218.64,0,0,1,388.16,520a247.8,247.8,0,0,1-10.36,24c-1.24,2.5-1.2,2.41,1.21,3.79,1.37.79,1.95.55,2.65-.86a237.43,237.43,0,0,0,18.53-50.36,221.62,221.62,0,0,0,2.93-90.51,229,229,0,0,0-6.06-25.84c-.16-.53-.94-1.27.24-1.73,1.75-.68,2.62-2.23,3.43-3.76C403.5,369.51,405,363.86,406.25,358ZM208.55,227.7c2.73.48,5.49.83,8.17,1.49,4.52,1.11,8.58.66,12-2.79a4.44,4.44,0,0,1,1.28-.84c1-.45.87-1,.37-1.77-1.23-1.89-2.4-3.82-3.53-5.76a2.72,2.72,0,0,0-1.79-1.32c-10.42-2.82-21-4-31.7-2.26-2.54.41-5.15.88-7.22,2.49a5.08,5.08,0,0,1-3.49,1.07,222.31,222.31,0,0,0-30.19,1.54c-.66.07-1.68-.24-1.48,1.13s1,.86,1.72.78a239.15,239.15,0,0,1,26.35-1.55c2.88,0,5.9-.5,8.17,2.07a3.79,3.79,0,0,0,1.36.69C195,225.42,201.77,226.55,208.55,227.7Zm8-31A257.12,257.12,0,0,0,186,194.07c-.59,0-1.57-.5-1.63.91s.76,1,1.47,1a280.57,280.57,0,0,1,30.91,2.66c2.17.3,3.94.69,4.21,3.29a4.57,4.57,0,0,0,.7,1.57c4,7.46,9.18,14.11,14.36,20.75a2.24,2.24,0,0,0,1.24.82c4.26,1.25,8.5,2.54,12.75,3.8,1.69.5,2.54-.13,2.62-1.91a7.08,7.08,0,0,0-1.16-4C243.23,209.48,233.5,197.93,216.56,196.69ZM208.61,246c2.76.11,5.59,1.41,8.56,1.09,11-1.19,20.86-5.64,30.56-10.58a6.73,6.73,0,0,0,2.34-2c1.05-1.43.77-2.56-.87-3.07-4-1.26-8-2.42-12-3.66a4,4,0,0,0-3,.24,67.35,67.35,0,0,0-16.2,10,19.48,19.48,0,0,0-5.06,5.49,1.55,1.55,0,0,1-2,.86A195,195,0,0,0,184.94,242c-.61,0-1.6-.65-1.73.76s.84,1.14,1.59,1.16A205.57,205.57,0,0,1,208.61,246Zm41.84-41.78c-3.07-.61-3.87.16-3.39,2.73a23,23,0,0,0,1.65,4.92,175.66,175.66,0,0,0,10.65,19.65,3.14,3.14,0,0,0,1.57,1.32c3.92,1.61,7.82,3.27,11.72,4.93,1.68.72,2.87,0,2.93-1.84a10.54,10.54,0,0,0-1-4.48c-4.06-9.35-9.69-17.52-17.86-23.79A18.46,18.46,0,0,0,250.45,204.23Zm46.69,43a12.37,12.37,0,0,0-.61-4.52,63.2,63.2,0,0,0-8.65-18,40,40,0,0,0-9.07-9.64,11.27,11.27,0,0,0-4.1-2.07c-1.46-.35-2.37.12-2.44,1.79a15.17,15.17,0,0,0,.73,4.73c2.12,7.63,5.4,14.81,8.64,22a3,3,0,0,0,1.47,1.43c3.58,2,7.17,4,10.74,6C295.61,250,296.75,249.44,297.14,247.21Zm20.15,12.85c0-.32,0-1.09,0-1.85-.41-5.11-2.11-9.89-4-14.59-2.55-6.38-6-12.22-11.15-16.89a9.09,9.09,0,0,0-3.43-2.09c-1.48-.44-2.32,0-2.55,1.6a15.39,15.39,0,0,0,.18,4.6c1.28,7.87,3.74,15.42,6.18,23a2.94,2.94,0,0,0,1.39,1.51c3.18,2.27,6.38,4.51,9.55,6.79C315.55,263.64,316.77,263.14,317.29,260.06Zm18.55,15.2c.44-3.51-.22-7-.93-10.57-1.63-8.15-4.38-15.82-9.59-22.44a11.76,11.76,0,0,0-4-3.52c-1.58-.77-2.47-.38-2.82,1.3a14.23,14.23,0,0,0-.33,3.25c.14,8.38,2,16.52,3.63,24.68a2.43,2.43,0,0,0,.88,1.43c3.24,2.83,6.47,5.66,9.68,8.53,1.11,1,1.95.62,2.74-.38A5.75,5.75,0,0,0,335.84,275.26Zm17,16.34a37.8,37.8,0,0,0,0-9c-.73-8.12-2.55-15.94-6.79-23A12.64,12.64,0,0,0,342,255c-1.52-.93-2.3-.63-3,1a12.13,12.13,0,0,0-.73,3.77c-.54,7.71.26,15.36.92,23a5.59,5.59,0,0,0,1.75,3.66c2.46,2.53,4.78,5.19,7.21,7.76.61.64.93,1.79,2.23,1.44s1.67-1.33,2-2.37A15.41,15.41,0,0,0,352.85,291.6Zm15.43,16.93a64.45,64.45,0,0,0-.08-16.88c-.83-5.89-2.23-11.61-5.64-16.61-.82-1.19-1.81-2.68-3.43-2.36s-1.75,2.07-2.06,3.42c-1.91,8.53-1.76,17.21-1.84,25.88a2.62,2.62,0,0,0,.8,1.67c2.39,3.19,4.79,6.37,7.16,9.57,1.25,1.68,2.58,1.67,3.68-.11A12.47,12.47,0,0,0,368.28,308.53Zm14.13,15.81c.17-1.7.48-4.19.63-6.69a47.29,47.29,0,0,0-2.62-19.87,11.34,11.34,0,0,0-2.65-4.43c-1.34-1.29-2.29-1.18-3.24.39a16.87,16.87,0,0,0-1.68,4.29c-2.07,7.54-2.82,15.29-3.71,23a2.14,2.14,0,0,0,.29,1.46c2.26,3.74,4.52,7.48,6.74,11.24.77,1.3,1.73,1.16,2.75.44a5.41,5.41,0,0,0,1.62-2.35A34.62,34.62,0,0,0,382.41,324.34Zm-.28,11.42c-.34,1.9-.65,3.81-1,5.69a3.24,3.24,0,0,0,.33,2.2c1.76,3.64,3.45,7.32,5.15,11,.8,1.71,2.07,2,3.42.67a10.46,10.46,0,0,0,2.39-4.13,61.58,61.58,0,0,0,3.61-21c0-4.69-.46-9.37-2.55-13.69-.53-1.1-1.18-2.37-2.49-2.47s-1.95,1.29-2.54,2.32a22.08,22.08,0,0,0-1.3,2.79C385,324.54,383.65,330.17,382.13,335.76ZM259.06,235a13,13,0,0,0-1.33.3,61.87,61.87,0,0,0-20.1,10.35,13.54,13.54,0,0,0-3.07,3.16c-.91,1.41-.6,2.39.95,3.05a10.65,10.65,0,0,0,4.93.68c10.15-.69,19.77-3.57,29.16-7.34a6.06,6.06,0,0,0,2.89-2.16c.62-.93.74-1.94-.35-2.47C267.92,238.52,263.6,236.72,259.06,235Zm21.69,9.82c-.44.07-.88.13-1.32.22a60,60,0,0,0-14.59,4.8,31.66,31.66,0,0,0-8.82,5.46c-2.1,2-1.71,3.52,1.11,4.38a17.58,17.58,0,0,0,5.14.76,104.19,104.19,0,0,0,27-4,9.12,9.12,0,0,0,3.63-1.74c1.4-1.19,1.31-2.4-.3-3.32-3.56-2.05-7.15-4.05-10.73-6.05A10.49,10.49,0,0,0,280.75,244.8Zm19.82,12.06-.73.06a61.53,61.53,0,0,0-19.8,5.22,17.58,17.58,0,0,0-4.92,3c-1.47,1.38-1.38,2.5.33,3.55a13.83,13.83,0,0,0,5.86,1.73c8.87,1,17.67.18,26.45-1.07a10.06,10.06,0,0,0,4.34-1.47c1.55-1.05,1.61-2.28.13-3.36-3.27-2.36-6.58-4.67-9.88-7A2.57,2.57,0,0,0,300.57,256.86Zm19.35,14c-.47,0-.79-.06-1.11-.06a63,63,0,0,0-19.69,3,20.51,20.51,0,0,0-5.1,2.24c-2.39,1.56-2.36,2.91.11,4.43a17.69,17.69,0,0,0,5.78,2.06c7.53,1.54,15.17,1.65,22.82,1.54a17.13,17.13,0,0,0,6.81-1c1.9-.83,2.14-2.15.65-3.49-3-2.66-6-5.27-8.95-7.9C320.81,271.31,320.42,270.84,319.92,270.85Zm15.91,15.66a63.18,63.18,0,0,0-19.74,1,17.58,17.58,0,0,0-5.78,2c-1.64,1-1.76,2-.41,3.42a10.07,10.07,0,0,0,3.75,2.29c8.75,3.4,18,4.27,27.2,4.95a11.29,11.29,0,0,0,4.76-.45c1.93-.69,2.24-1.91.87-3.44-2.41-2.66-4.89-5.28-7.28-8C338.17,287.25,337.11,286.3,335.83,286.51Zm20.05,34c-1.38-.15-3.74-.51-6.11-.65a30.16,30.16,0,0,0-9.57.48c-2.62.69-3,2.08-1.27,4.15a17.14,17.14,0,0,0,4.72,3.61c6.68,3.81,13.93,6.22,21.23,8.49a18.8,18.8,0,0,0,6.8,1.21c2.22-.15,2.95-1.4,1.86-3.27-1.88-3.21-3.85-6.38-5.71-9.61a4.41,4.41,0,0,0-2.75-2.17A79.34,79.34,0,0,0,355.88,320.5Zm6.67,18c-3.58-.57-7.08-1.15-10.61-.54-2.3.39-2.79,1.56-1.59,3.55a16.31,16.31,0,0,0,4.82,4.65c6.57,4.58,13.8,7.87,21.16,10.92a15.52,15.52,0,0,0,5.76,1.44c2,0,2.82-1.1,2-2.89-1.62-3.56-3.32-7.09-4.95-10.65a3.7,3.7,0,0,0-2-1.95A67.66,67.66,0,0,0,362.55,338.53Zm-12.16-21.26c.89.16,1.77.34,2.66.48a20.3,20.3,0,0,0,6.31.45c2.35-.37,2.93-1.69,1.56-3.55-2.29-3.1-4.63-6.16-6.91-9.26a3.4,3.4,0,0,0-2.17-1.4,62,62,0,0,0-13.57-1.46c-4,0-8.1.12-11.95,1.56-2.44.91-2.71,2.31-.86,4.14a15.41,15.41,0,0,0,4.51,2.9C336.48,314.15,343.43,315.74,350.39,317.27Z"/><path class="cls-3" d="M389.34,383.69c.21-1.57.54-3.29.64-5,.29-4.63.47-9.27-1.38-13.67-1.27-3-2.72-3.2-4.62-.57a39.92,39.92,0,0,0-4.22,8.19c-2.15,5.17-4,10.44-5.64,15.79-.61,2-2.34,2.88-3.89,1.94a61.61,61.61,0,0,0-13.37-5.9,35.53,35.53,0,0,0-10.95-2.08c-3.05,0-3.82,1.38-2.29,4a16.15,16.15,0,0,0,3.38,3.94c6.78,6,14.51,10.56,22.54,14.65,1.21.61,2.55,1.31,3.86,1.06,1.81-.34,2,.64,2.4,1.94a218.62,218.62,0,0,1-4.55,137.67,243.3,243.3,0,0,1-10.36,24.05c-1.23,2.51-1.2,2.42,1.21,3.8,1.37.79,1.95.55,2.65-.87a237.6,237.6,0,0,0,18.54-50.36,221.91,221.91,0,0,0,2.93-90.5,231.26,231.26,0,0,0-6.07-25.84c-.16-.53-.94-1.27.25-1.74,1.74-.68,2.61-2.22,3.42-3.75C386.59,395.22,388.1,389.58,389.34,383.69ZM191.65,253.41c2.72.49,5.48.84,8.16,1.5,4.52,1.11,8.58.66,12-2.79a4.17,4.17,0,0,1,1.29-.84c1-.45.86-1,.36-1.77-1.22-1.89-2.4-3.82-3.53-5.77a2.7,2.7,0,0,0-1.79-1.31c-10.42-2.82-21-4-31.7-2.26-2.54.4-5.15.87-7.22,2.48a5,5,0,0,1-3.49,1.07,223.93,223.93,0,0,0-30.19,1.54c-.66.08-1.68-.23-1.48,1.14s1,.86,1.72.78a239.31,239.31,0,0,1,26.35-1.56c2.88,0,5.91-.5,8.17,2.08a4,4,0,0,0,1.36.69C178.06,251.14,184.86,252.26,191.65,253.41Zm8-31a259.54,259.54,0,0,0-30.56-2.61c-.59,0-1.57-.51-1.63.91s.76,1,1.47,1a280.56,280.56,0,0,1,30.91,2.65c2.17.3,3.94.7,4.21,3.3a4.66,4.66,0,0,0,.7,1.57c4,7.46,9.18,14.1,14.36,20.75a2.38,2.38,0,0,0,1.25.82c4.25,1.25,8.49,2.54,12.74,3.8,1.69.5,2.54-.13,2.62-1.91a7.05,7.05,0,0,0-1.16-4C226.32,235.19,216.59,223.65,199.66,222.4Zm-8,49.33c2.76.11,5.59,1.41,8.56,1.08,11-1.19,20.86-5.63,30.56-10.58a6.52,6.52,0,0,0,2.34-2c1.05-1.42.77-2.55-.87-3.07-4-1.25-8-2.42-12-3.66a4,4,0,0,0-3,.25,67,67,0,0,0-16.19,10,19.47,19.47,0,0,0-5.07,5.48c-.49.92-1,1-2,.87A194.89,194.89,0,0,0,168,267.74c-.61,0-1.6-.65-1.73.76s.84,1.13,1.59,1.16A201.26,201.26,0,0,1,191.7,271.73ZM233.54,230c-3.07-.62-3.87.16-3.39,2.73a22.45,22.45,0,0,0,1.66,4.92,174.84,174.84,0,0,0,10.64,19.65,3.14,3.14,0,0,0,1.57,1.32c3.92,1.61,7.82,3.27,11.72,4.93,1.68.72,2.88,0,2.93-1.85a10.49,10.49,0,0,0-1-4.47c-4.06-9.35-9.69-17.53-17.85-23.79A18.25,18.25,0,0,0,233.54,230Zm46.69,43a12.34,12.34,0,0,0-.61-4.52,63.2,63.2,0,0,0-8.65-18,40,40,0,0,0-9.07-9.65,11.43,11.43,0,0,0-4.1-2.07c-1.46-.34-2.37.13-2.44,1.79a15.08,15.08,0,0,0,.73,4.73c2.12,7.64,5.4,14.82,8.64,22a3,3,0,0,0,1.47,1.42c3.58,2,7.17,4,10.74,6C278.7,275.67,279.84,275.15,280.23,272.93Zm20.15,12.85c0-.32,0-1.09,0-1.85-.41-5.11-2.11-9.89-4-14.59-2.55-6.38-6-12.23-11.15-16.89a9.09,9.09,0,0,0-3.43-2.09c-1.48-.44-2.32,0-2.54,1.6a15,15,0,0,0,.17,4.59c1.28,7.87,3.74,15.43,6.18,23a3,3,0,0,0,1.39,1.51c3.18,2.27,6.38,4.51,9.55,6.79C298.64,289.36,299.86,288.86,300.38,285.78ZM318.93,301c.44-3.5-.22-7-.93-10.56-1.63-8.15-4.38-15.83-9.59-22.44a11.76,11.76,0,0,0-4-3.52c-1.57-.77-2.47-.38-2.82,1.3a14.15,14.15,0,0,0-.33,3.24c.15,8.39,2,16.53,3.63,24.69a2.46,2.46,0,0,0,.88,1.43q4.86,4.23,9.68,8.52c1.11,1,1.95.63,2.74-.37A5.7,5.7,0,0,0,318.93,301Zm17,16.35a37.8,37.8,0,0,0,0-9c-.73-8.13-2.54-15.94-6.79-23a12.75,12.75,0,0,0-4-4.58c-1.52-.93-2.3-.62-3,1a12.06,12.06,0,0,0-.73,3.76c-.54,7.72.26,15.37.92,23a5.62,5.62,0,0,0,1.75,3.66c2.46,2.52,4.79,5.19,7.21,7.75.61.64.93,1.79,2.24,1.44s1.66-1.32,2-2.36A15.41,15.41,0,0,0,335.94,317.32Zm15.43,16.92a64,64,0,0,0-.08-16.88c-.83-5.88-2.22-11.6-5.64-16.6-.82-1.2-1.8-2.69-3.43-2.36s-1.75,2.06-2.06,3.42c-1.91,8.53-1.76,17.21-1.84,25.88a2.64,2.64,0,0,0,.8,1.67c2.39,3.19,4.79,6.37,7.16,9.57,1.25,1.68,2.58,1.67,3.68-.12A12.41,12.41,0,0,0,351.37,334.24Zm14.13,15.82c.17-1.7.49-4.19.63-6.69a47.33,47.33,0,0,0-2.62-19.88,11.51,11.51,0,0,0-2.64-4.43c-1.35-1.28-2.3-1.17-3.24.4a16.53,16.53,0,0,0-1.69,4.29c-2.07,7.53-2.82,15.28-3.71,23a2.15,2.15,0,0,0,.29,1.46c2.26,3.74,4.52,7.48,6.75,11.24.77,1.3,1.72,1.15,2.74.44a5.41,5.41,0,0,0,1.62-2.35A34.62,34.62,0,0,0,365.5,350.06Zm-.28,11.42c-.34,1.9-.65,3.8-1,5.69a3.25,3.25,0,0,0,.32,2.2c1.76,3.64,3.45,7.31,5.15,11,.8,1.71,2.07,2,3.42.68a10.46,10.46,0,0,0,2.39-4.13,61.38,61.38,0,0,0,3.61-21c0-4.69-.46-9.37-2.55-13.7-.53-1.1-1.18-2.36-2.49-2.47s-1.94,1.3-2.54,2.33a22.08,22.08,0,0,0-1.3,2.79C368.06,350.26,366.74,355.89,365.22,361.48ZM242.15,260.7a13,13,0,0,0-1.33.3,61.65,61.65,0,0,0-20.1,10.34,13.59,13.59,0,0,0-3.07,3.17c-.91,1.41-.6,2.39.95,3a10.65,10.65,0,0,0,4.93.69c10.15-.7,19.77-3.57,29.16-7.35a5.94,5.94,0,0,0,2.89-2.16c.62-.92.74-1.94-.35-2.46C251,264.23,246.69,262.43,242.15,260.7Zm21.69,9.82c-.43.07-.88.13-1.32.21a60.89,60.89,0,0,0-14.59,4.8,32.13,32.13,0,0,0-8.82,5.46c-2.1,2-1.71,3.52,1.11,4.38a17.59,17.59,0,0,0,5.14.77,104.2,104.2,0,0,0,26.95-4,9.12,9.12,0,0,0,3.63-1.74c1.4-1.18,1.31-2.39-.3-3.32-3.56-2-7.15-4-10.73-6.05C264.58,270.81,264.21,270.68,263.84,270.52Zm19.82,12.05-.73.06a61.55,61.55,0,0,0-19.8,5.23,17.12,17.12,0,0,0-4.92,3c-1.47,1.37-1.38,2.49.33,3.54a14,14,0,0,0,5.86,1.74c8.87,1,17.67.18,26.45-1.08a10.13,10.13,0,0,0,4.35-1.46c1.54-1,1.6-2.29.12-3.36-3.27-2.37-6.58-4.68-9.88-7A2.57,2.57,0,0,0,283.66,282.57Zm19.35,14c-.46,0-.79-.06-1.11-.06a63.54,63.54,0,0,0-19.69,3,20.91,20.91,0,0,0-5.1,2.25c-2.39,1.55-2.36,2.91.11,4.43a17.52,17.52,0,0,0,5.78,2.05c7.53,1.54,15.17,1.65,22.82,1.55a17.31,17.31,0,0,0,6.81-1c1.9-.83,2.14-2.16.65-3.49-3-2.66-6-5.28-8.95-7.9C303.9,297,303.51,296.56,303,296.56Zm15.91,15.67a63.4,63.4,0,0,0-19.73,1,17.44,17.44,0,0,0-5.78,2.05c-1.65,1-1.77,2-.42,3.42a10.21,10.21,0,0,0,3.75,2.29c8.75,3.39,18,4.27,27.2,5a11.29,11.29,0,0,0,4.76-.45c1.93-.7,2.24-1.92.87-3.44-2.41-2.67-4.89-5.28-7.28-8C321.26,313,320.2,312,318.92,312.23Zm20.05,34c-1.38-.16-3.73-.51-6.1-.66a30.21,30.21,0,0,0-9.58.49c-2.62.68-3,2.07-1.27,4.15a17.14,17.14,0,0,0,4.72,3.61c6.68,3.81,13.93,6.22,21.23,8.48a18.8,18.8,0,0,0,6.8,1.22c2.22-.15,3-1.41,1.86-3.27-1.88-3.22-3.85-6.38-5.71-9.61a4.38,4.38,0,0,0-2.75-2.17A77.34,77.34,0,0,0,339,346.22Zm6.67,18c-3.57-.57-7.08-1.15-10.61-.54-2.3.39-2.79,1.56-1.59,3.55a16.07,16.07,0,0,0,4.83,4.64c6.56,4.58,13.79,7.88,21.15,10.92a15.54,15.54,0,0,0,5.76,1.45c2,0,2.82-1.1,2-2.89-1.62-3.56-3.32-7.09-4.94-10.65a3.72,3.72,0,0,0-2-2A67.11,67.11,0,0,0,345.64,364.25ZM333.49,343c.88.16,1.76.33,2.65.47a20,20,0,0,0,6.31.45c2.35-.36,2.93-1.69,1.56-3.54-2.28-3.1-4.63-6.16-6.91-9.27a3.38,3.38,0,0,0-2.17-1.39,60.78,60.78,0,0,0-13.57-1.46c-4,0-8.1.12-11.95,1.56-2.44.91-2.71,2.31-.86,4.14a15.38,15.38,0,0,0,4.51,2.89C319.57,339.87,326.52,341.46,333.49,343Z"/><path class="cls-3" d="M200.72,488.33c1.4,1,2.85,2.05,4.72,1.9,1.26-.1.89.91,1,1.46a232.61,232.61,0,0,0,5.81,26.08,223.78,223.78,0,0,0,42.11,80.73A238.34,238.34,0,0,0,293,636c1.26,1,1.88.94,2.77-.38,1.57-2.3,1.64-2.24-.56-4a245.91,245.91,0,0,1-19.82-17.24,220.5,220.5,0,0,1-64.14-122.76c-.23-1.34-.47-2.32,1.31-2.81,1.28-.35,2.19-1.57,3-2.66C221,478.94,226,471.41,229.45,463a16.44,16.44,0,0,0,1.32-5.06c.22-3.07-1.07-4-3.82-2.65A35.35,35.35,0,0,0,218,462a61.18,61.18,0,0,0-9.45,11.22c-1,1.53-2.93,1.49-4.35,0-3.81-4.13-7.77-8.1-12-11.83a39.94,39.94,0,0,0-7.38-5.57c-2.85-1.55-4.09-.76-3.91,2.54.26,4.8,2.45,8.93,4.72,13,.85,1.52,1.9,2.93,2.77,4.27C192.13,480.36,196,484.81,200.72,488.33Zm124.57-231a3.78,3.78,0,0,0,.93-1.22c.91-3.33,3.85-4.21,6.45-5.47a239.15,239.15,0,0,1,24.38-10.16c.69-.25,1.59-.23,1.21-1.46s-1.2-.6-1.82-.38a221.44,221.44,0,0,0-27.84,11.86,5,5,0,0,1-3.61.57c-2.57-.55-5.12.17-7.58.91-10.42,3.16-19.39,8.84-27.54,16a2.78,2.78,0,0,0-1,2c-.17,2.26-.38,4.52-.66,6.77-.11.93,0,1.46,1.1,1.44a4.39,4.39,0,0,1,1.53.2c4.58,1.62,8.43.24,12-2.75,2.12-1.77,4.45-3.3,6.69-4.94C315.12,266.65,320.75,262.64,325.29,257.34Zm-56.47,27.9a7.15,7.15,0,0,0,.71,4.15c.85,1.58,1.89,1.77,3.19.58,3.28-3,6.53-6,9.81-9a2.26,2.26,0,0,0,.76-1.29c1.77-8.3,3.53-16.6,3.88-25.11a5,5,0,0,0-.05-1.74c-.9-2.47.52-3.6,2.34-4.83a283,283,0,0,1,26.66-16c.63-.33,1.53-.35.88-1.57s-1.34-.38-1.87-.11a256.32,256.32,0,0,0-26.35,15.79C274.08,254.66,270.37,269.39,268.82,285.24ZM338,275c.67-.35,1.69-.51.93-1.75s-1.34-.21-1.88.07a194.93,194.93,0,0,0-22.45,13.61,1.52,1.52,0,0,1-2.14.07,19.56,19.56,0,0,0-6.95-2.74,66.69,66.69,0,0,0-18.93-1.93,4,4,0,0,0-2.78,1.08c-3,2.88-6.14,5.69-9.18,8.58-1.25,1.19-1,2.34.55,3.17a6.64,6.64,0,0,0,3,.75c10.88.23,21.71-.09,32.12-3.83,2.81-1,4.79-3.43,7.22-4.74A204.69,204.69,0,0,1,338,275Zm-80.54-1.27c-4.61,9.26-6.11,19.14-5.69,29.4a10.39,10.39,0,0,0,1.06,4.49c.86,1.66,2.24,1.77,3.44.39,2.78-3.22,5.57-6.44,8.39-9.62a3,3,0,0,0,.83-1.89,175.78,175.78,0,0,0,1-22.48,23.19,23.19,0,0,0-.66-5.18c-.69-2.54-1.74-2.89-4.24-1A18.38,18.38,0,0,0,257.43,273.69ZM242,327.41q3.51-5.09,7.05-10.15a3,3,0,0,0,.69-1.94c-.22-7.94-.4-15.89-1.82-23.74a15,15,0,0,0-1.41-4.61c-.79-1.48-1.81-1.5-3-.55a11.4,11.4,0,0,0-2.78,3.67,40.37,40.37,0,0,0-3.95,12.73,64.16,64.16,0,0,0,0,20.09,12.44,12.44,0,0,0,1.42,4.36C239.63,329.11,240.88,329.08,242,327.41Zm-11.89,20.53c1.86-3.46,3.76-6.9,5.63-10.35a3,3,0,0,0,.59-2c-1.1-7.92-2.18-15.85-4.46-23.54a15.52,15.52,0,0,0-1.85-4.24c-.91-1.38-1.85-1.38-3-.33a9.2,9.2,0,0,0-2.17,3.4c-2.62,6.49-3.15,13.3-2.67,20.2.36,5.08.91,10.16,2.78,15a18,18,0,0,0,.78,1.69C227.6,350.33,228.91,350.25,230.15,347.94Zm-12.74,23.47c1.15.56,2.06.53,2.63-.86,1.64-4,3.31-8,5-12a2.44,2.44,0,0,0,.17-1.68c-2.06-8.13-4-16.3-7.5-24a14.57,14.57,0,0,0-1.71-2.8c-1.05-1.37-2-1.33-3.11.06a12,12,0,0,0-2.09,5c-1.8,8.29-.93,16.45,1.16,24.55.9,3.51,1.84,7,3.77,10C216.3,370.36,216.68,371.06,217.41,371.41Zm-8.77,21.91a3.06,3.06,0,0,0,2.85,1.25c1.33-.25,1.12-1.43,1.39-2.28,1.06-3.39,2-6.83,3.11-10.2a5.68,5.68,0,0,0,0-4.08c-2.75-7.24-5.36-14.53-9.22-21.28a12.26,12.26,0,0,0-2.3-3.09c-1.32-1.2-2.16-1.13-3.12.38a12.77,12.77,0,0,0-1.64,5.92c-.73,8.29,1,16.17,3.93,23.85a38.74,38.74,0,0,0,3.93,8.18A16.16,16.16,0,0,0,208.64,393.32Zm-4.34,24.29c1.77,1.14,3,.56,3.37-1.51.74-3.94,1.51-7.88,2.27-11.82a2.68,2.68,0,0,0,0-1.87c-3.85-7.81-7.5-15.75-13-22.64-.86-1.09-1.78-2.6-3.34-2.19s-1.84,2.2-2,3.64c-.9,6,.34,11.83,2.16,17.53A65,65,0,0,0,201,414.08,12.63,12.63,0,0,0,204.3,417.61Zm-4.12,23a5.24,5.24,0,0,0,2.48,1.41c1.22.2,2.15-.09,2.27-1.6.37-4.39.77-8.77,1.17-13.15a2.13,2.13,0,0,0-.37-1.45c-4.17-6.61-8.23-13.3-13.38-19.22a16.87,16.87,0,0,0-3.39-3.15c-1.53-1-2.44-.69-3.09,1.06a11.8,11.8,0,0,0-.45,5.18,48,48,0,0,0,6.32,19.16c1.22,2.2,2.59,4.32,3.48,5.79A35.45,35.45,0,0,0,200.18,440.59ZM188.73,432a22.43,22.43,0,0,0-2.39-2c-1-.67-2.06-1.72-3.3-1s-1.17,2.1-1.16,3.33c0,4.84,1.65,9.27,3.67,13.54A62,62,0,0,0,198,463.32a10.46,10.46,0,0,0,3.95,2.69c1.8.61,2.81-.21,2.78-2.11-.06-4.07-.15-8.15-.15-12.22a3.3,3.3,0,0,0-.67-2.13c-1.17-1.54-2.28-3.13-3.41-4.71C196.65,440.44,193,435.92,188.73,432ZM257.9,310.25c-.75,1-.2,1.82.76,2.39a6,6,0,0,0,3.55.69c10.09-.71,20-2.32,29.44-6.16a10.67,10.67,0,0,0,4.14-2.78c1.11-1.28,1-2.3-.48-3.17a13,13,0,0,0-4.14-1.53,61.35,61.35,0,0,0-22.6-.55,13.14,13.14,0,0,0-1.33.32C263.92,303,260.81,306.55,257.9,310.25Zm-6.65,8.54c-2.34,3.39-4.7,6.77-7,10.19-1.05,1.55-.6,2.68,1.18,3.14a9.09,9.09,0,0,0,4,0,103.7,103.7,0,0,0,26-8.19,17.25,17.25,0,0,0,4.29-2.95c2.16-2,1.86-3.56-.91-4.46a31.79,31.79,0,0,0-10.32-1.07,60.22,60.22,0,0,0-15.22,2.06l-1.28.38C251.75,318.2,251.47,318.47,251.25,318.79Zm-13.14,20.1c-2,3.56-3.92,7.1-5.83,10.68-.87,1.63-.28,2.72,1.58,3a10.05,10.05,0,0,0,4.55-.58c8.44-2.72,16.72-5.83,24.26-10.64a14.06,14.06,0,0,0,4.53-4.15c1.08-1.7.66-2.75-1.26-3.35a17,17,0,0,0-5.73-.56,61.15,61.15,0,0,0-20.09,4l-.68.26A2.6,2.6,0,0,0,238.11,338.89ZM227.3,360c-1.55,3.69-3.1,7.38-4.61,11.09-.76,1.86,0,3,2.11,2.87a17,17,0,0,0,6.56-2.07c6.93-3.26,13.76-6.72,19.87-11.43a17.3,17.3,0,0,0,4.3-4.4c1.56-2.46,1-3.7-1.84-4.06a20.72,20.72,0,0,0-5.56.21,63.1,63.1,0,0,0-19,5.91c-.29.14-.56.31-1,.54S227.52,359.5,227.3,360Zm-8.87,23c-1,3.48-2.07,6.94-3.08,10.41-.57,2,.25,2.95,2.28,2.74a11.31,11.31,0,0,0,4.48-1.69c8-4.67,15.93-9.51,22.32-16.43a10.26,10.26,0,0,0,2.38-3.73c.59-1.86.07-2.7-1.87-2.91a17.42,17.42,0,0,0-6.09.69,62.74,62.74,0,0,0-18.21,7.73C219.4,380.25,218.86,381.57,218.43,383.07Zm-8.31,42.49a4.48,4.48,0,0,0-1.53,3.17c-.26,3.75-.65,7.48-1,11.22-.16,2.17,1.05,3,3.11,2.14a18.58,18.58,0,0,0,5.58-4.09c5.58-5.25,11.06-10.62,15.41-17a17.38,17.38,0,0,0,2.67-5.34c.68-2.66-.3-3.74-2.95-3.21a30.12,30.12,0,0,0-8.83,3.77c-2.07,1.17-4,2.53-5.21,3.27A77.71,77.71,0,0,0,210.12,425.56Zm-2,23.72a3.75,3.75,0,0,0-.93,2.63c.09,3.94.1,7.89.19,11.83,0,2,1.24,2.65,3.07,1.74a15.68,15.68,0,0,0,4.55-3.84c5.29-6,10.36-12.16,14.27-19.19a16.28,16.28,0,0,0,2.31-6.33c.22-2.33-.73-3.17-3-2.52-3.45,1-6.35,3.07-9.31,5.15A67.82,67.82,0,0,0,208.11,449.28Zm28.54-49.67a15.54,15.54,0,0,0,2.79-4.61c.87-2.47,0-3.62-2.57-3.37-4.1.38-7.79,2.09-11.44,3.84a61.23,61.23,0,0,0-11.58,7.28,3.48,3.48,0,0,0-1.34,2.22c-.69,3.81-1.47,7.61-2.18,11.43-.42,2.28.68,3.22,2.95,2.53a20.26,20.26,0,0,0,5.49-3.19c.73-.51,1.45-1.06,2.18-1.59C226.55,409.7,232.1,405.21,236.65,399.61Z"/><path class="cls-3" d="M340.6,507.87c1.4,1,2.86,2,4.72,1.89,1.26-.1.89.91,1,1.45a228.59,228.59,0,0,0,5.81,25.9,221.61,221.61,0,0,0,42.11,80.17,237.64,237.64,0,0,0,38.65,37.23c1.25,1,1.87.93,2.77-.38,1.56-2.29,1.63-2.23-.57-3.94a246.43,246.43,0,0,1-19.82-17.12,218.77,218.77,0,0,1-64.14-121.9c-.23-1.34-.47-2.31,1.32-2.8,1.28-.35,2.18-1.56,3-2.64,5.44-7.17,10.41-14.65,13.9-23a16.13,16.13,0,0,0,1.32-5c.22-3.05-1.06-3.93-3.82-2.63a35.4,35.4,0,0,0-8.95,6.65,61.4,61.4,0,0,0-9.45,11.14c-1,1.52-2.93,1.48-4.35-.05-3.8-4.1-7.77-8-12-11.74a39.78,39.78,0,0,0-7.38-5.54c-2.85-1.53-4.09-.75-3.91,2.53.26,4.77,2.45,8.87,4.73,12.91.85,1.51,1.89,2.91,2.76,4.23C332,500,335.83,504.38,340.6,507.87ZM465.17,278.51c.34-.39.81-.76.93-1.22.92-3.3,3.85-4.18,6.45-5.43a237.9,237.9,0,0,1,24.39-10.09c.69-.25,1.59-.23,1.2-1.45s-1.19-.6-1.82-.38a222.47,222.47,0,0,0-27.84,11.78,5,5,0,0,1-3.61.56c-2.57-.54-5.11.17-7.58.91-10.41,3.14-19.39,8.78-27.54,15.86a2.76,2.76,0,0,0-1,2q-.24,3.38-.65,6.72c-.12.93,0,1.46,1.09,1.44a4.39,4.39,0,0,1,1.53.2c4.59,1.6,8.44.24,12-2.73,2.13-1.77,4.46-3.28,6.7-4.91C455,287.75,460.63,283.76,465.17,278.51Zm-56.46,27.7a7,7,0,0,0,.7,4.12c.86,1.57,1.89,1.76,3.2.57,3.27-3,6.52-6,9.81-9a2.32,2.32,0,0,0,.76-1.28c1.76-8.23,3.52-16.47,3.87-24.93A4.92,4.92,0,0,0,427,274c-.9-2.46.52-3.58,2.34-4.8A282,282,0,0,1,456,253.32c.64-.33,1.54-.35.88-1.56s-1.34-.38-1.87-.11a259.81,259.81,0,0,0-26.35,15.68C414,275.84,410.25,290.47,408.71,306.21ZM477.85,296c.67-.35,1.69-.51.94-1.74s-1.35-.21-1.89.07a194.24,194.24,0,0,0-22.45,13.52,1.54,1.54,0,0,1-2.14.07,19.52,19.52,0,0,0-6.95-2.72,66.69,66.69,0,0,0-18.93-1.92,4,4,0,0,0-2.77,1.07c-3.05,2.86-6.15,5.65-9.19,8.52-1.25,1.18-1,2.32.55,3.15a6.76,6.76,0,0,0,3,.74c10.88.23,21.72-.08,32.12-3.8,2.81-1,4.79-3.41,7.23-4.71A202.51,202.51,0,0,1,477.85,296Zm-80.53-1.26c-4.62,9.19-6.12,19-5.7,29.19a10.55,10.55,0,0,0,1.06,4.46c.86,1.65,2.24,1.76,3.44.38,2.79-3.19,5.57-6.38,8.39-9.54a3.09,3.09,0,0,0,.84-1.88,175.1,175.1,0,0,0,1-22.32,22.93,22.93,0,0,0-.66-5.15c-.69-2.52-1.74-2.87-4.24-1A18.17,18.17,0,0,0,397.32,294.74Zm-15.4,53.34c2.34-3.37,4.69-6.72,7.05-10.08a3,3,0,0,0,.7-1.92c-.23-7.89-.4-15.78-1.82-23.58a15,15,0,0,0-1.42-4.57c-.79-1.47-1.81-1.5-3-.55a11.35,11.35,0,0,0-2.79,3.65,39.88,39.88,0,0,0-3.95,12.63,63.27,63.27,0,0,0,0,19.95,12.48,12.48,0,0,0,1.42,4.33C379.52,349.77,380.77,349.74,381.92,348.08ZM370,368.47c1.86-3.44,3.76-6.85,5.64-10.28a2.94,2.94,0,0,0,.58-2c-1.1-7.87-2.18-15.74-4.46-23.38a15,15,0,0,0-1.85-4.21c-.91-1.38-1.85-1.37-3-.33a9.17,9.17,0,0,0-2.17,3.37c-2.62,6.46-3.15,13.21-2.67,20.06.36,5.06.92,10.1,2.78,14.88.28.71.64,1.39.78,1.67C367.48,370.84,368.79,370.76,370,368.47Zm-12.74,23.31c1.15.55,2.06.52,2.63-.86q2.46-6,5-11.89a2.48,2.48,0,0,0,.18-1.67c-2.07-8.07-4-16.19-7.51-23.8a14.24,14.24,0,0,0-1.71-2.78c-1.05-1.36-2-1.31-3.11.07a11.78,11.78,0,0,0-2.09,4.92c-1.8,8.23-.93,16.33,1.16,24.38.9,3.48,1.85,6.94,3.78,9.91C356.18,390.73,356.56,391.43,357.29,391.78Zm-8.77,21.75a3.11,3.11,0,0,0,2.86,1.25c1.32-.26,1.11-1.43,1.38-2.27,1.06-3.37,2-6.78,3.11-10.13a5.63,5.63,0,0,0,0-4.06c-2.74-7.18-5.36-14.42-9.22-21.12a11.93,11.93,0,0,0-2.3-3.07c-1.32-1.19-2.16-1.13-3.11.37a12.65,12.65,0,0,0-1.65,5.88c-.73,8.23,1,16.06,3.94,23.69a37.34,37.34,0,0,0,3.93,8.12A14.15,14.15,0,0,0,348.52,413.53Zm-4.33,24.12c1.77,1.13,3,.56,3.36-1.5.74-3.91,1.51-7.82,2.27-11.73a2.59,2.59,0,0,0,0-1.86c-3.85-7.76-7.5-15.64-12.95-22.48-.86-1.09-1.78-2.58-3.34-2.18s-1.84,2.19-2,3.62c-.9,6,.34,11.75,2.16,17.4a64.66,64.66,0,0,0,7.29,15.23A12.55,12.55,0,0,0,344.19,437.65Zm-4.13,22.82a5.36,5.36,0,0,0,2.48,1.4c1.22.2,2.15-.08,2.28-1.59.36-4.35.76-8.71,1.17-13.06a2.14,2.14,0,0,0-.38-1.43c-4.17-6.57-8.22-13.22-13.38-19.09a17,17,0,0,0-3.38-3.13c-1.54-1-2.44-.68-3.09,1.06a11.47,11.47,0,0,0-.45,5.14,47.3,47.3,0,0,0,6.31,19c1.22,2.18,2.59,4.28,3.48,5.74C337,457,338.27,459,340.06,460.47Zm-11.45-8.56a21.1,21.1,0,0,0-2.39-1.94c-1-.67-2.06-1.72-3.29-1s-1.17,2.09-1.17,3.31c0,4.81,1.65,9.21,3.68,13.44A61.53,61.53,0,0,0,337.84,483a10.51,10.51,0,0,0,4,2.68c1.79.6,2.81-.22,2.78-2.1-.07-4.05-.15-8.09-.16-12.14a3.21,3.21,0,0,0-.67-2.11c-1.17-1.53-2.27-3.11-3.41-4.67A154.3,154.3,0,0,0,328.61,451.91ZM397.78,331c-.75.95-.19,1.81.77,2.38a6.09,6.09,0,0,0,3.54.68c10.09-.7,20-2.31,29.45-6.11a10.61,10.61,0,0,0,4.13-2.77c1.11-1.27,1-2.28-.47-3.15a13.35,13.35,0,0,0-4.15-1.51,61.78,61.78,0,0,0-22.6-.55c-.5.08-1,.23-1.33.31C403.8,323.87,400.69,327.37,397.78,331Zm-6.64,8.48c-2.35,3.37-4.71,6.73-7,10.12-1.05,1.54-.6,2.66,1.18,3.12a9.24,9.24,0,0,0,4,0,104.59,104.59,0,0,0,26-8.13,17.92,17.92,0,0,0,4.29-2.93c2.16-2,1.85-3.54-.92-4.43a32,32,0,0,0-10.31-1.06,60.73,60.73,0,0,0-15.23,2l-1.28.38C391.63,338.93,391.35,339.21,391.14,339.52Zm-13.14,20c-2,3.53-3.93,7.06-5.84,10.61-.87,1.62-.27,2.7,1.58,3a10.05,10.05,0,0,0,4.55-.58c8.44-2.7,16.72-5.79,24.27-10.57a14,14,0,0,0,4.52-4.11c1.08-1.7.67-2.74-1.26-3.34a17,17,0,0,0-5.72-.54,61.42,61.42,0,0,0-20.1,3.93l-.68.27A2.55,2.55,0,0,0,378,359.48Zm-10.82,21c-1.54,3.67-3.1,7.33-4.61,11-.75,1.85,0,2.94,2.11,2.86a17.17,17.17,0,0,0,6.57-2.06c6.92-3.24,13.75-6.67,19.86-11.35a17.51,17.51,0,0,0,4.31-4.36c1.56-2.45,1-3.68-1.84-4a20.79,20.79,0,0,0-5.57.21,63.39,63.39,0,0,0-19,5.87c-.28.14-.56.31-1,.54S367.4,380,367.18,380.47Zm-8.86,22.88c-1,3.46-2.08,6.89-3.08,10.34-.58,2,.24,2.93,2.28,2.72a11.49,11.49,0,0,0,4.48-1.67c8-4.65,15.92-9.45,22.31-16.32a10.23,10.23,0,0,0,2.38-3.7c.6-1.85.07-2.68-1.86-2.89a17.44,17.44,0,0,0-6.1.67,63.42,63.42,0,0,0-18.21,7.68C359.28,400.55,358.74,401.87,358.32,403.35ZM350,445.54a4.42,4.42,0,0,0-1.52,3.16c-.27,3.71-.66,7.42-1,11.14-.17,2.15,1,3,3.1,2.12a18.83,18.83,0,0,0,5.59-4.06c5.58-5.22,11-10.55,15.4-16.89a16.9,16.9,0,0,0,2.67-5.31c.69-2.63-.29-3.7-3-3.18a30.31,30.31,0,0,0-8.83,3.74c-2.07,1.17-4,2.51-5.2,3.25A78.27,78.27,0,0,0,350,445.54Zm-2,23.56a3.71,3.71,0,0,0-.94,2.61c.09,3.92.1,7.83.19,11.75.05,2,1.25,2.63,3.07,1.73a15.77,15.77,0,0,0,4.55-3.82c5.3-5.95,10.37-12.07,14.27-19.05a16,16,0,0,0,2.31-6.29c.22-2.31-.73-3.15-3-2.5-3.45,1-6.34,3.05-9.31,5.12A66.87,66.87,0,0,0,348,469.1Zm28.53-49.32a15.76,15.76,0,0,0,2.8-4.58c.87-2.45,0-3.6-2.58-3.35-4.1.39-7.79,2.08-11.43,3.81a61.37,61.37,0,0,0-11.58,7.23,3.45,3.45,0,0,0-1.35,2.21c-.69,3.78-1.47,7.56-2.17,11.35-.43,2.27.67,3.2,2.95,2.51a20.26,20.26,0,0,0,5.48-3.16c.74-.51,1.46-1.06,2.18-1.58C366.43,429.8,372,425.34,376.53,419.78Z"/><path class="cls-2" d="M239.81,537.26c1.74,0,3.51,0,5-1.12,1-.8,1.25.24,1.63.64a232.31,232.31,0,0,0,19.48,18A221.58,221.58,0,0,0,346,596.93,236.92,236.92,0,0,0,399,605.68c1.58.08,2.07-.3,2.07-1.89,0-2.77.08-2.76-2.71-2.92a247.47,247.47,0,0,1-26-2.86,218.63,218.63,0,0,1-122-64c-1-1-1.7-1.63-.5-3,.85-1,.91-2.52,1-3.88.41-9,.26-18-1.61-26.83a16.19,16.19,0,0,0-1.76-4.89c-1.54-2.64-3.1-2.63-4.64,0a35.66,35.66,0,0,0-3.59,10.56,61.2,61.2,0,0,0-1.46,14.54c0,1.81-1.58,2.87-3.61,2.42-5.46-1.22-11-2.21-16.52-2.89a40,40,0,0,0-9.21-.37c-3.22.36-3.8,1.7-1.79,4.3,2.92,3.78,7,5.91,11.21,8,1.56.76,3.22,1.32,4.69,1.92C228.25,535.62,233.91,537.09,239.81,537.26ZM212.29,277.7a3.64,3.64,0,0,0,.07-1.53c-1.12-3.24.8-5.63,2.23-8.13A241.34,241.34,0,0,1,229,245.9c.43-.59,1.18-1.09.17-1.88s-1.32.19-1.71.72a222.55,222.55,0,0,0-16.24,25.5,5.11,5.11,0,0,1-2.66,2.51c-2.42,1-4.12,3-5.73,5.05-6.8,8.48-11,18.23-13.68,28.68a2.74,2.74,0,0,0,.26,2.21q1.71,2.91,3.28,5.91c.43.83.85,1.18,1.71.56a4.45,4.45,0,0,1,1.37-.7c4.69-1.28,7.09-4.59,8.35-9.07.75-2.66,1.81-5.23,2.73-7.84C209.15,291.08,211.53,284.61,212.29,277.7ZM181.5,332.54a7,7,0,0,0,2.92,3c1.59.8,2.56.38,3-1.34,1-4.32,2-8.64,3-13a2.25,2.25,0,0,0-.1-1.49C187,312,183.82,304.19,179.31,297a4.91,4.91,0,0,0-1-1.4c-2.13-1.51-1.6-3.24-.79-5.28a281.3,281.3,0,0,1,12.95-28.19c.33-.63,1.06-1.16-.16-1.78s-1.32.45-1.6,1a258.68,258.68,0,0,0-12.81,27.86C168.61,304.55,173.84,318.71,181.5,332.54Zm51.16-47.63c.35-.66,1.09-1.37-.22-2s-1.23.6-1.52,1.13A196.28,196.28,0,0,0,220.1,308c-.33.88-.68,1.29-1.72,1.27a19.76,19.76,0,0,0-7.27,1.7,67.12,67.12,0,0,0-16.68,9.16,4,4,0,0,0-1.67,2.46c-.89,4.08-1.85,8.14-2.73,12.22-.36,1.69.48,2.49,2.24,2.28a6.75,6.75,0,0,0,2.87-1.07c9.09-6,17.83-12.39,24.29-21.35,1.74-2.43,2-5.53,3.28-8A204.19,204.19,0,0,1,232.66,284.91Zm-67,44.65c1.42,10.19,5.75,19.12,11.88,27.27a10.44,10.44,0,0,0,3.4,3.08c1.64.87,2.84.17,3.05-1.64.48-4.21,1-8.42,1.49-12.62a3.08,3.08,0,0,0-.37-2,174.1,174.1,0,0,0-11.83-19,22.33,22.33,0,0,0-3.47-3.86c-2-1.69-3.06-1.38-4,1.6A18.3,18.3,0,0,0,165.61,329.56Zm17.59,52.67c0-4.1.05-8.21.08-12.31a3,3,0,0,0-.51-2c-4.66-6.37-9.29-12.77-14.88-18.39a14.82,14.82,0,0,0-3.76-3c-1.48-.76-2.33-.2-2.76,1.23a11.45,11.45,0,0,0-.22,4.59,40,40,0,0,0,3.91,12.64,63.22,63.22,0,0,0,11.36,16.41,12.37,12.37,0,0,0,3.63,2.76C182.18,385,183.19,384.25,183.2,382.23ZM185,405.76c-.42-3.88-.79-7.77-1.19-11.66a3,3,0,0,0-.63-2c-5.37-5.86-10.72-11.73-16.93-16.73A15.43,15.43,0,0,0,162.3,373c-1.53-.62-2.3-.08-2.65,1.43a9,9,0,0,0,.13,4c1.5,6.8,4.9,12.67,9.18,18,3.16,4,6.48,7.79,10.73,10.67.63.43,1.31.78,1.59.94C184.22,409.16,185.25,408.35,185,405.76Zm2.73,26.42c1.26-.2,2-.74,1.68-2.2-.91-4.2-1.78-8.41-2.64-12.62a2.5,2.5,0,0,0-.8-1.48c-6.28-5.47-12.46-11.07-19.68-15.34a14.13,14.13,0,0,0-3-1.31c-1.64-.52-2.42.06-2.53,1.81a11.81,11.81,0,0,0,1.07,5.24c3.19,7.8,8.5,14,14.79,19.42,2.71,2.36,5.46,4.68,8.73,6A5.69,5.69,0,0,0,187.7,432.18Zm5.12,22.89a3.11,3.11,0,0,0,3.06-.59c1-1,.11-1.81-.15-2.66-1-3.37-2.2-6.71-3.18-10.1a5.64,5.64,0,0,0-2.33-3.32c-6.34-4.37-12.6-8.84-19.58-12.17A12,12,0,0,0,167,425c-1.77-.23-2.42.3-2.36,2.08a12.88,12.88,0,0,0,2,5.78c4.07,7.19,10,12.62,16.68,17.27a38,38,0,0,0,7.85,4.46A16.49,16.49,0,0,0,192.82,455.07Zm10.11,22.33c2.1-.08,2.77-1.23,1.92-3.15-1.61-3.64-3.19-7.3-4.78-10.95a2.68,2.68,0,0,0-1.06-1.52c-7.58-4.21-15.06-8.63-23.42-11.17-1.33-.41-2.94-1.12-4,.1s-.28,2.84.36,4.14c2.66,5.44,6.95,9.48,11.66,13.1a64,64,0,0,0,14.64,8.41A12.63,12.63,0,0,0,202.93,477.4Zm9.55,21.12a5.28,5.28,0,0,0,2.84-.25c1.12-.53,1.72-1.29,1-2.6Q213,490,209.85,484.26a2.14,2.14,0,0,0-1.13-1c-7.16-3-14.27-6.22-21.85-8.14a17.14,17.14,0,0,0-4.56-.65c-1.83.05-2.4.82-1.94,2.62a11.53,11.53,0,0,0,2.54,4.49,47.34,47.34,0,0,0,16,12.09c2.24,1.11,4.56,2.06,6.13,2.76C208,497.45,210.15,498.3,212.48,498.52ZM198.2,498a19.86,19.86,0,0,0-3.07-.25c-1.19,0-2.67-.25-3.28,1.06s.22,2.38.92,3.39c2.73,3.95,6.58,6.64,10.65,9a61.66,61.66,0,0,0,20,7.21,10.39,10.39,0,0,0,4.77,0c1.82-.52,2.19-1.77,1.1-3.3-2.35-3.29-4.71-6.58-7-9.9a3.21,3.21,0,0,0-1.75-1.37c-1.83-.6-3.64-1.27-5.46-1.91C209.5,500.41,203.94,498.78,198.2,498ZM186.59,359.19c-.08,1.21.87,1.61,2,1.53a6.18,6.18,0,0,0,3.31-1.45C199.79,353,207,346,212.66,337.53a10.53,10.53,0,0,0,1.83-4.62c.2-1.67-.5-2.43-2.17-2.33a13.26,13.26,0,0,0-4.28,1.11,61.87,61.87,0,0,0-18.92,12.37c-.36.35-.68.75-.91,1C187.48,349.87,186.91,354.52,186.59,359.19ZM185.93,370c0,4.1-.06,8.21,0,12.31,0,1.86,1,2.54,2.74,1.9a9.17,9.17,0,0,0,3.31-2.29,104.45,104.45,0,0,0,16.81-21.45,17.54,17.54,0,0,0,1.87-4.85c.64-2.87-.48-4-3.26-3.13a32,32,0,0,0-9.1,5,60.62,60.62,0,0,0-11.38,10.32c-.29.34-.56.7-.84,1C186,369.18,185.93,369.56,185.93,370Zm.5,23.89c.4,4,.78,8,1.22,12.05.2,1.82,1.3,2.37,3,1.55a10.25,10.25,0,0,0,3.42-3.06c5.42-7,10.48-14.26,14-22.47a14,14,0,0,0,1.39-6c-.07-2-1-2.63-2.93-2a17.51,17.51,0,0,0-5,2.8,61.59,61.59,0,0,0-14.31,14.64l-.41.6A2.58,2.58,0,0,0,186.43,393.84Zm3,23.42c.81,3.9,1.6,7.8,2.45,11.68.43,2,1.7,2.4,3.36,1.16a17.25,17.25,0,0,0,4.24-5.42c3.87-6.6,7.54-13.3,9.92-20.61a17.55,17.55,0,0,0,1.07-6c-.1-2.9-1.27-3.59-3.8-2.28a20.76,20.76,0,0,0-4.47,3.32,63.41,63.41,0,0,0-12.35,15.64c-.16.28-.28.57-.49,1S189.32,416.71,189.43,417.26Zm5.68,23.87c1.15,3.41,2.2,6.85,3.33,10.26.65,1.95,1.86,2.28,3.42.95a11.53,11.53,0,0,0,2.74-3.92c4-8.37,7.76-16.82,9.12-26.1a10,10,0,0,0-.14-4.39c-.56-1.87-1.46-2.25-3.18-1.33a17.46,17.46,0,0,0-4.63,4,63.5,63.5,0,0,0-10.64,16.65C194.32,438.28,194.62,439.67,195.11,441.13Zm17.09,39.46a4.41,4.41,0,0,0,.53,3.47c1.89,3.21,3.67,6.48,5.54,9.71,1.08,1.87,2.54,1.85,3.76,0a18.91,18.91,0,0,0,2.3-6.51c1.63-7.47,3.12-15,3.1-22.66a17,17,0,0,0-.81-5.88c-.93-2.56-2.35-2.88-4.23-.95a29.89,29.89,0,0,0-5.15,8.09c-1.05,2.14-1.9,4.36-2.45,5.63A78.17,78.17,0,0,0,212.2,480.59Zm11.71,20.54a3.74,3.74,0,0,0,.71,2.69c2.3,3.17,4.53,6.39,6.82,9.56,1.16,1.59,2.52,1.46,3.51-.32a15.6,15.6,0,0,0,1.58-5.72c1-7.9,1.69-15.82.95-23.79a16.19,16.19,0,0,0-1.66-6.48c-1.14-2-2.39-2.19-3.87-.38-2.28,2.78-3.5,6.11-4.77,9.5A67.72,67.72,0,0,0,223.91,501.13Zm-4.48-56.81a15.53,15.53,0,0,0-.29-5.35c-.68-2.51-2-3-4-1.3-3.15,2.65-5.23,6.14-7.25,9.63a61.27,61.27,0,0,0-5.43,12.52,3.39,3.39,0,0,0,.14,2.58c1.58,3.51,3.08,7.06,4.65,10.58.93,2.11,2.37,2.26,3.85.4a20.06,20.06,0,0,0,2.72-5.72c.32-.84.6-1.69.9-2.54C216.8,458.31,218.84,451.48,219.43,444.32Z"/></g><g id="Gunny_Bag-2" data-name="Gunny Bag"><path class="cls-4" d="M151.39,346.75c13.11-1.09,25.13-5.86,37-11,8.43-.12,16.81.92,25.23,1.15,9.61.27,19-1.25,28.36-2.78a218.69,218.69,0,0,1,38.75-3.17c8.55.15,17.1-.1,25.65.05,17.07.32,34.15.65,51.21,1.39,13.5.58,27,1.91,40.38,3.53a65.89,65.89,0,0,0,20.34-1.07,9.91,9.91,0,0,0,4.74-2.69c.78-.73,1.38-1.75,2-1.69a2.39,2.39,0,0,1-2.84-.92,5,5,0,0,1,3.79-.25A67.3,67.3,0,0,1,442,331.74c5.36,1.48,8.59,5.41,9.26,10.95a104.18,104.18,0,0,1,.11,22.33c-.69,7.2-6.62,11.21-13.87,10-1.1-.18-2.36-.83-3.21.57s-.46,2.91-.17,4.38l.87,16.86c-2.85,1.17-3.55,3.82-4.31,6.38-2.58,8.68-1,17.08,1.66,25.45s5.36,16.5,5.78,25.2a25.24,25.24,0,0,1-5.92,18.05c-2.7,3.21-5.77,6.15-7.4,10.18a24.42,24.42,0,0,0-1.53,5.24c-1.34,7.83-4.13,15.18-7.4,22.4-3.75,8.27-8.14,16.23-11.55,24.65a9.68,9.68,0,0,0-1,3.41c0,2.66.09,5.46,2.7,6.87a7.29,7.29,0,0,0,7.72-.49c2.7-1.79,5.12-4,7.93-5.63,1.78-1,3.59-2.1,5.74-2a9.52,9.52,0,0,1,5.08,1.95c1.94,1.4,0,3.54,1,5.12,0,9.08,2.62,17.81,3.59,26.75a38.76,38.76,0,0,1,.33,7.06c-.68,6.45-.13,12.91-.29,19.37-.06,2.26,0,4.53,0,6.71.25-.9-.35-2,.45-2.93.72,18.45,8.13,35.49,11.23,53.43,1.56,9.05,2.89,18.13,2.89,27.34-1.39,5.19-4.74,9.18-8.26,13A161.26,161.26,0,0,1,430,707.12c-4.84,4.13-4.65,6.57.29,10.64,3.83,3.16,7.2,6.57,7.28,12a10.52,10.52,0,0,1-2.89,7.67c-1.47,1.58-3,3.1-4.56,4.61a4.28,4.28,0,0,0-.51,6.14,67.87,67.87,0,0,1,5.31,8.9,14.65,14.65,0,0,0,5.63,5.71c2.73,1.65,5.31.9,6.83-1.9,1.6-3,2.32-6.29,3.7-9.33,1.2-2.64,2.29-5.48,5.79-5.9a105.84,105.84,0,0,1,27.77,11.14c3.4,2,6.74,4.15,6,9,0,3.63-2.78,4.65-5.52,5.35-5.45,1.4-11,2.32-16.57,3.21-17,2.73-34.06,4.52-51.24,5.55-12.85.76-25.7,1-38.55,1.3-7.24.16-14.49.82-21.71.47-15.46-.75-30.92-.48-46.38-.62-4.51-.15-9,0-13.54-.08-1.37,0-2.83.25-3.94-.92-.06-1.48,1.18-1.41,2-1.42,6-.06,12.08-.62,18.07.59-8.37-1.77-16.37-5-24.8-6.58A269.07,269.07,0,0,0,260,768.61c-6.7-.53-13.39-.55-20.1-.58a81.54,81.54,0,0,0-29.55,5.13c-9.94,3.75-20.39,3.84-30.78,3.11-7.45-.53-14.91-.39-22.35-1a45.54,45.54,0,0,1-10.49-1.89,9.92,9.92,0,0,1-6.41-6c-1.39-3.62.52-6.27,4.39-6.28,1.55,0,3,.64,4.45.89,3.17.55,5.22-1.87,4.27-5a9.79,9.79,0,0,0-2-3.3c-.84-1-1.69-2-2.62-2.89-6.66-6.51-6.85-13.86-3.37-22,3.3-7.76,5.61-15.9,8.11-24,3.56-11.47,7.32-22.88,12-33.95,2.86-6.78,7.89-7.87,13.79-3.41a20.74,20.74,0,0,0,3.14,2.3c2.26,1.1,3.33.5,3.3-2a10.33,10.33,0,0,0-3-7.63,36.61,36.61,0,0,0-6.6-4.69c-4-2.5-6.1-6-5.87-10.81.41-8.62,1.92-17.19,1.35-25.88a46.46,46.46,0,0,0-1-7.71,60.5,60.5,0,0,1-1.48-18,142.85,142.85,0,0,0,.42-14.91,22.44,22.44,0,0,1,6.09-16.63c4.52-4.85,5-9.61,2.69-15.72-3.18-8.52-7.25-16.65-10.21-25.26-6.3-18.32-7.54-36.66-1.8-55.39a104.38,104.38,0,0,1,10.85-23.49c2.69-4.44,5.17-8.87,5.72-14.3.89-8.87-3.25-15.25-12-17.23a92.06,92.06,0,0,0-19-1.82A181.35,181.35,0,0,1,132.79,407c-4.54-.55-4.53-.62-5.14-4.92.39-5.49.69-11,1.2-16.48.17-1.93-.19-2.58-2.31-2.63-4.46-.1-6.4-1.69-7-6.09a57.71,57.71,0,0,1,3.31-28.35,4.38,4.38,0,0,1,4.82-3.05c4.19.38,8.37.84,12.55,1.26a36.62,36.62,0,0,1-9,1.11,139.69,139.69,0,0,1,24.07-.37C154.38,346.88,152.69,347.66,151.39,346.75Z"/><path class="cls-5" d="M127.5,402.1c.58,5.7,5.42,4.1,8.47,4.38,9.22.85,18.51.9,27.75,1.51,4.82.32,9.67,1.15,13.78,3.92a13.68,13.68,0,0,1,6.39,11.38c.05,4.81-.6,9.6-3.18,13.9-3.65,6.07-2.53,18.19-5.32,24.74-3.42,8-10.41,10.29-11.63,19-1.33,9.45-.34,18.8,1.65,27.86a98.65,98.65,0,0,0,6.66,19.83c3.16,6.92,6.3,13.92,8.38,21.27a9.63,9.63,0,0,1-2.38,9.83c-5.51,5.69-8.43,12.32-7.8,20.46.35,4.5-.21,9-.46,13.56-.35,6.43.71,12.82,1.79,19.21a71.82,71.82,0,0,1-.18,24.47c-.61,3.47,5.07,5.44,5.41,8.83.4,4-2,7.59,1.21,9.49,3.76,2.19,7.45,4.5,8.18,9.37.32,2.11,1.36,4.75-.55,6-2.14,1.46-4.17-.43-5.89-2a12.05,12.05,0,0,0-5.45-3.26c-3.83-.82-6.43.68-8.15,5.13-4.55,11.75-1.78,24.93-5.16,37.11-2.15,7.76-12.36,13.88-15.12,21.47-2,5.49-3.76,11,0,16.38,2,2.91,4.6,5.42,6.86,8.16,1.48,1.8,2.57,3.79,1.49,6.2-1.22,2.71-3.29,3.54-6.11,2.5-2.58-1-5.59-2.25-7.24.72s.64,5.18,2.79,7.17c2.91,2.69,6.7,3.28,10.2,3.43,12.82.54,25.63,1.68,38.47,1.4A54.53,54.53,0,0,0,210.62,772a74.91,74.91,0,0,1,25.23-4.86,213.71,213.71,0,0,1,26.54.67c6.19.65,12.33,1.7,18.5,2.56,8.23,1.15,16.17,3.47,24.13,5.75,3.18.9,6.1,2.58,9.42,3.44H292.9c-1.19,1.05-2.65.79-4,.79-7.9,0-15.8.18-23.69,0-10.71-.27-21.38.65-32.07.72-17.92.25-35.81,1.93-53.74,1.25-19.65-.74-39.3-1.83-58.34-7.42-5.69-1.67-11.31-3.69-16.22-7.21-1.41-1-2.84-2-3.29-3.84a3,3,0,0,1-.76-2.2,5.93,5.93,0,0,1,0-3.68c1.07-2.54,3.36-3,5.7-3.38a30.52,30.52,0,0,1,7.33-.41c1.51.61,3,.18,4.23.26a1,1,0,0,1-1.21-.4c3.22-1,6.65-1.41,9.35-3.7,1.37-1.5,2.54-3.24,4.62-3.89h0a4.19,4.19,0,0,1,1.84-2.7c3.6-4.85,3.75-10.51,3.87-16.2.05-2.24-.28-4.53.58-6.7.45.19.25.71.52,1-.26-.72.17-1.53-.41-2.16.44-7.23,2.13-13.91,6.83-19.81,8.83-11.09,12.64-24,12.09-38.08s-1.2-28.08-.07-42.12c.33-4.19.32-8.41,1.16-12.55.34.28.6.56.1.92a.53.53,0,0,0,.34-.61c-.07-.69.21-1.43-.29-2.05.39-9.73,1.89-19.34,2.89-29,1.21-11.71,3-23.38-.46-35-2.2-7.46-5.45-14.55-7.32-22.12-1.76-7.13-3.29-14.3-3.55-21.68-.09-5.74,2.65-11.22,1.56-16.2-.13,2,.21,4.88-.58,7.73-1-2.73-.56-5.53-.66-7.72-.32,3.29.24,7.22-.06,11.12-.05.72.26,1.53-.44,2.12-.93-5.47-.34-11-.48-16.48-.4-15.65-3.1-30.71-11-44.48a77.1,77.1,0,0,0-6.74-9.51c-2.09-2.64-3.94-5.44-3.67-9.06a7.23,7.23,0,0,0,0-4.53A36.76,36.76,0,0,1,127.5,402.1Z"/><path class="cls-6" d="M101.52,763.83c8,7.29,18,10.16,28.1,12.24,25,5.12,50.39,6.09,75.86,5,9.07-.39,18.13-1.12,27.22-.92a44.54,44.54,0,0,0,10,.23c16-.64,31.95-.24,47.92-.21,6.67,0,13.34.5,20,0,19.47.13,38.95.49,58.43.35,35.3-.26,70.52-1.85,105.35-8.21,3.08-.56,6.13-1.33,9.23-1.77a8.68,8.68,0,0,0,6.93-4.71c4.47,1.1,9.21.9,13.56,2.65,3.45,1.38,6.19,3.45,7.35,7.2,1.39,4.48-.18,8-4.66,9.5a84.35,84.35,0,0,1-15.75,3.39c-11.85,1.56-23.77,2.37-35.68,3.06-7.95.47-15.9,1.16-23.86,1.56-10.85.55-21.66,1.66-32.5,2.44-4,.29-8,.45-11.94.58-11.32.36-22.57,8.54-33.87,9.16-27.44,1.51-59.64,0-87.08-.26-12.07-.1-24.61.63-36.67,0-6.59-.34-15.43-2.11-22-2.55-15.77-1.07-32-.43-47.78-1-11.29-.43-20.08-2.89-31.17-5.1-8.44-1.68-16.71-1.7-25.36-2-7.94-.31-10.68-6.88-17.92-10.77-3.81-2-7.62-4.55-7-9.52s5-6.53,9.09-7.57c3.51-.9,7.23-1,10.86-1.37C99.45,765,100.85,765.37,101.52,763.83Z"/><path class="cls-5" d="M433.33,543.66c-.7-2.58-.9-5.17-4.46-6.06-2.76-.68-4.72.41-6.65,1.51a74,74,0,0,0-7.57,5.46c-2.6,2-7.64,2.45-9.67.88-2.51-1.94-3.52-6.65-2.19-10.06,2.69-6.9,6.26-13.39,9.37-20.09,3.94-8.45,7.82-16.92,9.87-26.11.52-2.36.44-4.72,1.57-7.14,1.88-4,4.75-7.12,7.5-10.36,4.89-5.79,6.53-12.25,5.7-19.75-1-8.82-3.85-17.07-6.34-25.49-2.37-8-3.38-16.26-.53-24.39.79-2.24,1.11-5.54,4.9-5.21,1.64,9.78,5.6,18.79,9.17,27.93,2.7,6.89-2.62,18.91-2.66,26.37a29.91,29.91,0,0,0,0,9.06c-.05,9.93,4.73,14.66,2.25,24.17a93.79,93.79,0,0,0-3.39,22.07,82.31,82.31,0,0,1-3.66,21.67A97.19,97.19,0,0,0,433.33,543.66Z"/><path class="cls-5" d="M456.76,745.71c-4,2.08-5,6.15-6.48,9.84-.76,1.86-1.3,3.81-2.06,5.66-1.5,3.67-6,4.15-8.61,2.2a21.64,21.64,0,0,1-7.12-8.93,31.76,31.76,0,0,0-3.49-5.41c-2.08-2.88-2-5.13.53-7.66a38.07,38.07,0,0,1,3-3c6.08-4.91,5.33-12.47-.38-18a29.56,29.56,0,0,0-3.24-2.66c-4.43-3.25-4.64-7-.38-10.58,4.56-3.82,8.8-8,13-12.18a41.44,41.44,0,0,0,9.09-12.8c.15-.35.62-.57.94-.85l0,2a47,47,0,0,0,0,11.67,46.06,46.06,0,0,1-.36,9.68c-.58,4.23.13,7.92,3.55,10.83a4.55,4.55,0,0,1,2,3.54c.14,1.51-.36,3,0,4.52-.95,4.88-4,9-5,13.85-.85,1.39-.3,2.57.54,3.71A14.88,14.88,0,0,0,456.76,745.71Z"/><path class="cls-7" d="M425.91,329.27l-3.16.22c1.43.91,2.75.23,4.12.81-2.25,0-2.69,2-3.9,3.13-3.83,3.62-8.84,3.11-13.35,3.56-8.38.84-16.74-.63-25.08-1.63-5.11-.62-10.28-1.19-15.41-1.35-7.12-.21-14.25-.57-21.34-.94-9.08-.48-18.16.07-27.2-.56-17.18-1.19-34.38-.61-51.55-.41-11.25.13-22.47,1.93-33.56,4a115.32,115.32,0,0,1-32.5,1.11,114.15,114.15,0,0,0-11.85-.18c-1.26,0-1.85-1-2.86-1.33a49.79,49.79,0,0,1,22.37-5.78q32.61-.82,65.21-1.41c39.37-.69,78.72-2.29,118.1-1.71A210,210,0,0,1,425.91,329.27Z"/><path class="cls-8" d="M151.24,346.75a13,13,0,0,1,6,1.25c-9.44-1.33-18.86-.07-28.32-.28l11.18-1Z"/><path class="cls-9" d="M148.77,494.6V479.45h.69v8.83l.64,0v-8.85c1.57,6.19,0,12.13-1.15,18.1Z"/><path class="cls-10" d="M437.39,600.62l-.24,5.41-.43,0q0-13.87,0-27.75c0-.26.33-.53.5-.79C437.76,585.18,437.28,592.91,437.39,600.62Z"/><path class="cls-11" d="M130.83,746.43a10.86,10.86,0,0,1-4.62,3.89c.07-.73.12-1.45.21-2.17C126.7,746,128.63,745.28,130.83,746.43Z"/><path class="cls-12" d="M441.33,460.21a14.83,14.83,0,0,1,0-9.06A39.78,39.78,0,0,1,441.33,460.21Z"/><path class="cls-11" d="M132.67,743.73c0,1.28-.95,2-1.84,2.7C130.33,744.77,129.5,742.89,132.67,743.73Z"/><path class="cls-13" d="M434,380c-1-1.44-.6-3-.37-4.52a.43.43,0,0,1,.28,0,1.1,1.1,0,0,1,.26.18C434.08,377.07,434,378.53,434,380Z"/><path class="cls-14" d="M116.86,754l1.46.2c-1.53.51-3,1-4.48-.06Z"/><path class="cls-15" d="M126.85,410.54a3.87,3.87,0,0,1,0,4.53A10.81,10.81,0,0,1,126.85,410.54Z"/><path class="cls-16" d="M157.39,605.4c.7.5.61,1.25.59,2,0,.23.07.69-.36.55-.19-.06-.26-.51-.38-.78Z"/><path class="cls-17" d="M137.23,719.7c.86.71.69,1.6.36,3.06-.23-1-.35-1.45-.47-1.93C137.16,720.45,137.19,720.08,137.23,719.7Z"/><path class="cls-18" d="M100.81,758c0,1.23,0,2.45,0,3.67A3.06,3.06,0,0,1,100.81,758Z"/><path class="cls-7" d="M198.26,369.61a23.3,23.3,0,0,1,13-.65,5.13,5.13,0,0,1,5.16,1.15c7.79,6.9,17.48,7.46,27.07,8.22,20.49,1.63,41,1.39,61.56,1.38A76.31,76.31,0,0,0,325.22,377c3.29-.9,6.61-1.8,10.09-1.54a66.66,66.66,0,0,1,15-2c8.81-.33,17.58-1.48,26.41-1.26,1.4,0,2.82-.14,4.1.65,2.48-.82,4.64.46,6.69,1.36,5,2.21,9.95,4.52,15.48,5.15a3.4,3.4,0,0,1,2.51,1.29,110,110,0,0,1-7.73,14.08,122.8,122.8,0,0,0-15.51,30.71c-2.79,8.52-7,16.31-11,24.26-4.29,8.51-10.61,8.81-16.12,16.5-4.81,6.71-10.62,16.8-19.19,15.37-6.88-1.14-10.86-5.22-17.54-7.09-9.46-2.65-22.06-1.51-31.26-5.14-12.11-4.78-14.57-20.54-25.64-27.29-6.6-4-22.74,2.48-28.59-2.89-7.11-6.52-12.49-14.39-18.75-21.56a65,65,0,0,0-13.84-11.53c-4.84-3.13-8.49-7.34-12-11.9-3-3.89-4.55-8.53-7.53-12.38-.88-1.13-2.18-2.55-1.33-4.39-.18-.85.47-1.12,1-1.38,5.05-2.38,10.19-4.57,15.39-6.62A2.1,2.1,0,0,1,198.26,369.61Z"/><path class="cls-19" d="M335.31,375.46c-12.36,3.64-24.87,5.82-37.87,5.28-10.26-.42-20.57.35-30.82-.2-12.65-.67-25.35-.82-37.9-3-4.39-.77-7.76-3.15-11.15-5.53a23.2,23.2,0,0,0-6.31-3,2.13,2.13,0,0,1,2.69-1.23c4.16,1.11,8.38.56,12.57.54,10.23,0,20.3,1.55,30.44,2.5,5.53.52,11.11.47,16.61,1.43,8.34,1.44,16.89.86,25.22,2.54a17.33,17.33,0,0,0,3.88.06c10.77-.33,21.57.71,32.33-.54C335.86,374.16,335.39,375,335.31,375.46Z"/><path class="cls-20" d="M178.13,377.41a75.05,75.05,0,0,1-16.08,5.24c-2.92.66-5.76,1.66-8.64,2.48a27.94,27.94,0,0,1-12.14.27c-2-.32-3.19-1.46-4.74-3.08,10.28-1.7,20-4.32,29.69-6.83,3.53-.91,7.07-1.75,10.61-2.63C178.57,374,179.41,375.4,178.13,377.41Z"/><path class="cls-19" d="M405.46,380.66a49.49,49.49,0,0,1-18-5.6c-2-1.11-4.46-1.49-6.7-2.2.89-2.39,3.33-1.67,4.68-1.58,8,.57,16.08.14,24.12.29.84,0,1.75-.2,2.37.64a6.17,6.17,0,0,0-4.39,4.9,7,7,0,0,1-2.1,3.54Z"/><path class="cls-20" d="M405.46,380.65c.86-2.45,1.66-4.93,2.62-7.34.76-1.93,2.56-.79,3.87-1.1,4.22-.42,8.33.77,12.53.74,1,0,2.33.18,2.81,1.22.58,1.25-.67,2-1.43,2.6C420.92,380.88,415.17,382,409,381A26.13,26.13,0,0,0,405.46,380.65Z"/><path class="cls-21" d="M310.62,780.16c-1,1-2.26.57-3.4.57q-35.57,0-71.12,0c-1.14,0-2.4.42-3.4-.57,17.37-.84,34.74-.59,52.11-.55,2.7,0,5.39,0,8.09-.05Z"/><path class="cls-22" d="M178.13,377.41c.25-1.71-.55-3.12-1.3-4.55,4.31-1.9,9.06-2,13.53-3.19,1.29-.35,2.59-.27,3.92-1,1.12-.59,3.15-1.42,4,.92-5.44,1.61-10.54,4.07-15.71,6.35-1.05.47-2.08,1-3.12,1.45Z"/><path class="cls-23" d="M200,782.52H180.8v-.33h19.32Z"/></g><g id="NT_Logo" data-name="NT Logo"><g id="Layer_1-2" data-name="Layer 1-2"><g id="Logo_2_-_Expanded" data-name="Logo 2 - Expanded"><path class="cls-24" d="M292.3,487.12c16.37-.22,31.18,1.68,41.91,12.27,10.72,9.94,17.35,28.58,17.35,46.84,0,17.13-6.63,30.24-17.35,41.67-10.73,10.93-25.54,20.18-41.91,17.74s-31.18-6.66-41.9-17.17c-10.72-10-17.36-26.33-17.36-41.93,0-14.46,6.64-25.68,17.36-37.16C261.12,498.5,275.94,487.35,292.3,487.12Z"/><path class="cls-25" d="M292.76,516.71a13.88,13.88,0,0,0,0,6l.71-.47c.15,1.25.29,2.44.44,3.65h0a1.82,1.82,0,0,1,.65-.39c.34-.08.55.12.66.63a12.29,12.29,0,0,1,.06,1.49,4.79,4.79,0,0,0,.17.77l1-.54c0,.48,0,1,0,1.59,0,1-.05,1.9,0,2.84,0,.11.34.2.53.17l.12,0c.25-.06.57-.2.76-.25s.15,0,.16,0a3.65,3.65,0,0,1,.41,1.56c0,.75-.15,1.54-.18,2.31a1.47,1.47,0,0,0,.91,1.48l.24-.12c-.09-.58-.19-1.14-.29-1.73.67.31,1.31.64,1.2,1.57-.09.76-.31,1.52-.48,2.41l1.93-.37c.52,1.71.07,3.62-.48,5.69l1.47-1a1.26,1.26,0,0,1,.43,1.15,5.9,5.9,0,0,1-.15,1.3c-.15.67-.1.84.39.73l.3-.07.28-.06c.48-.1.58.06.58.72a5.85,5.85,0,0,1-.68,2.81,7.62,7.62,0,0,0-.33.75l.92-.32.27-.08c.41-.08.58.11.48.64a13.33,13.33,0,0,1-.64,1.87,3.11,3.11,0,0,1-.27.55h1a3,3,0,0,1-1.74,3,6.84,6.84,0,0,0,.91.09c.55,0,.61.26.45.74a3.32,3.32,0,0,1-1.32,2.1l-.38.28a2.25,2.25,0,0,1,.05.22l1.22.17c-.1,1.11-1,2-2.71,2.87l1.46.16c-.14,1.25-1.17,1.54-2.08,2a.74.74,0,0,1,.22,1,1,1,0,0,1-.42.4,13.36,13.36,0,0,1-1.66.71c.52.56.45.76-.43,1.21-.45.23-.88.51-1.33.73a2,2,0,0,1-.46.14l-.29.05c-.24,0-.49-.13-.73-.09a.64.64,0,0,0-.41.31h0a2,2,0,0,1-.54-.16c-.26-.1-.51-.24-.77-.35l-.19.11a5.85,5.85,0,0,0,.06,1.33c.26,1,.6,2,.92,2.94.13.38.25.71-.3,1a2.4,2.4,0,0,1-.52.16.55.55,0,0,1-.7-.39,12.09,12.09,0,0,1-.27-1.72c-.1-.8-.17-1.61-.26-2.49-.44.4-.8.72-1.14,1.06a1.38,1.38,0,0,1-.65.44.43.43,0,0,1-.44-.23c-.53.26-1,.51-1.51.71h0c-.06,0-.17-.16-.27-.14h0c-.54,0-1.07,0-1.6,0-.06,0,0-.4-.07-.71-.68-.1-1.65.44-2.25-.44l.67-.43-.06-.15-.42.07c-1,.17-1.89.15-2.28-.88l1.25-.56c-1.12-.16-2.23,0-2.75-1l.81-.61a8,8,0,0,1-1.55-1.08c-.49-.55-.29-.87.55-1.12a4.26,4.26,0,0,0,.48-.17c-1.12-.21-2.18-.35-2.26-1.55l1.41-.54c-1.06-.6-1.85-1.23-1.71-2.54l1.36-.38c-1.19-.72-1.24-1.9-1.31-3.07,0-.33.1-.49.37-.55l.16,0c.35,0,.7-.07,1.22-.12-1.15-1.07-.78-2.45-.52-3.81l2.12.33c-.39-.7-.74-1.26-1-1.86a3,3,0,0,1-.2-.9c-.07-.72-.06-.94.34-1a4.36,4.36,0,0,1,.62-.07c.35,0,.7-.06,1.21-.11a4.68,4.68,0,0,1-.89-3.71c.61-.06,1.21-.13,1.82-.21-.25-1-.46-1.8-.68-2.64-.13-.47,0-.71.53-.84h.07l.31-.08c.54-.14.49-.25.26-.9,0-.06-.05-.11-.07-.17-.33-1-.3-1.07.83-1.42a.46.46,0,0,0,.18-.1c-.17-.6-.37-1.19-.51-1.8-.21-.91-.11-1.1.81-1.34l.14,0,.4-.13c-.07-.83-.14-1.63-.2-2.48l1,.08c-.1-.76-.16-1.41-.26-2.08a.6.6,0,0,1,.48-.8c.48-.14.48-.36.33-.68a2.3,2.3,0,0,1,.38-2.23,7.44,7.44,0,0,0-.05,1.33c0,.16.32.22.49.36a3.94,3.94,0,0,0,.22-.63c.16-.77.3-1.52.45-2.32.21-1.06.42-2.13.65-3.19a2.35,2.35,0,0,1,.33-.57,2,2,0,0,0,.23.43,2.4,2.4,0,0,0,.4.38c.11-.18.31-.37.32-.56a8.65,8.65,0,0,0,0-1.44,7.17,7.17,0,0,1,1.12-4.49m1.68-4.09c-.81,1.21-1.61,2.44-2.42,3.67a8.15,8.15,0,0,0-1.33,4.46l-.79,1.3a.31.31,0,0,1-.07.09,2.62,2.62,0,0,0-.41.84c-.17.78-.33,1.57-.48,2.35l-1.11,1.73a3.62,3.62,0,0,0-.67,2.7,2,2,0,0,0-.43.43,2,2,0,0,0-.35,1.25c0,.19.05.39.08.59l-1-.08c0,.48.07,1,.11,1.43l.12,1.5a2.16,2.16,0,0,0-1.1.82,2.13,2.13,0,0,0-.18,1.81q.11.45.24.9a1.9,1.9,0,0,0-.72.66,1.8,1.8,0,0,0-.06,1.64,1.9,1.9,0,0,0-.85.69,1.66,1.66,0,0,0-.21,1.43l.36,1.35-.43.05-.91.1c-.05.31-.11.62-.17.93a5.49,5.49,0,0,0,.21,2.84l-.2,0a1.71,1.71,0,0,0-1,.64,2.17,2.17,0,0,0-.3,1.68,3.87,3.87,0,0,0,.26,1.14l-.92-.14c-.07.39-.15.77-.22,1.16,0,.09,0,.18-.05.27a6.27,6.27,0,0,0-.12,2.78,1.7,1.7,0,0,0-.71.51,1.64,1.64,0,0,0-.36,1.15v.07a5.81,5.81,0,0,0,.49,2.32l-.43.11-.09.79A2.73,2.73,0,0,0,279,563l-.45.17c0,.27,0,.54.05.8a2,2,0,0,0,1.06,1.72h0a1.38,1.38,0,0,0,.35,1.56,3.56,3.56,0,0,0,.66.56l-.39.3.37.69a2.17,2.17,0,0,0,1.33,1.07c0,.12.09.23.13.35a2.17,2.17,0,0,0,2.12,1.45l.06.1a2.09,2.09,0,0,0,2.18.81.76.76,0,0,0,.74.67q.65,0,1.32,0l.17,0a.91.91,0,0,0,.63.11l.12,0,.11,0c.36-.14.7-.3,1.05-.47a1.3,1.3,0,0,0,.68.06,2.08,2.08,0,0,0,1-.51l.09.8a2.36,2.36,0,0,0,0,.28,9.19,9.19,0,0,0,.26,1.57,1.35,1.35,0,0,0,1.63,1,2.94,2.94,0,0,0,.8-.24,1.7,1.7,0,0,0,1-2.3v0c0-.12-.08-.25-.13-.38-.22-.67-.45-1.36-.65-2a1.15,1.15,0,0,0,.37,0l.45-.08.13-.17a1.54,1.54,0,0,0,.48,0l.38-.07a2.45,2.45,0,0,0,.73-.22c.29-.14.57-.29.82-.44a5.57,5.57,0,0,1,.55-.3,2.37,2.37,0,0,0,1.36-1.37c0-.07,0-.15.05-.22a5.49,5.49,0,0,0,.73-.36,2.26,2.26,0,0,0,1.12-1.56,1.71,1.71,0,0,0,0-.32,3,3,0,0,0,1.73-2.46c0-.22.05-.43.07-.65a3.76,3.76,0,0,0,1.21-2.4c0-.28.06-.56.08-.84l-.39-.06a7,7,0,0,0,.69-1.62,1.67,1.67,0,0,0-.07-1.47,1,1,0,0,0-.17-.19,4,4,0,0,0,.67-2.62c0-.25,0-.5-.07-.75h-.45a8.11,8.11,0,0,0,.42-1.35,1.54,1.54,0,0,0-.25-1.37,1,1,0,0,0-.75-.34,7.07,7.07,0,0,0,.36-2.33c0-1.2-.48-1.71-1.49-1.51a5.92,5.92,0,0,0,.1-1.1,1.91,1.91,0,0,0-.83-1.85l-.44-.22-.18.12a8.52,8.52,0,0,0,0-4.17c-.06-.21-.13-.42-.19-.63l-.69.13-.77.15a12.77,12.77,0,0,0,.23-1.33,2.17,2.17,0,0,0-1.6-2.37l-.34-.15a8.79,8.79,0,0,0,.07-1.13,4.51,4.51,0,0,0-.49-1.92.83.83,0,0,0-1-.34,2.49,2.49,0,0,0-.44.14h0v-3.77l0-1.23-1.15.61v-.18a4.83,4.83,0,0,0-.07-1.08c-.24-1.2-1-1.26-1.45-1.19,0-.37-.08-.74-.13-1.11l-.18-1.5c-.05-.41-.09-.82-.14-1.24l-.81.53a14.72,14.72,0,0,1,.25-4.56l.72-4A.57.57,0,0,1,294.5,512.72Z"/><path class="cls-26" d="M287.4,571.57c-.68-.1-1.65.44-2.25-.43l.68-.43-.07-.16c-1.15.25-2.25.37-2.7-.8l1.25-.56c-1.12-.16-2.23,0-2.75-1l.81-.61a8,8,0,0,1-1.55-1.08c-.48-.55-.29-.87.55-1.12a3.66,3.66,0,0,0,.48-.17c-1.12-.21-2.18-.35-2.26-1.55l1.41-.54c-1.05-.6-1.85-1.23-1.7-2.54l1.36-.38c-1.2-.72-1.24-1.9-1.32-3.07,0-.4.15-.55.54-.58l1.22-.12c-1.15-1.07-.79-2.45-.53-3.81l2.12.33c-.39-.7-.74-1.26-1-1.86a3,3,0,0,1-.21-.9c-.1-1,0-1.07,1-1.11.35,0,.7-.06,1.21-.11a4.69,4.69,0,0,1-.89-3.71l1.82-.21c-.25-1-.45-1.81-.68-2.64-.14-.5,0-.74.6-.86.86-.19.86-.22.57-1,0-.07-.05-.11-.07-.17-.33-1-.29-1.07.83-1.42l.19-.1c-.18-.61-.38-1.2-.52-1.8-.22-1-.09-1.12.94-1.37a2.35,2.35,0,0,0,.41-.13c-.07-.83-.13-1.65-.2-2.48l1,.08c-.1-.76-.16-1.41-.26-2.08a.6.6,0,0,1,.48-.8c.49-.14.49-.36.34-.68a2.3,2.3,0,0,1,.37-2.23,7.36,7.36,0,0,0-.05,1.32c0,.17.32.23.49.37a3.94,3.94,0,0,0,.22-.63c.17-.77.3-1.52.46-2.32.2-1.06.41-2.13.64-3.19a2.35,2.35,0,0,1,.33-.57,2.22,2.22,0,0,0,.23.43,2.4,2.4,0,0,0,.4.38c.11-.18.31-.37.33-.56a11.69,11.69,0,0,0,0-1.45,7.08,7.08,0,0,1,1.11-4.48,13.93,13.93,0,0,0,0,6l.71-.47c.15,1.21.29,2.43.43,3.64h0c.73-.59,1.15-.54,1.31.25a14.39,14.39,0,0,1,.07,1.48,4.78,4.78,0,0,0,.16.77l1-.54c0,.48,0,1,0,1.59,0,1-.06,1.9,0,2.84,0,.11.33.2.53.17s1-.38,1-.26a3.59,3.59,0,0,1,.4,1.55c0,.76-.15,1.55-.18,2.31a1.49,1.49,0,0,0,.92,1.49l.24-.13c-.1-.57-.19-1.15-.29-1.73.67.32,1.3.65,1.19,1.57s-.3,1.53-.48,2.42l1.93-.37c.52,1.71.08,3.62-.48,5.69l1.48-1a1.27,1.27,0,0,1,.43,1.14,6.6,6.6,0,0,1-.16,1.31c-.17.78-.07.88.69.65s.85-.13.86.64a5.74,5.74,0,0,1-.68,2.81c-.1.2-.18.41-.33.75l.92-.32c.6-.22.87-.08.74.56a12.15,12.15,0,0,1-.64,1.87,3.11,3.11,0,0,1-.27.55h1a3,3,0,0,1-1.74,3,5.51,5.51,0,0,0,.91.1c.55,0,.61.26.45.74a3.32,3.32,0,0,1-1.32,2.09l-.38.29a1.42,1.42,0,0,1,0,.22l1.22.17c-.1,1.11-1,2-2.71,2.86l1.45.17c-.13,1.25-1.16,1.54-2.07,2a.73.73,0,0,1,.22,1,1,1,0,0,1-.42.39,12.55,12.55,0,0,1-1.66.71c.51.56.45.76-.43,1.21-.45.23-.88.52-1.33.73a1.86,1.86,0,0,1-.75.17c-.38,0-.75-.36-1.15.2,0,0-.37-.07-.55-.14l-.77-.35a1.18,1.18,0,0,0-.19.11,5.88,5.88,0,0,0,.06,1.33c.26,1,.6,2,.92,2.94.13.37.26.7-.3,1s-1.09.25-1.22-.24a12.32,12.32,0,0,1-.27-1.72c-.09-.81-.17-1.61-.26-2.5-.44.41-.8.73-1.14,1.07s-.8.65-1.09.19c-.53.26-1,.51-1.51.7-.07,0-.2-.18-.31-.12-.53,0-1.06,0-1.59,0C287.4,572.28,287.41,571.89,287.4,571.57Z"/><path class="cls-27" d="M287.4,571.57c-.68-.1-1.65.44-2.25-.43l.68-.43-.07-.16c-1.15.25-2.25.37-2.7-.8l1.25-.56c-1.12-.16-2.23,0-2.75-1l.81-.61a8,8,0,0,1-1.55-1.08c-.48-.55-.29-.87.55-1.12a3.66,3.66,0,0,0,.48-.17c-1.12-.21-2.18-.35-2.26-1.55l1.41-.54c-1.05-.6-1.85-1.23-1.7-2.54l1.36-.38c-1.2-.72-1.24-1.9-1.32-3.07,0-.4.15-.55.54-.58l1.22-.12c-1.15-1.07-.79-2.45-.53-3.81l2.12.33c-.39-.7-.74-1.26-1-1.86a3,3,0,0,1-.21-.9c-.1-1,0-1.07,1-1.11.35,0,.7-.06,1.21-.11a4.69,4.69,0,0,1-.89-3.71l1.82-.21c-.25-1-.45-1.81-.68-2.64-.14-.5,0-.74.6-.86.86-.19.86-.22.57-1,0-.07-.05-.11-.07-.17-.33-1-.29-1.07.83-1.42l.19-.1c-.18-.61-.38-1.2-.52-1.8-.22-1-.09-1.12.94-1.37a2.35,2.35,0,0,0,.41-.13c-.07-.83-.13-1.65-.2-2.48l1,.08c-.1-.76-.16-1.41-.26-2.08a.6.6,0,0,1,.48-.8c.49-.14.49-.36.34-.68a2.3,2.3,0,0,1,.37-2.23,7.36,7.36,0,0,0-.05,1.32c0,.17.32.23.49.37a3.94,3.94,0,0,0,.22-.63c.17-.77.3-1.52.46-2.32.2-1.06.41-2.13.64-3.19a2.35,2.35,0,0,1,.33-.57,2.22,2.22,0,0,0,.23.43,2.4,2.4,0,0,0,.4.38c.11-.18.31-.37.33-.56a11.69,11.69,0,0,0,0-1.45,7.08,7.08,0,0,1,1.11-4.48,13.93,13.93,0,0,0,0,6l.71-.47c.15,1.21.29,2.43.43,3.64h0c.73-.59,1.15-.54,1.31.25a14.39,14.39,0,0,1,.07,1.48,4.78,4.78,0,0,0,.16.77l1-.54c0,.48,0,1,0,1.59,0,1-.06,1.9,0,2.84,0,.11.33.2.53.17s1-.38,1-.26a3.59,3.59,0,0,1,.4,1.55c0,.76-.15,1.55-.18,2.31a1.49,1.49,0,0,0,.92,1.49l.24-.13c-.1-.57-.19-1.15-.29-1.73.67.32,1.3.65,1.19,1.57s-.3,1.53-.48,2.42l1.93-.37c.52,1.71.08,3.62-.48,5.69l1.48-1a1.27,1.27,0,0,1,.43,1.14,6.6,6.6,0,0,1-.16,1.31c-.17.78-.07.88.69.65s.85-.13.86.64a5.74,5.74,0,0,1-.68,2.81c-.1.2-.18.41-.33.75l.92-.32c.6-.22.87-.08.74.56a12.15,12.15,0,0,1-.64,1.87,3.11,3.11,0,0,1-.27.55h1a3,3,0,0,1-1.74,3,5.51,5.51,0,0,0,.91.1c.55,0,.61.26.45.74a3.32,3.32,0,0,1-1.32,2.09l-.38.29a1.42,1.42,0,0,1,0,.22l1.22.17c-.1,1.11-1,2-2.71,2.86l1.45.17c-.13,1.25-1.16,1.54-2.07,2a.73.73,0,0,1,.22,1,1,1,0,0,1-.42.39,12.55,12.55,0,0,1-1.66.71c.51.56.45.76-.43,1.21-.45.23-.88.52-1.33.73a1.86,1.86,0,0,1-.75.17c-.38,0-.75-.36-1.15.2,0,0-.37-.07-.55-.14l-.77-.35a1.18,1.18,0,0,0-.19.11,5.88,5.88,0,0,0,.06,1.33c.26,1,.6,2,.92,2.94.13.37.26.7-.3,1s-1.09.25-1.22-.24a12.32,12.32,0,0,1-.27-1.72c-.09-.81-.17-1.61-.26-2.5-.44.41-.8.73-1.14,1.07s-.8.65-1.09.19c-.53.26-1,.51-1.51.7-.07,0-.2-.18-.31-.12-.53,0-1.06,0-1.59,0C287.4,572.28,287.41,571.89,287.4,571.57Z"/><path d="M248.84,539.25a2.82,2.82,0,0,1,2.52,2.7,2.17,2.17,0,0,1-2.52,2.17,3,3,0,0,1-2.53-2.8A2.12,2.12,0,0,1,248.84,539.25Z"/><path d="M336.29,528a3.12,3.12,0,0,1,2.52,3,2.1,2.1,0,0,1-2.52,2.15,3.06,3.06,0,0,1-2.53-2.93A2.18,2.18,0,0,1,336.29,528Z"/><path d="M254.12,520l.33-.36q3.8,0,7.59-.36-1.95-1.82-3.9-3.71l1-1.21c2.05,2,4.1,3.92,6.15,5.77l-.28.34c-2.51.33-5,.58-7.54.73q1.89,1.85,3.77,3.61l-1,1.19C258.2,524,256.16,522,254.12,520Z"/><path d="M263.12,510.66c1.55-1.24,3.09-2.5,4.64-3.78l.75,1.16c-1.13.94-2.26,1.86-3.39,2.78l1.3,2c1-.84,2.06-1.69,3.08-2.55l.72,1.1c-1,.86-2.05,1.7-3.07,2.54l1.11,1.67,3.39-2.82.76,1.11c-1.55,1.3-3.09,2.6-4.64,3.87Q265.45,514.29,263.12,510.66Z"/><path d="M271.78,504.17l5.15-2.87.48,1.29-3.75,2.09.87,2.25,3.38-1.94c.16.41.32.82.49,1.23L275,508.17c.26.63.52,1.27.78,1.89,1.25-.71,2.5-1.44,3.75-2.16.16.42.33.84.49,1.25-1.72,1-3.43,2-5.15,3C273.85,509.54,272.81,506.88,271.78,504.17Z"/><path d="M291.23,505l-1.45.46c-.22-1.57-.45-3.15-.67-4.74-.65,1.87-1.29,3.76-1.94,5.66l-.51.16q-1.64-2-3.27-4c.2,1.61.41,3.21.61,4.8l-1.45.47c-.3-2.88-.59-5.77-.88-8.7l.66-.18c1.42,1.76,2.85,3.48,4.28,5.14.86-2.38,1.73-4.75,2.6-7.09l.66-.18C290.32,499.58,290.78,502.32,291.23,505Z"/><path d="M299.39,496l7,.42c-.1.43-.19.86-.29,1.28l-2.71-.15c-.51,2.23-1,4.5-1.52,6.8l-1.47,0c.5-2.31,1-4.59,1.51-6.85l-2.77-.15Z"/><path d="M310,497.06l2.48.68a3.9,3.9,0,0,1,1.26.57,2.46,2.46,0,0,1,.72.82,2,2,0,0,1,.18,1,2.94,2.94,0,0,1-.31,1.13,3.49,3.49,0,0,1-1,1.28,3.17,3.17,0,0,1-1.5.66c.26,1,.53,2.08.8,3.13l-1.6-.42c-.21-.91-.41-1.81-.62-2.7-.23,0-.48-.09-.71-.15l-.84-.22-1,2.26-1.36-.35C307.67,502.13,308.83,499.56,310,497.06Zm.8,1.59c-.46,1-.91,2-1.37,3l1,.27a2.45,2.45,0,0,0,.86.09,1.84,1.84,0,0,0,.68-.17,1.54,1.54,0,0,0,.51-.4,2.23,2.23,0,0,0,.36-.56,2.18,2.18,0,0,0,.18-.6,1.09,1.09,0,0,0-.07-.54,1.2,1.2,0,0,0-.39-.45,2.42,2.42,0,0,0-.77-.33Z"/><path d="M319.56,500.33c1.48.83,3,1.69,4.45,2.58L323.2,504c-1.08-.64-2.16-1.27-3.24-1.88-.47.63-.94,1.26-1.41,1.91l2.94,1.68-.79,1c-1-.57-2-1.13-2.95-1.68l-1.2,1.66c1.09.6,2.18,1.21,3.27,1.84-.28.37-.55.75-.82,1.12-1.48-.85-3-1.67-4.45-2.47C316.22,504.84,317.89,502.56,319.56,500.33Z"/><path d="M327.34,505.52c1.23,1.22,2.47,2.48,3.71,3.8l-1,.86c-.9-.95-1.81-1.87-2.71-2.77L325.56,509c.81.81,1.63,1.63,2.45,2.47l-1,.87c-.82-.84-1.63-1.65-2.45-2.45l-1.5,1.38c.9.87,1.8,1.76,2.7,2.68l-1,.93c-1.24-1.25-2.47-2.45-3.71-3.62Q324.19,508.27,327.34,505.52Z"/><path d="M243,559.93c-.13-.5-.27-1-.4-1.5a63.34,63.34,0,0,0,9.31,3.2l.09.31a82.61,82.61,0,0,1-7.25,4.31l-.42-1.5c.48-.23,1-.47,1.45-.72-.32-1.13-.64-2.26-1-3.41Zm3.12,1.16c.23.8.45,1.59.67,2.38.83-.44,1.67-.91,2.5-1.4C248.25,561.78,247.2,561.45,246.14,561.09Z"/><path d="M253.65,574.59c-1.07.41-2.14.79-3.22,1.15a9.75,9.75,0,0,1-.84-.59,8.2,8.2,0,0,1-.78-.78,6.17,6.17,0,0,1-1.4-2.87,3.44,3.44,0,0,1,.11-1.54,2.88,2.88,0,0,1,.78-1.22,3.79,3.79,0,0,1,1.37-.79,4.74,4.74,0,0,1,1.69-.22,5.23,5.23,0,0,1,1.7.37,5.4,5.4,0,0,1,1.51.87,4.9,4.9,0,0,1,1.13,1.32,5.31,5.31,0,0,1,.48,1.06,5.25,5.25,0,0,1,.23.84,2.8,2.8,0,0,1,.07.76l-1.38,0a5.35,5.35,0,0,0-.07-.65,5,5,0,0,0-.17-.64,3.11,3.11,0,0,0-.31-.7,3.64,3.64,0,0,0-.8-1,3.53,3.53,0,0,0-1-.62,3.43,3.43,0,0,0-2.31,0,2.59,2.59,0,0,0-.94.55,2,2,0,0,0-.53.81,2.22,2.22,0,0,0-.08,1,3,3,0,0,0,.37,1.09,5.79,5.79,0,0,0,.6.89,6,6,0,0,0,.61.63l1.33-.46-1.11-2,1.19-.42C252.46,572.53,253.05,573.56,253.65,574.59Z"/><path d="M258.64,574.82c.6.61,1.18,1.22,1.77,1.81a3.87,3.87,0,0,1,.8,1.11,2.28,2.28,0,0,1,.22,1,2,2,0,0,1-.3,1,2.93,2.93,0,0,1-.79.82,3.11,3.11,0,0,1-1.42.6,2.92,2.92,0,0,1-1.57-.23c-.25,1-.51,2-.76,2.94l-1.14-1.19c.24-.82.48-1.66.72-2.5-.17-.15-.34-.32-.52-.5l-.61-.64-1.87,1.22-1-1.06C254.35,577.86,256.5,576.4,258.64,574.82Zm-.06,1.79c-.84.61-1.69,1.2-2.53,1.78.24.25.48.51.73.76a2.66,2.66,0,0,0,.67.53,2,2,0,0,0,.66.21,1.6,1.6,0,0,0,.61-.07,2,2,0,0,0,.56-.3,1.53,1.53,0,0,0,.43-.41.88.88,0,0,0,.19-.49,1.28,1.28,0,0,0-.11-.58,2.4,2.4,0,0,0-.49-.67Z"/><path d="M261.44,583.07a4.42,4.42,0,0,1,1.29-1,5.43,5.43,0,0,1,1.6-.5,5.82,5.82,0,0,1,1.72,0,5.07,5.07,0,0,1,1.64.62,4.57,4.57,0,0,1,1.27,1.12,3.12,3.12,0,0,1,.62,1.36,3.06,3.06,0,0,1-.06,1.47,3.7,3.7,0,0,1-.76,1.42,4.4,4.4,0,0,1-2.91,1.54,5.46,5.46,0,0,1-1.71-.09,5.27,5.27,0,0,1-1.65-.7,4.61,4.61,0,0,1-1.26-1.14,3.13,3.13,0,0,1-.55-2.77A3.34,3.34,0,0,1,261.44,583.07Zm1.29.83a2.55,2.55,0,0,0-.53.93,2.12,2.12,0,0,0-.07,1,2.25,2.25,0,0,0,.37.91,2.76,2.76,0,0,0,.78.74,3.09,3.09,0,0,0,1.07.41,3.31,3.31,0,0,0,2.2-.32,3.27,3.27,0,0,0,.9-.74,2.74,2.74,0,0,0,.54-1,2.14,2.14,0,0,0-.28-1.9,2.62,2.62,0,0,0-.81-.74,3.22,3.22,0,0,0-2.21-.4,3.18,3.18,0,0,0-1.06.37,3.27,3.27,0,0,0-.9.74Z"/><path d="M280.8,593.32a2.12,2.12,0,0,1-1.31,1.35,3.86,3.86,0,0,1-2.33,0,5.36,5.36,0,0,1-1.37-.57,5.68,5.68,0,0,1-1.07-.81c.31-.34.62-.67.92-1a4.83,4.83,0,0,0,.92.76,3.89,3.89,0,0,0,1.06.47,1.88,1.88,0,0,0,1.15,0,.92.92,0,0,0,.56-.55.87.87,0,0,0,.05-.36.89.89,0,0,0-.17-.37,2.14,2.14,0,0,0-.43-.42,7.28,7.28,0,0,0-.78-.57,6.27,6.27,0,0,1-.85-.67,2.37,2.37,0,0,1-.49-.65,1.37,1.37,0,0,1-.16-.63,2.09,2.09,0,0,1,.56-1.43,2.48,2.48,0,0,1,.77-.58,3.26,3.26,0,0,1,1-.31,3.76,3.76,0,0,1,1.21.07,4.52,4.52,0,0,1,1.2.43,4,4,0,0,1,.87.59l-.86,1.11a5,5,0,0,0-.74-.54,2.66,2.66,0,0,0-.91-.4,1.5,1.5,0,0,0-1,.07,1,1,0,0,0-.52.61.67.67,0,0,0,.15.7,4.92,4.92,0,0,0,1,.84,7.29,7.29,0,0,1,1,.77,2.84,2.84,0,0,1,.54.71,1.54,1.54,0,0,1,.17.7A2.16,2.16,0,0,1,280.8,593.32Z"/><path d="M283.84,592.09a4.39,4.39,0,0,1,1.58-2.93,5.23,5.23,0,0,1,1.51-.89,5.09,5.09,0,0,1,1.8-.31,4.5,4.5,0,0,1,1.79.35,3.78,3.78,0,0,1,1.36.94,3.93,3.93,0,0,1,.83,1.41,4.56,4.56,0,0,1,.18,1.8,4.32,4.32,0,0,1-.48,1.75,4.19,4.19,0,0,1-1.07,1.33,4.45,4.45,0,0,1-1.51.82,4.93,4.93,0,0,1-1.83.19,5.09,5.09,0,0,1-1.77-.46,4.3,4.3,0,0,1-1.36-1,3.91,3.91,0,0,1-1-3Zm1.62.09a2.79,2.79,0,0,0,.12,1.15,2.62,2.62,0,0,0,.54,1,2.89,2.89,0,0,0,.87.68,3,3,0,0,0,2.29.15,3.21,3.21,0,0,0,1-.58,2.88,2.88,0,0,0,.7-.92,2.94,2.94,0,0,0,.32-1.2,3.13,3.13,0,0,0-.11-1.22,2.55,2.55,0,0,0-.52-1,2.45,2.45,0,0,0-.87-.66,2.84,2.84,0,0,0-1.15-.26,3.08,3.08,0,0,0-1.19.21,3.3,3.3,0,0,0-1,.6,3.26,3.26,0,0,0-.7.92,3,3,0,0,0-.3,1.16Z"/><path d="M295.54,587.69l1.48-.31q.45,3.64.92,7.38l4-.63.18,1.49-5.48.8C296.26,593.47,295.9,590.57,295.54,587.69Z"/><path d="M302.5,586.1l1.42-.62q.81,2.52,1.61,5.1a2.71,2.71,0,0,0,1.07,1.64,1.81,1.81,0,0,0,1.59,0,2.19,2.19,0,0,0,1.25-1.16,3.09,3.09,0,0,0,0-2.1c-.54-1.76-1.07-3.49-1.61-5.19l1.42-.63c.54,1.72,1.07,3.47,1.61,5.25a6.08,6.08,0,0,1,.29,1.86,4.08,4.08,0,0,1-.32,1.51,3.17,3.17,0,0,1-.85,1.15A4.59,4.59,0,0,1,307.2,594a2.73,2.73,0,0,1-2.32-1.22,5.29,5.29,0,0,1-.76-1.61C303.58,589.43,303,587.76,302.5,586.1Z"/><path d="M310.72,582.27c2-1.49,4.09-3,6.13-4.46l.71,1.34-2.42,1.73c1.24,2.27,2.47,4.61,3.71,7l-1.3.91q-1.83-3.6-3.67-7l-2.41,1.75Z"/><path d="M318.33,576.29l1.15-1.14q2.72,3.69,5.41,7.65l-1.15,1.1Q321,580,318.33,576.29Z"/><path d="M324.65,576.68a5.25,5.25,0,0,1-1.09-1.62,5.76,5.76,0,0,1-.46-1.88,5.68,5.68,0,0,1,.22-1.93,5.32,5.32,0,0,1,.89-1.8,4.77,4.77,0,0,1,1.42-1.31,3.53,3.53,0,0,1,1.63-.53,3.6,3.6,0,0,1,1.67.29,4.69,4.69,0,0,1,1.56,1.12,5.28,5.28,0,0,1,1.11,1.69,5.67,5.67,0,0,1,.45,1.91,5.35,5.35,0,0,1-1.12,3.69,4.27,4.27,0,0,1-1.42,1.23,3.85,3.85,0,0,1-1.62.48,3.9,3.9,0,0,1-1.68-.29A4.62,4.62,0,0,1,324.65,576.68Zm1.06-1.39a3.33,3.33,0,0,0,1.06.74,2.62,2.62,0,0,0,2.24,0,2.71,2.71,0,0,0,.92-.77,3.25,3.25,0,0,0,.56-1.15,3.7,3.7,0,0,0,.1-1.29,3.78,3.78,0,0,0-.33-1.28,4.35,4.35,0,0,0-.78-1.17,3.76,3.76,0,0,0-1.07-.78,2.7,2.7,0,0,0-1.14-.25,2.46,2.46,0,0,0-1.08.29,3.29,3.29,0,0,0-1.51,2,3.65,3.65,0,0,0-.1,1.28,3.93,3.93,0,0,0,.34,1.26,4,4,0,0,0,.81,1.17Z"/><path d="M328.31,563.6l.21-.47a68.09,68.09,0,0,1,7.23-1.79q-2.44-1.76-4.89-3.28l.66-1.42q3.84,2.45,7.7,5.42l-.18.35a63.32,63.32,0,0,0-7.13,1.58c1.58,1,3.16,2.13,4.74,3.28-.22.47-.44.94-.65,1.42Q332.16,565.92,328.31,563.6Z"/><path d="M339.62,551.13a3.12,3.12,0,0,1,1.54,1.72,4.64,4.64,0,0,1-.48,3.94,4.69,4.69,0,0,1-.87,1l-1.19-1.2a3.74,3.74,0,0,0,.81-.87,3.44,3.44,0,0,0,.49-1.08,2.06,2.06,0,0,0,0-1.27,1.29,1.29,0,0,0-1-.83.71.71,0,0,0-.4.11,1.75,1.75,0,0,0-.48.42,7.67,7.67,0,0,0-.61.77,5.37,5.37,0,0,1-.73.84,2.23,2.23,0,0,1-.71.46,1.48,1.48,0,0,1-.7.11,1.91,1.91,0,0,1-.73-.18,2.65,2.65,0,0,1-.85-.57,2.9,2.9,0,0,1-.63-.88,3.24,3.24,0,0,1-.32-1.13,3.87,3.87,0,0,1,.08-1.32,5.21,5.21,0,0,1,.49-1.28,3.57,3.57,0,0,1,.65-.89l1.17,1a6.29,6.29,0,0,0-.59.75,2.85,2.85,0,0,0-.41,1,1.62,1.62,0,0,0,.07,1.14,1.28,1.28,0,0,0,.67.63.76.76,0,0,0,.77-.09,4.5,4.5,0,0,0,.9-1,6.33,6.33,0,0,1,.84-.94,2.33,2.33,0,0,1,.76-.48,1.53,1.53,0,0,1,.74-.08A2.54,2.54,0,0,1,339.62,551.13Z"/></g></g></g><g id="Text"><path class="cls-28" d="M512.58,424.18h69.14V445H537.35v25.4h37.91v20.78H537.35v42.61H512.58Z"/><path class="cls-28" d="M590.13,510.61c0-17.57,14-27.09,47-30.57C636.6,472.75,633,468,623.91,468c-7,0-14,2.94-22.07,7.53l-8.79-16.22c10.59-6.47,22.51-11,35.63-11,21.32,0,33.13,12.18,33.13,37.74v47.68H641.65l-1.78-8.54h-.62c-7,6.17-14.89,10.56-24.26,10.56C599.78,535.76,590.13,524.66,590.13,510.61Zm47-1.1V494.94c-17.58,2.37-23.31,7.39-23.31,13.7,0,5.38,3.7,8,9.57,8C629,516.64,632.71,513.88,637.1,509.51Z"/><path class="cls-28" d="M684.27,450.34h20.16l1.78,14.57h.62c6.07-11.13,15.19-16.59,23.69-16.59,4.77,0,7.54.61,10,1.68l-4.12,21.33a34,34,0,0,0-9-1.34c-6.29,0-13.93,4.05-18.38,15.42v48.33H684.27Z"/><path class="cls-28" d="M752.91,450.34h20.16l1.78,10.7h.61c6.84-6.88,14.32-12.72,25.28-12.72,11.72,0,18.81,5.06,23,14,7.33-7.65,15.17-14,26.18-14,18,0,26.09,12.8,26.09,33.64v51.78H851.32V485.13c0-12-3.28-15.76-10.3-15.76-4.19,0-8.94,2.61-14.2,8.11v56.26H802.11V485.13c0-12-3.28-15.76-10.3-15.76-4.13,0-8.93,2.61-14.19,8.11v56.26H752.91Z"/><path class="cls-28" d="M512,610.93V552.14h24.77v61.33c0,21.45,6.76,28.87,19,28.87s19.42-7.42,19.42-28.87V552.14h23.88v58.79c0,36.79-14.95,52.79-43.3,52.79S512,647.72,512,610.93Z"/><path class="cls-28" d="M623.93,578.3h20.16l1.78,10.56h.61c7-6.74,15.43-12.57,26.8-12.57,18.14,0,25.87,12.79,25.87,33.64v51.78H674.44V613.1c0-12-3.23-15.76-10.36-15.76-6.21,0-10,2.88-15.44,8.1v56.27H623.93Z"/><path class="cls-28" d="M716.94,620c0-27.72,20.42-43.74,43.46-43.74a36.28,36.28,0,0,1,24.37,9l-11.68,15.89c-4-3.38-7.33-4.92-11.31-4.92-11.88,0-19.51,9.37-19.51,23.8s8,23.75,18.68,23.75c5.48,0,10.72-2.71,15-6.15l9.67,16.17c-8.11,7.16-18.45,9.92-27.49,9.92C734.9,663.72,716.94,647.7,716.94,620Z"/><path class="cls-28" d="M802.05,635.79V543.93h24.71V636.8c0,5.3,2.45,7,4.47,7a10.71,10.71,0,0,0,3-.34l2.94,18.23c-2.72,1.16-6.78,2.05-12.4,2.05C807.85,663.72,802.05,652.66,802.05,635.79Z"/><path class="cls-28" d="M847,620c0-27,19.3-43.74,39.34-43.74,23.75,0,35.52,17.26,35.52,40a55.44,55.44,0,0,1-1,10.92H870.91c2.22,12.1,10.5,17.65,21.63,17.65,6.31,0,12-1.92,18-5.46l8.17,14.9a54.32,54.32,0,0,1-29.59,9.39C865.38,663.72,847,647.64,847,620Zm53.75-9.13c0-9.18-4-15.78-13.86-15.78-7.81,0-14.55,5.24-16.23,15.78Z"/></g></g></svg>