<svg xmlns="http://www.w3.org/2000/svg" viewBox="0 0 450.46 244.9"><defs><style>.cls-1{fill:#16efcf;}</style></defs><title>Cold Storage</title><g id="Layer_2" data-name="Layer 2"><g id="Layer_5" data-name="Layer 5"><g id="Storage"><path class="cls-1" d="M87,1.56l20.83-.1,71.52,0c.19,0,.22-.06,0-.24-.6-.21-1.36.18-2-.32L207.31.64Q245.56.34,283.8,0c.65,0,1.29,0,1.94,0A3.14,3.14,0,0,1,289,3.24c0,.46,0,.93,0,1.4V193c0,3.42-1,4.44-4.33,4.44q-60.84,0-121.7,0c-1.69,0-2.2-.43-2.51-2.14-3.37-19-14.12-32.11-32.09-38.87-23.4-8.81-50.55,2.7-61,25.41a47.31,47.31,0,0,0-4.2,14.43c-.17,1.45-1.07,1.12-1.87,1.12l-39.57,0a12.37,12.37,0,0,1-4.48-.74c-3.94-1.51-5.81-4.55-6.15-8.61-.14-1.69-.06-3.39-.06-5.09q0-84,0-167.95a16.07,16.07,0,0,1,1.24-7,9.75,9.75,0,0,1,9-5.87q32.13,0,64.26,0c.51,0,1.24.32,1.43-.57M179.8,53.5q7.38,0,14.75,0c.51,0,1.24.31,1.4-.6-.17-1.43.64-3.29-.38-4.2s-2.81-.24-4.26-.27c-2,0-4,0-6.23,0,2.39-3.21,2.61-3.33,5.95-3.33h12.49c4,0,3.93,0,3.93-3.94,0-1.19-.3-1.64-1.57-1.61-3.45.08-6.92,0-10.38,0-.47,0-1,.23-1.49-.33.88-1,2.53-2,2.42-2.78-.15-1.08-1.68-1.94-2.54-3-.7-.82-1.24-.82-2,0-.59.63-1.08,1.47-2,1.73a4,4,0,0,1-.13-.43c0-3,0-6,0-9,0-4,0-4-4.08-3.95-1.19,0-1.48.39-1.46,1.51.05,5.1-.18,10.21.1,15.29.15,2.8-1.45,4-3.35,5.61V36.64c0-3.31,0-3.27-3.3-3.19-1,0-1.32.32-1.31,1.31,0,3.4-.23,6.82.09,10.19a7.73,7.73,0,0,1-3.12,7.24c-1.09.91-1.37.65-1.67-.5-.72-2.83-1.66-5.63-2.17-8.5-.77-4.3-4.32-5.75-8-3.25-2.8,1.93-5.88,3.46-9.07,5.3,0-1.54.08-2.77,0-4a3.8,3.8,0,0,1,1.38-3.36c2.84-2.68,5.5-5.57,8.36-8.23,1.27-1.19,1.26-2-.08-3a2.32,2.32,0,0,1-.49-.5c-.85-1.22-1.61-1.09-2.58,0-2,2.18-4.06,4.26-6.29,6.58-.67-4-.57-4.35,1.84-6.77,2.9-2.89,5.78-5.8,8.67-8.69s2.94-3,0-5.91c-.84-.84-1.25-.62-1.93.09q-3.74,3.82-7.57,7.59c-.32.32-.53,1-1.29.74,0-1,0-2,0-3,0-.4.05-.92-.52-.94-1.58-.06-3.3-.48-4.68.19-.82.39-.18,2-.32,3,0,.27.1.59-.54.91-2.11-2.19-4.27-4.47-6.48-6.69-2.77-2.79-2.75-2.73-5.48,0-.88.87-1,1.34,0,2.3,3.74,3.6,7.27,7.43,11.09,10.94,2,1.82,1.38,3.75,1.34,6.1L141.24,27c-2.13-2.13-2.07-2.07-4.2-.06-1,1-.95,1.56,0,2.49,3,2.87,5.91,5.81,8.83,8.75.39.4,1,.7,1,1.38,0,1.78,0,3.57,0,5.61l-9.19-5.36a6.64,6.64,0,0,0-2.56-1.1c-2.75-.3-4.37,1.16-5.18,4.55-.71,3-1.48,5.9-2.27,8.84-.09.33,0,1.08-.78.8-1.22-.43-3.75-4-3.75-5.33q0-6.26,0-12.49c0-.51.21-1.37-.28-1.45a10.72,10.72,0,0,0-3.83,0c-.88.2-.42,1.32-.43,2,0,2.79,0,5.59,0,8.52-2.72-1.54-3.4-2.62-3.4-5.16V26c0-4.28,0-4.24-4.27-4.11-1.07,0-1.27.43-1.26,1.36,0,3.4,0,6.8,0,10.2,0,.59.19,1.26-.27,1.82-1.24-.59-1.83-2.47-3-2.26s-1.88,1.64-2.85,2.48c-.79.69-.87,1.23,0,2a5.27,5.27,0,0,1,1.79,2.16H96c-4.07,0-4,0-4,4,0,1.28.41,1.55,1.6,1.54,5.15-.06,10.32.13,15.47-.1,2.65-.11,3.76,1.47,5.35,3.39h-2c-2.47,0-4.93,0-7.39,0-.48,0-1.26-.18-1.26.56,0,1.37-.44,2.79.3,4.11.27.55.79.4,1.23.4l14.36,0a24.7,24.7,0,0,1,3.67,3.7,3.61,3.61,0,0,1-.6.3c-3.05.8-6.08,1.73-9.18,2.35-4.46.9-5.87,4.27-3.47,7.88,1.9,2.84,3.48,5.9,5.36,9.14a31.83,31.83,0,0,0-3.42,0,4.65,4.65,0,0,1-4.29-1.72c-2.59-2.78-5.39-5.36-8-8.13-1.09-1.16-1.83-1.14-2.71.08a2.07,2.07,0,0,1-.49.49c-1.32.93-1.34,1.73-.06,2.84,2.18,1.88,4.2,3.94,6.29,5.92l-.36.43c-2,0-3.93.53-5.71-1.4C93,71.47,89.28,67.68,85.33,64.13,83.41,62.41,83,65.39,81.81,66c-.79.38-1.41,1-.33,2s2.19,2.11,3.26,3.18l5.62,5.71c-1.37,0-2.3,0-3.23,0-.46,0-1.08-.09-1.12.55-.08,1.57-.48,3.29.18,4.66.39.83,2,.19,3,.32a1,1,0,0,1,1,.53C88,85,85.69,87.19,83.45,89.38c-2.92,2.87-2.88,2.85.07,5.75.78.77,1.19.75,1.94,0,3.56-3.63,7.35-7.06,10.72-10.86,1.89-2.12,3.91-2,6.72-1.73-2.11,2-3.91,3.76-5.68,5.51-2.21,2.19-2.15,2.15,0,4.41.83.84,1.31.8,2.1,0,2.55-2.65,5.41-5,7.71-7.89s5.16-2,8.27-2.14c-2,3.5-3.94,6.65-5.76,9.84s-.57,5.94,2.76,6.87c2.82.78,5.66,1.48,8.49,2.22.78.2,2,.08,2.19.81s-1,1.15-1.42,1.8c-1.38,2-3.25,2.49-5.6,2.35-3.39-.19-6.8,0-10.2-.09-1.7-.06-2.42.29-2.26,2.17.22,2.64-.37,2.42,2.49,2.44,2.34,0,4.69,0,7,0,.41,0,.94-.27,1.2.2-1.48,2.51-3.59,3.29-6.48,3.13-4.85-.25-9.72-.06-14.59-.07-.71,0-1.4.06-1.21,1,.31,1.51-.82,3.23.65,4.51.24.21.8,0,1.21,0,3.45,0,6.91,0,10.37,0,.42,0,.94-.25,1.28.29-.86,1-2.3,1.85-2.4,2.87s1.6,1.82,2.4,2.82,1.29,1.16,2.13.05a4.1,4.1,0,0,1,1.91-1.66,1.63,1.63,0,0,1,.13.4c0,3,0,6,0,9,0,4,0,3.89,3.94,4,1.43,0,1.61-.52,1.59-1.73,0-5,.17-10-.1-14.94-.14-2.76,1.37-4.08,3.48-5.75,0,2.88,0,5.43,0,8,0,3.39-.55,2.8,3,2.94,1.27,0,1.59-.45,1.57-1.63,0-3.34.22-6.7-.09-10a7.57,7.57,0,0,1,3.16-7.23c.93-.73,1.23-.87,1.53.39.71,3,1.49,5.9,2.23,8.85,1.1,4.35,3.82,5.49,7.74,3.21,2.62-1.53,5.23-3.1,7.87-4.59.34-.2.84-.92,1.29-.1.57,1-.15,5.45-1,6.29-2.69,2.69-5.39,5.36-8.07,8-2,2-1.94,1.95,0,4.05,1,1,1.56,1,2.49,0,2-2.19,4.09-4.27,6.41-6.67.36,2.93.29,5-1.86,6.89-3.67,3.25-6.95,6.93-10.49,10.32-1.05,1-1,1.63,0,2.43a7.38,7.38,0,0,1,.62.63c2,2.09,2,2.1,4,.08,2.46-2.52,4.9-5.06,7.36-7.59l.5.29c0,1,0,1.94,0,2.91,0,.82.35,1.28,1.16,1.1,1.43-.32,3.14.86,4.3-.69.25-.35,0-1,.06-1.56s-.26-1.26.42-2c2.24,2.27,4.43,4.52,6.64,6.75,2.72,2.74,2.69,2.69,5.53,0,.88-.84,1-1.32,0-2.21-3.68-3.57-7.18-7.36-11-10.81-2.05-1.87-1.69-3.89-1.52-6.37l5.51,5.56c2.22,2.23,2.17,2.18,4.41,0,.91-.9.78-1.39-.08-2.22-2.45-2.34-4.66-4.93-7.23-7.12a7.16,7.16,0,0,1-2.79-6.84c.22-1.88.1-1.93,1.81-.93,2.73,1.59,5.42,3.23,8.18,4.77,3.07,1.72,5.89.51,6.8-2.85.75-2.77,1.46-5.55,2.17-8.32.2-.79.13-2,.82-2.2.85-.28,1.25,1,1.94,1.45,1.87,1.29,2.33,3.07,2.23,5.29-.18,3.75,0,7.5-.07,11.26,0,1,.26,1.54,1.37,1.4a5.12,5.12,0,0,1,1.41,0c1.49.21,1.91-.42,1.85-1.87-.1-2.9,0-5.8,0-9.06,1.84,1.6,3.49,2.62,3.35,5.22-.24,4.33-.07,8.68-.07,13s0,4.41,4.39,4.21c1,0,1.15-.42,1.14-1.27q0-5.26,0-10.55c0-.52-.3-1.16.63-1.85.65.78,1.31,1.6,2,2.38.21.24.46.69.84.32a16.72,16.72,0,0,0,3.32-3.53c.33-.62-1.31-1.42-1.9-2.27-.18-.25-.67-.34-.42-.92h9.42c3.83,0,3.75,0,3.83-3.87,0-1.5-.54-1.71-1.83-1.7-5.1.06-10.21-.14-15.3.09-2.66.12-3.65-1.62-5.37-3.35h8c3.44,0,2.89.41,3-3,0-1.2-.28-1.64-1.55-1.61-3.34.08-6.7-.2-10,.09a7.51,7.51,0,0,1-7.11-3c-1.09-1.37-1.17-1.4.61-1.86,3-.77,6-1.51,9-2.3,3.53-.93,4.75-3.69,3-6.86-1.1-2-2.33-3.92-3.43-5.92a18.52,18.52,0,0,1-2.11-4,30.65,30.65,0,0,0,3.47,0,4.18,4.18,0,0,1,3.82,1.55c2.36,2.51,4.85,4.9,7.27,7.34,2.28,2.28,2.23,2.23,4.57,0,.89-.86.73-1.3-.09-2-2.26-2.08-4.44-4.24-7-6.68,3-.26,5.07-.37,7,1.87,2.66,3.16,5.82,5.9,8.74,8.83s3,3,5.88-.12c.74-.79.58-1.17-.08-1.82q-3.76-3.68-7.43-7.45c-.37-.37-1-.62-.91-1.45a26.86,26.86,0,0,0,3,0c2-.24.94-1.85.94-2.75s1.06-2.48-.94-2.75c-.58-.08-1.18,0-1.76,0-.42,0-.94.23-1.38-.48,2.18-2.13,4.4-4.27,6.59-6.45,2.91-2.89,2.86-2.86-.08-5.77-.82-.81-1.24-.67-1.95.05-3.6,3.66-7.38,7.17-10.83,11-1.86,2-3.85,1.77-6.21,1.31,1.66-1.86,3.48-3.51,5.25-5.21,2.28-2.19,2.21-2.16,0-4.42-.91-1-1.38-.79-2.2.07-2.3,2.41-4.87,4.58-7,7.12a7.15,7.15,0,0,1-7.17,2.82.49.49,0,0,0-.17,0c-1.33.16-1.36-.38-.77-1.35,1.52-2.56,3-5.14,4.52-7.71,2.45-4.19,1.26-6.8-3.53-7.91-2.9-.67-5.78-1.47-8.67-2.21-1-.25-1.17-.63-.34-1.36,1-.89,1.94-1.85,2.9-2.77M88,2a1,1,0,0,0,1.15,0A1.09,1.09,0,0,0,88,2"/><path class="cls-1" d="M434.66,134c-1.6,0-2.78,0-4,0a7.34,7.34,0,0,0-7.5,7.25c-.12,4.33-.12,8.68,0,13a7.17,7.17,0,0,0,7.15,7c3.11.07,6.22,0,9.33,0,.4,0,1.08-.3,1.13.41a1.08,1.08,0,0,1-1.1,1.14c-.29,0-.59,0-.88,0q-23,0-46.07,0a5.63,5.63,0,0,1-3.27-1c-26.26-17.17-60.49-6.74-72.76,22.16a41.58,41.58,0,0,0-3.18,11.82c-.13,1.19-.52,1.58-1.73,1.57q-8.61-.09-17.23,0c-1.18,0-1.48-.37-1.47-1.5.06-4.63,0-9.26,0-13.89,0-26,0-51.94.14-77.9a195.23,195.23,0,0,1,2-29.08c.21-1.33.6-2.63.87-3.94.37-1.79,1.56-2.51,3.26-2.88A63.78,63.78,0,0,1,310.09,67c13.47-.59,27-.37,40.43.1,3.34.11,6.67.4,10,.42a8.7,8.7,0,0,1,5.47,2c5.42,4.24,9.91,9.39,14.43,14.52,8.5,9.66,16.51,19.71,24.33,29.92a7.47,7.47,0,0,0,3.22,2.51c7.94,3.3,15,8.11,21.75,13.34a42.77,42.77,0,0,1,4.93,4.16M358.3,122c.7,0,1.39-.13,2.09-.13,6.09,0,12.19,0,18.28-.07,4.18,0,5.79-2.38,4-6.21s-3.82-7.5-5.83-11.19c-5.06-9.28-10.09-18.58-16.5-27A2.75,2.75,0,0,0,357.91,76c-14,0-28,0-42,0-4.17,0-6.31,2.08-6.33,6.21-.06,11.19-.07,22.37-.15,33.56a6.16,6.16,0,0,0,3.46,6c.42,1.15,1.41.62,2.11.63q27.62,0,55.22,0c.46,0,.91,0,1.37-.06a5.11,5.11,0,0,0-1.88-.27c-3.81-.09-7.61.18-11.41-.14m64.63,18.55-.19-.07v14.61h.19Z"/><path class="cls-1" d="M404.34,202.93a42.15,42.15,0,1,1-42-42.35,42,42,0,0,1,42,42.35m-66.24-.23a24.17,24.17,0,1,0,24.25-24.06A24,24,0,0,0,338.1,202.7"/><path class="cls-1" d="M154,202.8a42.11,42.11,0,1,1-42-42.19,42,42,0,0,1,42,42.19m-41.84-24.22C99.78,178.1,88.4,188.71,87.68,201a24.34,24.34,0,0,0,23.16,25.94,24.19,24.19,0,1,0,1.27-48.36"/><path class="cls-1" d="M395.67,166.66h49.21c4.16,0,5.58,1.4,5.52,5.62-.08,5.27.36,10.55-.36,15.8a23.08,23.08,0,0,1-3,9.09,5.23,5.23,0,0,1-4.9,2.73c-9.56-.1-19.11-.08-28.66,0-1.56,0-2.13-.27-2.32-2a48.63,48.63,0,0,0-14.5-30.19c-.24-.24-.47-.5-1-1.05"/><path class="cls-1" d="M430.8,147.67c0-1.93,0-3.87,0-5.8.07-2.35,1.29-3.51,3.64-3.57.64,0,1.29,0,1.93,0,3.77,0,3.81,0,5.13,3.4a35.92,35.92,0,0,1,2.9,13.83c0,1.13-.33,1.52-1.5,1.48-2.81-.08-5.63,0-8.44,0-2.36,0-3.59-1.16-3.67-3.5-.07-1.94,0-3.87,0-5.81Z"/><path class="cls-1" d="M8.2,188.77c0,2.52-.06,5,0,7.56,0,1.24-.46,1.52-1.54,1.35a6.29,6.29,0,0,1-4.64-3.38A17.68,17.68,0,0,1,.12,183.6c.23-2.51,2-3.85,4.77-3.95,3.31-.12,3.31-.12,3.31,3.15v6"/><path class="cls-1" d="M177.42.86c.6.5,1.36.11,2,.31.18.19.14.25,0,.25l-71.52,0c6.15-.1,12.3-.23,18.45-.29Q150.79.95,175.32.78c.7,0,1.4,0,2.1.08"/><path class="cls-1" d="M87,1.56c-.2.89-.92.57-1.43.57q-32.13,0-64.26,0a51.18,51.18,0,0,1,7.53-.22q28.47-.25,56.93-.45c.41,0,.82,0,1.23.07"/><path class="cls-1" d="M179.8,53.5c.51-.74,1.29-.42,1.95-.43,4.73-.12,9.47.16,14.21-.16-.17.91-.9.59-1.41.6q-7.37,0-14.75,0"/><path class="cls-1" d="M104,53.11l14.34-.06c.46,0,1,0,1.25.44l-14.36,0c-.44,0-1,.15-1.23-.4"/><path class="cls-1" d="M88,2a1.09,1.09,0,0,1,1.15,0A1,1,0,0,1,88,2"/><path class="cls-1" d="M312.9,121.83a13.45,13.45,0,0,0,3.29.31q19.92-.15,39.84-.27c.76,0,1.51.07,2.27.11,3.8.32,7.6,0,11.41.14a5.13,5.13,0,0,1,1.88.27c-.46,0-.92.06-1.37.06q-27.62,0-55.22,0c-.7,0-1.69.52-2.1-.62"/><path class="cls-1" d="M422.93,140.53v14.54h-.19V140.46l.19.07"/><path class="cls-1" d="M147.07,104c.89,2.78-.35,4.71-3.7,5.88-2.33.81-4.39,2.4-6.51,3.73-1.15.72-1.63.83-2.06-.77-.93-3.48-1.39-7.11-3.1-10.35-.35-.66,0-.94.39-1.32,1.82-1.81,3.68-3.58,5.42-5.45,1.05-1.13,1.23-.42,1.47.49a24.26,24.26,0,0,0,.7,2.53,2.47,2.47,0,0,0,3.77,1.49c.88-.45,1.74-1,2.58-1.47s1.05-.19,1,.62c0,1.34,0,2.68,0,4.62"/><path class="cls-1" d="M161,94.71c2.29,2.29,4.33,4.36,6.41,6.4.41.4.72.74.39,1.35-1.79,3.34-2.16,7.13-3.23,10.7-.36,1.18-.67,1.19-1.61.66-3.26-1.81-6.26-4.11-9.83-5.33-.73-.24-.64-.72-.64-1.23,0-2.58,0-5.15,0-7.73,0-1.18.42-1.14,1.23-.62s1.5.91,2.27,1.31a2.53,2.53,0,0,0,3.9-1.55c.42-1.2.71-2.46,1.13-4"/><path class="cls-1" d="M131.11,82.39c-.71,1.21-1.28,2.13-1.8,3.09-1.16,2.12-.49,3.77,1.84,4.45a16.41,16.41,0,0,1,3.57,1.16c-2.31,2.22-4.53,4.33-6.72,6.46a.83.83,0,0,1-1.1.14c-3.4-1.81-7.24-2.16-10.85-3.29-.8-.25-1.12-.43-.67-1.28,1.83-3.44,4.35-6.5,5.49-10.3.14-.44.51-.43.86-.43h9.38"/><path class="cls-1" d="M161,64.52c-.37-1.41-.6-2.49-.92-3.55-.69-2.26-2.23-2.91-4.32-1.82-1,.53-2,1.12-3.28,1.83V51.64c0-.42.06-.76.58-.91,3.65-1,6.58-3.48,9.85-5.25,1.1-.59,1.33-.47,1.71.74,1.11,3.55,1.43,7.35,3.27,10.68.25.45,0,.74-.35,1.05-2.1,2.09-4.19,4.2-6.54,6.57"/><path class="cls-1" d="M146.93,60.74a11.13,11.13,0,0,1-3.08-1.56c-2.16-1.1-3.54-.53-4.37,1.73-.4,1.08-.19,3-1.06,3.11-1.08.14-1.89-1.48-2.8-2.34-1.23-1.16-2.4-2.4-3.59-3.6-.37-.37-.69-.65-.34-1.32,1.73-3.3,2.19-7,3.16-10.55.32-1.14.52-1.41,1.69-.77,3.27,1.79,6.23,4.18,9.86,5.29.54.17.52.57.52,1,0,3,0,6,0,9"/><path class="cls-1" d="M131.06,76.86h-9.25c-.41,0-.81,0-1-.54-1.08-3.57-3.4-6.5-5.19-9.69-.74-1.33-.42-1.54.87-1.91,3.47-1,7.13-1.4,10.37-3.15.58-.31.82-.05,1.17.3,1.89,1.91,3.77,3.82,5.7,5.69.85.82.3,1-.43,1.23a27.42,27.42,0,0,0-2.85.83,2.43,2.43,0,0,0-1.44,3.55c.53,1.16,1.21,2.24,2,3.7"/><path class="cls-1" d="M165.05,91a16.48,16.48,0,0,1,3.49-1.14c2.16-.73,2.75-2.22,1.67-4.23-.41-.77-.85-1.53-1.31-2.28s-.2-1,.62-1c2.69,0,5.39,0,8.08,0a.9.9,0,0,1,1,.69c1.16,3.48,3.39,6.39,5.15,9.54.57,1,.87,1.5-.71,1.94-3.53,1-7.24,1.41-10.54,3.19-.53.29-.84,0-1.19-.39-2-2.08-4.11-4.13-6.29-6.32"/><path class="cls-1" d="M168.41,76.81c.77-1.37,1.37-2.36,1.9-3.39a2.54,2.54,0,0,0-1.5-3.92c-.22-.08-.45-.14-.67-.21-3.3-1-3.3-1-.73-3.55l3.85-3.82c.32-.31.56-.76,1.16-.44,3.33,1.83,7.11,2.25,10.69,3.25,1.35.38,1.37.75.74,1.84-1.8,3.13-4,6.07-5.18,9.52a.92.92,0,0,1-1,.72c-3,0-5.93,0-9.24,0"/><path class="cls-1" d="M147.08,86.68c0,1.44-.05,2.88,0,4.32,0,.76-.21,1.25-.94,1.42s-1.4,1.58-2.32.75-.73-3,.23-4,1.72-1.84,2.58-2.77l.44.26"/><path class="cls-1" d="M142.69,76.92a38.7,38.7,0,0,1-4.82,0c-1.29-.15-1.17-1.71-1.86-2.52-.29-.35.05-.72.42-.75,1-.11,2-1.18,3.11-.3s2.34,2,3.51,3.06l-.36.56"/><path class="cls-1" d="M152.91,86.42c1.07,1.12,2.14,2.24,3.19,3.39.48.52-.16,3.57-.74,3.68s-2.86-1.68-2.87-2.32c0-1.5,0-3,0-4.52l.43-.23"/><path class="cls-1" d="M152.44,72.72a13.5,13.5,0,0,0,0-2.32c-.51-2.57.6-4,3.05-4.6,1.43,3,1.06,3.9-3,6.92"/><path class="cls-1" d="M146.47,73c-1-1.15-2.06-2.3-3.07-3.47-.44-.51.08-3.42.62-3.68s2.89,1.45,2.9,2c0,1.6,0,3.21,0,4.82l-.46.32"/><path class="cls-1" d="M156.48,82.35c1.9,0,3.45,0,5,0,.52,0,2.24,2.38,2.11,2.88a.72.72,0,0,1-.31.34,3.26,3.26,0,0,1-4.07-.4l-2.09-2.1c-.12-.12-.22-.26-.63-.73"/><path class="cls-1" d="M142.9,82.86a15.47,15.47,0,0,0-2.18,2,2.79,2.79,0,0,1-3.71,1c-.91-.35-1.23-.55-.73-1.55.67-1.36,1.42-2.26,3.14-2a21,21,0,0,0,3.27,0l.21.48"/><path class="cls-1" d="M156.56,76.31c1.1-1,2.19-2,3.3-3,.48-.43,3.37,0,3.66.57s-1.41,2.91-2.13,2.92c-1.51,0-3,0-4.51,0-.11-.17-.21-.34-.32-.5"/><path class="cls-1" d="M377,202.83a14.57,14.57,0,0,1-14.74,14.66,14.79,14.79,0,0,1-14.8-14.69A15,15,0,0,1,362.34,188,14.76,14.76,0,0,1,377,202.83m-14.69,8.35a8.27,8.27,0,0,0,8.37-8.31,8.46,8.46,0,0,0-8.35-8.59,8.68,8.68,0,0,0-8.55,8.48,8.52,8.52,0,0,0,8.53,8.42"/><path class="cls-1" d="M126.55,202.81a14.5,14.5,0,0,1-14.68,14.68,14.65,14.65,0,0,1-14.76-14.67,14.72,14.72,0,1,1,29.44,0m-14.66,8.37a8.37,8.37,0,0,0,8.43-8.48,8.45,8.45,0,1,0-16.89.23,8.36,8.36,0,0,0,8.46,8.25"/></g></g></g></svg>