<svg xmlns="http://www.w3.org/2000/svg" viewBox="0 0 182 160"><defs><style>.cls-1{fill:#f58a77;}.cls-2{fill:#102a43;}.cls-3{fill:#fdfdfd;}.cls-4{fill:#d2d4d5;}</style></defs><title>Mail</title><g id="Layer_2" data-name="Layer 2"><g id="Layer_5" data-name="Layer 5"><rect class="cls-1" width="182" height="160"/><path class="cls-2" d="M127.26,76c1.94,1.19,3.31,3,5.13,4.35,2.48,1.76,3.15,4.08,3.13,7-.1,15.55-.13,31.11,0,46.66,0,4.23-2.51,6.26-6.43,6.25Q98,140.25,67,140.27c-4.69,0-9.39,0-14.08,0-3.63,0-5.78-2.24-5.78-5.9,0-15.65.06-31.3,0-46.95,0-2.91.73-5.17,3.16-6.89,1.79-1.27,3.17-3.06,5.09-4.18,0,2.8,0,5.61,0,8.41,0,.49-.09,1,.48,1.33C59.08,88,62.2,90.23,65.57,92a24,24,0,0,0,4.24,2.68,60.19,60.19,0,0,0,5.85,3.66,49.38,49.38,0,0,0,5.13,3.2l7.67,4.85a1.31,1.31,0,0,0,1.51.07,3.86,3.86,0,0,1,4.18.21,1.65,1.65,0,0,0,2-.1l17.52-11.66a30.27,30.27,0,0,0,4.42-3c3-1.66,5.74-3.78,8.66-5.59.55-.34.47-.83.47-1.32Z"/><path class="cls-3" d="M65.57,92c-3.37-1.78-6.49-4-9.76-5.94-.57-.34-.48-.84-.48-1.33,0-2.8,0-5.61,0-8.41q0-7.86,0-15.72c0-3.67,1.86-5.51,5.52-5.52l18.61,0,24.59,0,17.65,0c3.68,0,5.54,1.85,5.54,5.5q0,7.73,0,15.44l0,8.95c0,.49.08,1-.47,1.32-2.92,1.81-5.64,3.93-8.66,5.59-.35-.42-.84-.3-1.29-.3H66.93C66.45,91.61,65.89,91.44,65.57,92Zm25.68-6.77H63.78c-.78,0-1.35.28-1.49,1.12a1.46,1.46,0,0,0,1.15,1.77,5.22,5.22,0,0,0,1.37.13h53a3.44,3.44,0,0,0,1.49-.18,1.47,1.47,0,0,0,1-1.63c-.07-.8-.63-1.08-1.3-1.18a10.6,10.6,0,0,0-1.38,0Zm-.12-3.86h26.64a7.47,7.47,0,0,0,1.5-.1,1.18,1.18,0,0,0,1-1.13,1.48,1.48,0,0,0-.64-1.43,3,3,0,0,0-1.72-.37q-26.64,0-53.27,0a3.18,3.18,0,0,0-1.61.28,1.46,1.46,0,0,0-.78,1.62,1.22,1.22,0,0,0,1.11,1.06,7.06,7.06,0,0,0,1.38.07Zm0-6.36h26.51a8.49,8.49,0,0,0,1.24,0,1.49,1.49,0,0,0,1.38-1.33,1.33,1.33,0,0,0-1.11-1.52,6.38,6.38,0,0,0-1.64-.14H64.79a6.83,6.83,0,0,0-1.11,0,1.51,1.51,0,0,0-1.4,1.59c0,1,.6,1.28,1.39,1.38a8.66,8.66,0,0,0,1.25,0ZM75,66.46c3.36,0,6.72,0,10.08,0,1.79,0,2.88-.94,2.92-2.42a2.56,2.56,0,0,0-2.74-2.8q-10-.06-20,0A2.85,2.85,0,0,0,62.31,64c.07,1.56,1.19,2.5,3,2.51C68.55,66.47,71.77,66.46,75,66.46Zm39.58,0h3a2.61,2.61,0,0,0,2.69-2.26,2.4,2.4,0,0,0-2.16-2.87,30.09,30.09,0,0,0-7.16,0c-1.52.21-2.17,1.32-2,2.94a2.3,2.3,0,0,0,2.44,2.14C112.45,66.5,113.51,66.46,114.57,66.46Z"/><path class="cls-2" d="M104.05,55.08l-24.59,0c2.21-2.29,4.72-4.23,7.07-6.34a36.66,36.66,0,0,1,3.37-2.84,3.2,3.2,0,0,1,4,0A28.81,28.81,0,0,1,97.53,49,79.9,79.9,0,0,1,104.05,55.08Z"/><path class="cls-3" d="M74.55,37.94c0,.59-.16.92-.61,1.06a.7.7,0,0,1-.9-.45c-.89-2.51-1.77-5-2.62-7.54a.72.72,0,0,1,.59-.94c.62-.13.92.31,1.09.82.66,1.86,1.29,3.73,1.94,5.59Z"/><path class="cls-3" d="M111.36,30.15A.82.82,0,0,1,112,31.3c-.79,2.39-1.63,4.78-2.47,7.16a.75.75,0,0,1-1,.53A.77.77,0,0,1,108,37.9c.81-2.39,1.65-4.77,2.49-7.15A.85.85,0,0,1,111.36,30.15Z"/><path class="cls-3" d="M92.09,30.33a7.05,7.05,0,0,1-.36,2.41c-.27.56.49,1.47.37,2.32-.08.64.05,1.44-.88,1.41s-.84-.78-.76-1.37c.28-2-.12-4.05,0-6.07,0-.6-.07-1.34.78-1.36s.87.67.87,1.3Z"/><path class="cls-3" d="M46.54,57.84c-.12.69-.64,1.1-1.23.62-1.26-1-2.75-1.68-4-2.68-.34-.26-.6-.6-.33-1.06s.74-.48,1.2-.29a4,4,0,0,1,.58.36,12.74,12.74,0,0,0,3.06,2.06A1.05,1.05,0,0,1,46.54,57.84Z"/><path class="cls-3" d="M90.46,23.08V20.74c0-.56.16-1,.82-1s.78.44.78.94c0,1.6,0,3.21,0,4.81,0,.52-.25.91-.82.89s-.77-.43-.77-.95c0-.77,0-1.55,0-2.33Z"/><path class="cls-3" d="M141.67,55.14A1,1,0,0,1,141,56c-1.35.48-2.27,1.57-3.43,2.32-.5.32-1,.59-1.45,0s0-1,.52-1.35c1.17-.79,2.57-1.22,3.54-2.33a.86.86,0,0,1,1.14-.14A.76.76,0,0,1,141.67,55.14Z"/><path class="cls-3" d="M127.5,42.15a1.76,1.76,0,0,1,.29-2.13c.65-.77,1.2-1.63,1.82-2.43a.8.8,0,0,1,1.43.63c-.15.93-2.65,3.68-3.56,3.91Z"/><path class="cls-3" d="M52.26,37.23a1.38,1.38,0,0,1,.45.2,18.3,18.3,0,0,1,2.43,3.31.79.79,0,0,1-1.29.85c-.78-1-1.56-2-2.24-3.11C51.27,37.94,51.5,37.42,52.26,37.23Z"/><path class="cls-3" d="M111.86,26.71c.2-.53.44-1.28.76-2a.75.75,0,0,1,1-.42.77.77,0,0,1,.45,1c-.22.7-.45,1.4-.72,2.08a.79.79,0,0,1-1.09.54C111.83,27.77,111.73,27.37,111.86,26.71Z"/><path class="cls-3" d="M70.66,26.73c.06.65-.12,1-.59,1.12a.72.72,0,0,1-.9-.44,19,19,0,0,1-.75-2.2.79.79,0,0,1,1.49-.5C70.22,25.42,70.46,26.16,70.66,26.73Z"/><path class="cls-3" d="M127.48,42.13c.29,1.31-.61,2.1-1.34,2.93a.68.68,0,0,1-1,0,.81.81,0,0,1-.29-.85,3,3,0,0,1,2.64-2.09Z"/><path class="cls-3" d="M57.7,44.47a.77.77,0,0,1-.69.79c-.51.11-1.87-1.43-1.87-2.1a.75.75,0,0,1,.74-.82C56.37,42.29,57.65,43.75,57.7,44.47Z"/><path class="cls-3" d="M113.68,94.92,96.16,106.58a1.65,1.65,0,0,1-2,.1,3.86,3.86,0,0,0-4.18-.21,1.31,1.31,0,0,1-1.51-.07l-7.67-4.85c.41-.41.94-.27,1.43-.28,1.43,0,2.85,0,4.27,0a1.5,1.5,0,0,0,1.68-1.47,1.47,1.47,0,0,0-1.63-1.51c-3.63,0-7.25-.16-10.88.08a60.19,60.19,0,0,1-5.85-3.66c.32,0,.64-.06,1-.06h41.76C112.93,94.63,113.36,94.56,113.68,94.92Z"/><path class="cls-4" d="M113.68,94.92c-.32-.36-.75-.29-1.15-.29H70.77c-.32,0-.64,0-1,.06A24,24,0,0,1,65.57,92c.32-.57.88-.4,1.36-.4h49.88c.45,0,.94-.12,1.29.3A30.27,30.27,0,0,1,113.68,94.92Z"/><path class="cls-4" d="M75.66,98.35c3.63-.24,7.25-.08,10.88-.08a1.47,1.47,0,0,1,1.63,1.51,1.5,1.5,0,0,1-1.68,1.47c-1.42,0-2.84,0-4.27,0-.49,0-1-.13-1.43.28A49.38,49.38,0,0,1,75.66,98.35Z"/><path class="cls-4" d="M91.25,85.24h26.37a10.6,10.6,0,0,1,1.38,0c.67.1,1.23.38,1.3,1.18a1.47,1.47,0,0,1-1,1.63,3.44,3.44,0,0,1-1.49.18h-53a5.22,5.22,0,0,1-1.37-.13,1.46,1.46,0,0,1-1.15-1.77c.14-.84.71-1.12,1.49-1.12H91.25Z"/><path class="cls-4" d="M91.13,81.38H64.78a7.06,7.06,0,0,1-1.38-.07,1.22,1.22,0,0,1-1.11-1.06,1.46,1.46,0,0,1,.78-1.62,3.18,3.18,0,0,1,1.61-.28q26.63,0,53.27,0a3,3,0,0,1,1.72.37,1.48,1.48,0,0,1,.64,1.43,1.18,1.18,0,0,1-1,1.13,7.47,7.47,0,0,1-1.5.1Z"/><path class="cls-4" d="M91.16,75H64.92a8.66,8.66,0,0,1-1.25,0c-.79-.1-1.41-.43-1.39-1.38A1.51,1.51,0,0,1,63.68,72a6.83,6.83,0,0,1,1.11,0h52.75a6.38,6.38,0,0,1,1.64.14,1.33,1.33,0,0,1,1.11,1.52A1.49,1.49,0,0,1,118.91,75a8.49,8.49,0,0,1-1.24,0Z"/><path class="cls-4" d="M75,66.46c-3.22,0-6.44,0-9.66,0-1.83,0-2.95-.95-3-2.51a2.85,2.85,0,0,1,2.92-2.71q10-.06,20,0A2.56,2.56,0,0,1,88,64c0,1.48-1.13,2.41-2.92,2.42C81.71,66.47,78.35,66.46,75,66.46Z"/><path class="cls-4" d="M114.57,66.46c-1.06,0-2.12,0-3.17,0A2.3,2.3,0,0,1,109,64.3c-.15-1.62.5-2.73,2-2.94a30.09,30.09,0,0,1,7.16,0,2.4,2.4,0,0,1,2.16,2.87,2.61,2.61,0,0,1-2.69,2.26h-3Z"/></g></g></svg>