<svg xmlns="http://www.w3.org/2000/svg" viewBox="0 0 354.2 327.55"><defs><style>.cls-1{fill:#2c3e50;}.cls-2{fill:#ea675e;}.cls-3{fill:#01a086;}</style></defs><title>Phone</title><g id="Layer_2" data-name="Layer 2"><g id="Layer_5" data-name="Layer 5"><g id="Phone"><path class="cls-1" d="M194.22,327.5H104.61c-30.73,0-53.75-22.83-54.09-53.61q0-4.5-.08-9c0-3.61-1.46-5.07-5.17-5.09-4.62,0-9.24,0-13.87,0a14.94,14.94,0,0,1-15-13C14.7,234.38,13.17,222,11,209.69c-.81-4.55-.93-9.14-1.88-13.66-1-4.76-1.45-9.63-2.11-14.45s-1.2-9.92-2-14.85C3,153.34.76,140,.08,126.42c-1-20,8-34.77,24.82-45.09,2.86-1.76,5.85-3.34,8.85-4.85,1.66-.84,2.41-1.77,2.11-3.77C33.47,56.76,39.66,44.56,52.24,35c15-11.37,32.06-18,49.84-23.37a220.65,220.65,0,0,1,25.63-6.19c9.35-1.6,18.88-2.78,28.4-3.63a417,417,0,0,1,69.6-.64,317.3,317.3,0,0,1,60.06,10.12c15.85,4.38,31,10.12,44.86,19,8.23,5.3,16,11.2,20.28,20.48,4.63,10.1,3.74,20.47,1.21,30.83-1.06,4.35-2.41,8.65-3.9,12.88-2.76,7.83-9.12,12.29-17.38,12.31q-18.18,0-36.37,0c-8.63,0-15.68-5.15-17.59-13.44C275.75,88.4,273,85.16,269,82.47c-9.86-6.76-21-10.42-32.51-12.77-30.44-6.2-60.82-6-91,1.84C136,74,126.79,77.62,118.83,83.76A14.82,14.82,0,0,0,113,92.54c-2.1,9.06-9.16,14.28-18.53,14.27l-34.12,0c-10.42,0-16.22-4-19.54-14-.72-2.16-1.16-2.71-3.49-1.58-11.15,5.4-19.17,13.31-22,25.79-1.66,7.29-.16,14.45.8,21.58,3.77,27.84,7.77,55.64,11.7,83.45,1,6.8,2.07,13.58,3,20.38.22,1.67.75,2.4,2.53,2.38,5.12-.07,10.25,0,15.37.06,1.2,0,1.81-.32,1.89-1.66.42-7.3,3.82-13.64,6.82-20.06,11.46-24.42,24.78-47.84,38.39-71.1,3-5.17,6.44-10.18,8.89-15.61,2.68-5.95,7.68-6.76,12.87-6.5,4.09.2,8.19-.11,12.26.34,2.28.26,3-.53,2.94-2.88-.14-8.37.08-16.75-.06-25.12C132.58,97.1,134.29,94,141,94c11.62-.09,23.24-.07,34.87-.06,5.21,0,8,2.82,8,8.17.05,8.12.07,16.24-.1,24.36-.06,2.77.41,4.06,3.62,3.88,5.1-.3,10.25-.22,15.36,0,2.45.1,2.89-.78,2.86-3-.11-8.12-.06-16.25,0-24.37,0-6.45,2.62-9,9.13-9,11.25,0,22.5,0,33.75,0,5.68,0,8.31,2.48,8.41,8.16q.22,12.57.05,25.16c0,2.49.71,3.16,3.15,3.07,5.24-.2,10.5,0,15.75-.09a8.18,8.18,0,0,1,7.75,4.26c15.27,26.05,30.4,52.17,44.14,79.08,2.51,4.91,4.41,10.07,6.86,15a42,42,0,0,1,4.48,21.33c-.56,10.85.85,21.78-.71,32.57a52.67,52.67,0,0,1-52.27,45.08H194.22Zm.22-14.6q45.36,0,90.72,0c22.23,0,38.81-16.6,39-38.83.07-9.37-.07-18.75.05-28.12a22.77,22.77,0,0,0-2-9.42c-6.77-15.82-15.33-30.72-23.53-45.79-7.88-14.48-16.32-28.64-24.42-43a4.7,4.7,0,0,0-4.7-2.72q-74.79.11-149.57,0a4.7,4.7,0,0,0-4.72,2.74c-4.86,8.67-10,17.16-14.79,25.87-5.26,9.59-10.63,19.11-15.7,28.82-4.7,9-9.66,17.92-14.22,27-3.6,7.2-6.14,14.52-5.38,22.91.63,6.94.08,14,.09,21,.06,22.73,16.85,39.52,39.57,39.53Q149.65,312.92,194.44,312.9Zm118.28-221v0c5.75,0,11.5-.06,17.25,0,2.46,0,3.87-.82,4.7-3.28a125.29,125.29,0,0,0,4.08-14.77c2.21-10.86-.67-19.67-9.82-26.68C318.14,38.9,306.13,33.25,293.41,29,266.08,20,237.76,16.6,209.16,15.44a365.33,365.33,0,0,0-46.77,1.17c-17.66,1.54-35.15,3.94-52.32,8.42s-33.6,10.33-48,21c-8.52,6.31-13.32,14.08-11.67,25,.88,5.81,2.67,11.4,4.26,17C55.44,91,57,92,60,91.93q16.88-.21,33.75,0c3,0,4.66-.9,5.23-4a23.56,23.56,0,0,1,8-13.61,67.75,67.75,0,0,1,17.73-11c20.33-8.94,41.92-11.67,63.81-12.66a195.79,195.79,0,0,1,37.31,2.19c15.6,2.28,30.92,5.72,44.9,13.46,9.47,5.25,18,11.4,20.32,23,.46,2.31,2.37,2.58,4.39,2.56C301.22,91.86,307,91.89,312.72,91.89Z"/><path class="cls-2" d="M194.44,312.9q-44.81,0-89.6,0c-22.72,0-39.51-16.8-39.57-39.53,0-7,.54-14-.09-21-.76-8.39,1.78-15.71,5.38-22.91,4.56-9.11,9.52-18,14.22-27,5.07-9.71,10.44-19.23,15.7-28.82,4.77-8.71,9.93-17.2,14.79-25.87A4.7,4.7,0,0,1,120,145q74.77.09,149.57,0a4.7,4.7,0,0,1,4.7,2.72c8.1,14.35,16.54,28.51,24.42,43,8.2,15.07,16.76,30,23.53,45.79a22.77,22.77,0,0,1,2,9.42c-.12,9.37,0,18.75-.05,28.12-.15,22.23-16.73,38.79-39,38.83Q239.8,313,194.44,312.9Zm-51-32.19c2.24,0,4.49,0,6.73,0,4.33,0,7.18-2.72,7.33-6.93.16-4.72-2.29-7.71-6.91-7.9-5-.19-10-.18-14.95,0-4.52.16-7.36,3.14-7.33,7.26s3.2,7.37,7.65,7.55C138.43,280.8,140.93,280.71,143.42,280.71Zm51,0c2.5,0,5,.09,7.48,0,4.51-.2,7.42-3,7.57-7.14.14-4.3-2.71-7.49-7.36-7.69-5-.21-10-.19-14.94,0a7.29,7.29,0,0,0-7.14,7.37,7.42,7.42,0,0,0,7.29,7.44C189.64,280.82,192,280.71,194.38,280.72Zm-51.22-59.16v0h-3.74c-1.37,0-2.75-.07-4.11.05a7.48,7.48,0,0,0-7,7c-.2,3.6,2.54,7.38,6.31,7.62a133,133,0,0,0,16.82,0,7.15,7.15,0,0,0,6.46-7.48,7.45,7.45,0,0,0-7.23-7.18C148.16,221.45,145.66,221.56,143.16,221.56Zm103.43,0h-7.11a6.26,6.26,0,0,0-.75,0c-3.88.37-6.93,3.32-7,6.76-.07,4.34,2.52,7.74,6.72,8a139.37,139.37,0,0,0,15.7,0c4.57-.26,7.19-3.55,6.94-7.92-.23-4.11-3.2-6.75-7.78-6.86C251.08,221.5,248.83,221.55,246.59,221.55Zm-.26,44.29c-2.5,0-5-.09-7.5,0a7,7,0,0,0-7.1,7.07,7.21,7.21,0,0,0,6.67,7.67,147.58,147.58,0,0,0,15.74,0,7.11,7.11,0,0,0,7-7.73c-.15-4-2.95-6.81-7.28-7C251.34,265.73,248.83,265.84,246.33,265.84Zm.16-88.56c-2.36,0-4.73-.05-7.1,0-4.44.11-7.51,3-7.66,7a7.32,7.32,0,0,0,7,7.72,150.54,150.54,0,0,0,15.32,0c4.55-.21,7.09-3.4,6.89-8-.18-4.07-3-6.64-7.38-6.76C251.23,177.22,248.86,177.28,246.49,177.28Zm-50.83,44.3c-3.55,0-6.3-.18-9,0a7.27,7.27,0,0,0-6.64,7.21c-.12,3.62,2.59,7.22,6.29,7.42a149.45,149.45,0,0,0,16.8,0c3.71-.21,6.1-3.18,6.32-6.74.25-3.87-1.68-6.55-5.62-7.64C200.84,221.07,197.83,221.78,195.66,221.58Zm-52.5-44.3c-2.49,0-5-.09-7.48,0a7.38,7.38,0,0,0-7.39,7A7.28,7.28,0,0,0,135,192a136.75,136.75,0,0,0,16.07,0,7.26,7.26,0,0,0,6.82-7.56c-.15-4-3.3-7-7.61-7.16C147.9,177.22,145.53,177.28,143.16,177.28Zm51.83,0c-2.49,0-5-.07-7.47,0-4.22.14-7.23,2.93-7.51,6.85a7.23,7.23,0,0,0,6.51,7.79,125,125,0,0,0,16.42,0c4.18-.27,6.64-3.63,6.47-7.74s-3.06-6.77-7.32-6.94C199.73,177.19,197.36,177.27,195,177.27Z"/><path class="cls-3" d="M312.72,91.89c-5.75,0-11.5,0-17.25,0-2,0-3.93-.25-4.39-2.56-2.32-11.63-10.85-17.78-20.32-23-14-7.74-29.3-11.18-44.9-13.46a195.79,195.79,0,0,0-37.31-2.19c-21.89,1-43.48,3.72-63.81,12.66a67.75,67.75,0,0,0-17.73,11A23.56,23.56,0,0,0,99,88c-.57,3.07-2.23,4-5.23,4q-16.87-.19-33.75,0c-3,0-4.57-1-5.39-3.88C53,82.41,51.24,76.82,50.36,71c-1.65-10.87,3.15-18.64,11.67-25,14.44-10.7,30.92-16.55,48-21s34.66-6.88,52.32-8.42a365.33,365.33,0,0,1,46.77-1.17C237.76,16.6,266.08,20,293.41,29c12.72,4.21,24.73,9.86,35.52,18.13,9.15,7,12,15.82,9.82,26.68a125.29,125.29,0,0,1-4.08,14.77c-.83,2.46-2.24,3.32-4.7,3.28-5.75-.09-11.5,0-17.25,0Z"/><path class="cls-1" d="M143.42,280.71c-2.49,0-5,.09-7.48,0-4.45-.18-7.63-3.37-7.65-7.55s2.81-7.1,7.33-7.26c5-.18,10-.19,14.95,0,4.62.19,7.07,3.18,6.91,7.9-.15,4.21-3,6.91-7.33,6.93C147.91,280.72,145.66,280.71,143.42,280.71Z"/><path class="cls-1" d="M194.38,280.71c-2.36,0-4.74.11-7.1,0a7.42,7.42,0,0,1-7.29-7.44,7.29,7.29,0,0,1,7.14-7.37c5-.19,10-.21,14.94,0,4.65.2,7.5,3.39,7.36,7.69-.15,4.13-3.06,6.94-7.57,7.14C199.37,280.81,196.88,280.72,194.38,280.71Z"/><path class="cls-1" d="M143.16,221.56c2.5,0,5-.11,7.49,0a7.45,7.45,0,0,1,7.23,7.18,7.15,7.15,0,0,1-6.46,7.48,133,133,0,0,1-16.82,0c-3.77-.24-6.51-4-6.31-7.62a7.48,7.48,0,0,1,7-7c1.36-.12,2.74,0,4.11-.05h3.74Z"/><path class="cls-1" d="M246.59,221.55c2.24,0,4.49-.05,6.73,0,4.58.11,7.55,2.75,7.78,6.86.25,4.37-2.37,7.66-6.94,7.92a139.37,139.37,0,0,1-15.7,0c-4.2-.24-6.79-3.64-6.72-8,.06-3.44,3.11-6.39,7-6.76a6.26,6.26,0,0,1,.75,0Z"/><path class="cls-1" d="M246.33,265.84c2.5,0,5-.11,7.5,0,4.33.23,7.13,3,7.28,7a7.11,7.11,0,0,1-7,7.73,147.58,147.58,0,0,1-15.74,0,7.21,7.21,0,0,1-6.67-7.67,7,7,0,0,1,7.1-7.07C241.33,265.75,243.83,265.84,246.33,265.84Z"/><path class="cls-1" d="M246.49,177.28c2.37,0,4.74-.06,7.11,0,4.43.12,7.2,2.69,7.38,6.76.2,4.62-2.34,7.81-6.89,8a150.54,150.54,0,0,1-15.32,0,7.32,7.32,0,0,1-7-7.72c.15-4.05,3.22-6.91,7.66-7C241.76,177.23,244.13,177.28,246.49,177.28Z"/><path class="cls-1" d="M195.66,221.58c2.17.2,5.18-.51,8.12.3,3.94,1.09,5.87,3.77,5.62,7.64-.22,3.56-2.61,6.53-6.32,6.74a149.45,149.45,0,0,1-16.8,0c-3.7-.2-6.41-3.8-6.29-7.42a7.27,7.27,0,0,1,6.64-7.21C189.36,221.4,192.11,221.58,195.66,221.58Z"/><path class="cls-1" d="M143.16,177.28c2.37,0,4.74-.06,7.11,0,4.31.13,7.46,3.13,7.61,7.16a7.26,7.26,0,0,1-6.82,7.56A136.75,136.75,0,0,1,135,192a7.28,7.28,0,0,1-6.7-7.66,7.38,7.38,0,0,1,7.39-7C138.17,177.19,140.67,177.28,143.16,177.28Z"/><path class="cls-1" d="M195,177.27c2.37,0,4.74-.08,7.1,0,4.26.17,7.15,3,7.32,6.94s-2.29,7.47-6.47,7.74a125,125,0,0,1-16.42,0,7.23,7.23,0,0,1-6.51-7.79c.28-3.92,3.29-6.71,7.51-6.85C190,177.2,192.5,177.27,195,177.27Z"/></g></g></g></svg>